<svg xmlns="http://www.w3.org/2000/svg">
<defs>
<font id="BurnabyStencil" horiz-adv-x="467" >
  <font-face 
    font-family="Burnaby Stencil"
    font-weight="400"
    font-stretch="normal"
    units-per-em="1000"
    panose-1="4 0 5 6 0 0 0 2 0 4"
    ascent="750"
    descent="-250"
    x-height="521"
    cap-height="684"
    bbox="-96 -269 1573 931"
    underline-thickness="50"
    underline-position="-100"
    unicode-range="U+000D-FB06"
  />
<missing-glyph horiz-adv-x="756" 
d="M366 698l-19 -10h-33l-28 -9l-49 -19l-3 -3l-13 -5l-36 -25l-19 -19l-6 -3l-30 -27l-12 -15l-3 -13l-24 -29l-5 -13v-16l-20 -58v-12l-3 -15v-25l-7 -11v-68l13 -37v-9l-4 -4l7 -14v-3l9 -10l3 -12l15 -15l6 -15l38 -41l2 -5l18 -9l31 -28l6 -3l15 -12l16 -6l36 -22
l61 -22l7 -6h14l5 -14l-10 -10h-28l-7 -4l-8 4h-15l-19 9h-9l-30 13l-13 2l-12 9h-12l-18 19h-10l-20 19l-4 6l-14 8l-4 10l-16 15l-3 6l-9 10l-3 9l-12 12l-3 9l-16 31l-3 15l-9 9l-9 25v6l-7 11l-5 35l-6 18v89l11 61l25 56l75 97l22 23l48 30l19 6l17 17h12l9 7l15 6h10
l6 6h16l13 8h42l6 -5v-15zM650 608l6 -11l18 -19l6 -18l7 -4l3 -6l6 -6l16 -24v-9l5 -6l9 -19l13 -33v-19l6 -12v-18l3 -13v-64l-3 -15v-12l-10 -37l-9 -15v-19l-21 -33l-7 -15l-14 -19l-7 -3l-9 -18l-12 -12l-21 -25l-7 -3l-8 -16l-32 -19l-11 -11l-37 -19l-41 -16l-29 -5
h-13l-6 -9l-16 -1v7l-6 -3h-5v3h-6l-3 3l7 14l7 4l6 -3l25 9l19 3l11 7h16l8 7l14 5h15l24 25l24 13l9 11l7 3l18 16l8 11l17 10l3 15l8 4l7 15l12 12v8l4 7l21 52v12l7 13v21l5 24v68l-12 52l-12 31v8l-19 37v7l-9 4l-3 10l-9 10l-3 6l-12 12v6l-27 14l-7 13l-14 5l-29 23
l-12 4l-9 6h-3l-17 10l-20 4l-75 23l-7 27l12 12l15 -3h18l27 -9l16 -3l39 -19l25 -18h8l32 -24z" />
    <glyph glyph-name=".notdef" horiz-adv-x="756" 
d="M366 698l-19 -10h-33l-28 -9l-49 -19l-3 -3l-13 -5l-36 -25l-19 -19l-6 -3l-30 -27l-12 -15l-3 -13l-24 -29l-5 -13v-16l-20 -58v-12l-3 -15v-25l-7 -11v-68l13 -37v-9l-4 -4l7 -14v-3l9 -10l3 -12l15 -15l6 -15l38 -41l2 -5l18 -9l31 -28l6 -3l15 -12l16 -6l36 -22
l61 -22l7 -6h14l5 -14l-10 -10h-28l-7 -4l-8 4h-15l-19 9h-9l-30 13l-13 2l-12 9h-12l-18 19h-10l-20 19l-4 6l-14 8l-4 10l-16 15l-3 6l-9 10l-3 9l-12 12l-3 9l-16 31l-3 15l-9 9l-9 25v6l-7 11l-5 35l-6 18v89l11 61l25 56l75 97l22 23l48 30l19 6l17 17h12l9 7l15 6h10
l6 6h16l13 8h42l6 -5v-15zM650 608l6 -11l18 -19l6 -18l7 -4l3 -6l6 -6l16 -24v-9l5 -6l9 -19l13 -33v-19l6 -12v-18l3 -13v-64l-3 -15v-12l-10 -37l-9 -15v-19l-21 -33l-7 -15l-14 -19l-7 -3l-9 -18l-12 -12l-21 -25l-7 -3l-8 -16l-32 -19l-11 -11l-37 -19l-41 -16l-29 -5
h-13l-6 -9l-16 -1v7l-6 -3h-5v3h-6l-3 3l7 14l7 4l6 -3l25 9l19 3l11 7h16l8 7l14 5h15l24 25l24 13l9 11l7 3l18 16l8 11l17 10l3 15l8 4l7 15l12 12v8l4 7l21 52v12l7 13v21l5 24v68l-12 52l-12 31v8l-19 37v7l-9 4l-3 10l-9 10l-3 6l-12 12v6l-27 14l-7 13l-14 5l-29 23
l-12 4l-9 6h-3l-17 10l-20 4l-75 23l-7 27l12 12l15 -3h18l27 -9l16 -3l39 -19l25 -18h8l32 -24z" />
    <glyph glyph-name=".null" horiz-adv-x="0" 
 />
    <glyph glyph-name=".null" horiz-adv-x="0" 
 />
    <glyph glyph-name="nonmarkingreturn" unicode="&#xd;" horiz-adv-x="232" 
 />
    <glyph glyph-name="space" unicode=" " horiz-adv-x="232" 
 />
    <glyph glyph-name="exclam" unicode="!" horiz-adv-x="215" 
d="M177 652l-3 -7l3 -3l4 -12l8 -13v-3l-6 3v-12l9 -5v-3l8 -4l4 -24l11 -15l-5 -10l-15 -2v-6l12 -13l-3 -3h-9v-11l12 -6v-7l-3 -4l-6 10l-5 -6l5 -15l-4 -12h6l4 17l6 -5v-12l-15 -10v-6h3l3 -9l-3 -3v-15l-12 -12v-25l-3 -3v-15h3l3 -12l-12 -3v-6l7 -8l-4 -5h-13v-15h7
l4 9h8l6 3l-3 -7l-18 -13l-4 2l-6 -12v-34l-9 -17l-4 -23l-5 -5l-5 -11l-19 -9l-13 4l-24 4l-9 9l-6 15v16l-3 3v24l-6 6v14l-28 92v189l3 43v42l6 6l6 3l7 7h45l49 -7l7 4l21 -10zM177 97l3 -12v-40l-8 -15l-21 -15h-75l-6 6h-12l-6 12l-10 9v67l19 19h19l6 3l39 3l33 -3
l19 -19v-15zM186 569v-3l3 3v3z" />
    <glyph glyph-name="quotedbl" unicode="&#x22;" horiz-adv-x="336" 
d="M313 642v-12l8 -14l-8 -16l4 -11l-7 -8v-9h15l8 4l-9 -18l-10 5l-7 -15l9 -14l-3 -11v-9l-5 -6l-4 -16v-30l-16 -16l-31 -7l-28 6l-8 7l-6 19l-3 15l-7 10l4 17l-8 4l-9 -20l-4 4v19l-3 -6l-10 -4v-6l-3 -3v-6h-9v9l5 5l-14 5l-7 -7v-9l-3 -3l-2 3h-9l3 -15l-6 -6
l-11 -31h-5l-23 -8l-32 11l-9 10l-3 12l-4 8l-17 83v25l-3 13l-3 33v39l15 16h18l6 3h16l14 3h41l11 -11l3 -14l-3 -16l3 -8v-22h13v-21h9l3 6l6 6l-6 9v10h16l6 -13l6 3v4l-6 3v24l-4 27l10 10h5l25 6h49l22 -6l10 -10zM160 520h6l-3 3zM145 533l6 -10l3 3l-3 12zM188 535
v-6l3 -3l6 7l-3 2h-6zM151 553l3 -3v3l-3 3v-3z" />
    <glyph glyph-name="numbersign" unicode="#" horiz-adv-x="490" 
d="M437 603l-3 -5l-3 -22l-5 -19v-30l-3 -6v-9l-5 -20l22 -11h22l14 -7l5 -17v-37l-8 -16l-23 -12l-10 -3l-6 -9l-17 9h-10v-9l-3 -3v-7l9 -5v-6l7 -6l6 3v-12h-25l-5 21h-10l-4 -9l7 -12v-13l3 -3l-6 -12h9l12 -7l10 4v-3l24 5l6 -5v-3l12 -12v-16l3 -6v-24l-6 -18l-12 -10
l-18 -6h-13l-15 -3h-25l-8 -3l4 -11l-4 -4h-6l-4 3l-7 -3l-5 -15l-10 -15l-6 -22v-12l-9 -19l-3 -3l-3 -16l-14 -13l-19 -4l-32 8l-8 7v28l3 9l-3 12l-3 3v6h7l6 15v13l-10 9l-4 9h-27l-8 9l-4 15h-5l-16 -15h-7l-9 -12v-9l15 -7l-5 -6h-6l-8 8l-7 -7l8 -4v-9l4 -8l-7 -7h-4
l-5 -18v-10l-8 -24l-15 -7l-5 4l-16 -7l-17 9l-5 10l3 9l5 31l6 18v12l8 15l-6 27l-41 20h-13l-6 6v24l12 12l28 3l18 6h13l9 10l9 18l8 7l-5 14l-6 6v3h12l4 7l-4 6l-9 5v4l9 -4l4 15l-7 4h-6v9l-6 6l-16 7h-42v9l3 6l-3 6l-6 -3l-10 10l7 20h9l12 6h49l9 4h10l11 12h10
l17 75l7 13v16l7 12v15l9 9v9l18 7h21l7 -7h6l12 -13l-7 -29v-9l-5 -13l-3 -21l-7 -31l-6 -9l3 -6l3 3h13v-8l24 -7l7 7l13 -4l15 5l8 15l-9 -5l-3 3v9h12l9 13v3l6 9v21l9 28l6 12v12l7 15l12 13h21l18 3l27 -14v-17zM214 177l-9 -5l-5 4l2 3l-2 3l11 6l3 -3v-8zM236 203
v-4l14 -9l5 4l-9 9h-10zM214 371v-6h4l9 -9v15h-13zM434 365l-5 -3l-3 3v9l5 -3h3l5 3zM218 209h-4v-3l4 -3l15 9l-3 3zM276 316l-4 -3l4 -3l3 3v3h-3zM260 328v-3l6 -3v6h-6zM255 350v-3l2 -3v6h-2zM242 319v-3h4v3h-4zM272 334v-3l4 3h-4zM236 371l3 -3v3h-3zM249 368h3
l-3 3v-3zM434 307h3l3 3z" />
    <glyph glyph-name="dollar" unicode="$" horiz-adv-x="434" 
d="M404 575l13 -67l-7 -26l-26 -13h-31l-34 -4l-8 7h-11l-22 14l-4 13l-7 -10l5 -4l-8 -4h-6l3 5l-4 12l-10 -6l-11 -12l4 -11v-10h-11l-4 -12l-8 -15l9 -7l-4 -8l-10 3l-6 6l6 5h-6l-11 -5h-4v-6l9 -10l3 7l12 -10l-6 -12l-8 -8l-3 -32l2 -10l-2 -14l-11 -18h-27l-6 5
l-28 5l-36 23l-5 6l-21 14l-26 51v9l3 5v6h-3l-3 13l-5 5l5 14l-4 16l4 20v39l12 38l10 12l8 17l32 24l46 14l33 12l9 18v19l12 12l37 4l16 -7l3 -9l5 -6l8 -30l14 -4l6 -3l19 -3l10 -7l20 -5l25 -13l20 -21zM407 294l9 -37l6 -71l-9 -44l-8 -19l-3 -3l-6 -19l-33 -33
l-13 -4l-12 -9l-9 -3l-10 -9l-21 -3v-6l-18 -3l-10 9l-19 -10l-8 -14l-6 -6l3 -3v-10l-21 -10l-32 5l-11 12v15l-11 21l-22 9l-7 6h-12l-22 10h-6l-18 9h-6l-6 6l-9 3l-10 9v9l-15 8l-3 11l-5 5l-7 28v16l-4 4l5 9l-4 12v11l6 6h3l15 8l19 5l21 3h12l11 5l19 -10l13 -38
l21 -22h19v-9h46l3 3h17l4 9l10 4l8 9l-5 6l2 6l9 7h3v42l-6 3v15l-21 22l-9 28v48h-9l-3 4l7 7l5 -4v6l-8 3l5 5h8l9 18l38 -6v-6h16l12 -6h5l10 -5h14l4 -9l14 -5l29 -30zM206 462v-12l3 -3l6 6v9h-9zM196 401l4 -9l3 3l-3 6h-4z" />
    <glyph glyph-name="percent" unicode="%" horiz-adv-x="693" 
d="M681 238l15 -15v-9l3 -15l6 -3v-6l-12 -4l-5 -26l8 -11l6 -3v-13l-15 -5l-4 -9l3 -6l8 -4l-5 -8l7 -4l-4 -6l-10 -5l-8 -16l-6 -25l-18 -17l-33 -22h-34l-12 18l-12 5l-5 13h-17l6 -3l-3 -3v-6l-10 -8l-11 -16h-34l-28 9l-19 18l-10 18l-9 64l-6 15l6 11l-5 8l-3 10l6 9
v16l-3 6v11l3 7v9l4 8l-9 10l8 4l9 18v9l30 30l19 4l4 3h36l15 -52l-9 -9h-6v-10l-6 -6v-6l15 -6l14 7l-9 13l5 5v6h11l5 9h11v-15h-10l-6 -13l-3 -3v-3l12 6l13 3l3 3h16l-4 4l-12 3l9 4l-9 16l-5 5l11 8l3 25l10 9h24l33 -14l9 -11l3 -9l13 -6zM276 648l6 -30l6 -6l7 -24
v-19l-4 -6v-27l4 -8l-8 -47h11v-5l-13 -6v-11l3 -6l-6 -7h-6v-20h-11l-10 -16l-15 -12l-28 -13h-21l-3 6l-10 10l-3 24l3 6v22l10 18l-5 13h12l5 53l-6 -11l-9 10l9 8v9l-13 13l-11 4l5 5h16v6h-10l-11 12l-4 -12v-9l-19 -6h-5l-14 -14l-17 11v-43l3 -6v-14l9 -14v-8l6 -19
v-6l7 -7v-52l-13 -12h-9l-9 -5l-38 10l-30 20l-8 16l-3 11l-13 25v27l-5 28l5 64v19l3 24l6 6v22l37 36h12l18 10h36l11 -16l6 -39l11 -7v-4l-10 5l-6 -6l7 -16l12 -10v6l-4 5l14 5l6 18h-4l7 19l5 25l11 12h21l6 -4l18 -4l16 -8zM582 670l-7 -19l-18 -27l-9 -6v-6l-8 -10
l-3 -11l-7 -6l-12 -16l-13 -12l-18 -27l-12 -10l-6 -25l-28 -39v-6l-12 -19l-5 -16l-13 -17l-9 -19l-13 -15l-6 -12l-9 -9l-6 -4l3 -3v-6h-6v-3l3 -3l-6 -9l-5 -15l-10 -3v-19l-16 -15l-18 -34l-9 -9l-31 -58l-10 -10l-6 -18l-24 -37l-3 -11l-9 -12l-3 -13l-16 -28l-19 -19
l-21 -7l-20 5l-8 8l5 16l17 25l7 6l3 10l6 6l9 18l7 9l27 46l29 57l19 26l4 3v9l12 12l3 9l16 28l17 22v7l18 26l4 12l10 4v11l-4 3l4 3l6 19v-16h6l3 10l-3 3l9 12l3 7l9 11l4 13l24 34l12 20l4 13l8 12l3 7l9 11l31 57v4l7 7l8 15l6 19v9l16 15l7 14l18 4h36l9 -9v-9z
M188 544l-10 -8h-3v-3l3 -3v-4h-9v13l6 5l-5 5l5 4h13v-9zM512 208v-18l6 -6l12 6l-4 8l-8 3l-3 7h-3zM499 165v-6l13 -5l9 5h9v6h-31zM123 594l-9 -5v-14h6v13h19v6h-16zM551 193v-9h3l10 -7v7l-8 14zM537 104h14v6l-8 8zM561 42l9 -9l5 10l-7 7zM561 73l6 -6v-9l3 3l5 16z
M527 143v-11l10 3v8h-10zM545 162l-2 -10l5 -9h3l-3 19h-3zM156 591l-4 -9l8 -7v16h-4zM564 211l9 -5v8l-3 3zM568 136l5 -4h3v11zM551 138v-6h6v6h-6zM579 107l6 -3v6l-3 3zM543 70v-3h5v3l-3 4zM543 204l2 -5h3v5h-5zM197 566v-6l3 -3v9h-3zM557 113h4l3 3l-3 3zM512 129
v-7h3v7h-3zM589 162l3 -3h6l-3 3h-6zM554 97l3 -3h4v3h-7zM576 159l-3 -3h6v3h-3zM509 141v-6l3 3v3h-3zM178 608v-6l3 3v3h-3zM163 608v-3h3v3h-3zM548 214v-3h3v3h-3zM194 594l3 -3v3h-3zM686 204l3 4v3zM527 91h3l-3 3v-3zM169 602h3v3z" />
    <glyph glyph-name="ampersand" unicode="&#x26;" horiz-adv-x="550" 
d="M392 648l3 -15l4 -7v-18l9 -18l-7 -13l4 -24v-10l4 -7l-10 -10v-16l3 -3v-3h-8l-23 -46l-28 -28h-6l-9 -2v-3l12 -9h-15v-10l20 -7l14 7l-6 -12l-3 3l-7 -3l-9 -22v-12l-6 -6v-16l19 -24v-9l15 4v-16l3 -3l6 3v9h6v-12l-9 -3v-10l12 -6v-11l19 -7h9l-13 -9l10 -9v-10
l18 -18l15 -7v-23l8 -15l14 -4l3 -6l-3 -7h12v-5l3 -3l5 -16l7 -9l6 -3l4 -11l9 -4l12 -18l16 -16l10 -19l-10 -12l-22 -8l-37 -6h-46l-18 9l-6 5l-14 -2l-20 27h-14l-5 23l-5 5h-10l-9 8l4 15l-13 13l-6 4l-3 15l-11 21h-11l-3 3l7 6l-16 25v6l-8 3l-6 20l-16 17h-6l-10 9
v15l-12 25l-10 3v-13l11 -5l-7 -10l-7 12l-8 10l8 9l-5 9l-3 18l-16 16l-4 12h-8l-3 -12h-6l-4 3l4 3l-4 3l4 6v6l10 6l-10 9v11l-18 26l-22 40l-11 11l-4 23l-10 18l-9 28v49l7 29l8 19l35 41l35 21h17l22 11l44 8l19 -4h28l14 -6h10l23 -8l8 -8l16 -8zM181 309l-6 -13
l-15 -7l-8 -26l-9 -7l-4 -45l17 5l16 -4v14l16 6l4 -10h-11l-3 -11l-15 -7l-3 3h-7l-6 -6h-8v-20l11 6l5 -16l-8 -13l-3 -9l6 -9l4 -12h12v15h-13v6l3 3l4 -3h12l9 -9l-3 -3v-22h16v-6h8l5 -5l17 8v-6h25l6 3l7 -8l8 8v-15l6 -7h16l3 -8h-10l16 -23v-20l-16 -4l-10 -12
l-26 -5l-32 -11l-9 4l-11 -6l-5 -5l-7 8h-43l-25 10h-6l-27 14l-3 6l-25 13l-16 28l-11 10l-10 32l-3 16l-3 6v15l-3 15v49l3 10l3 23l13 19l8 19l16 24l45 46h22l6 -6l9 -4l15 -24l3 -9l3 -3l4 -10l20 11l5 -3zM478 323v-18l-9 -56l-9 -5l-16 3v10l-12 5l-3 15h-6l-6 13
l-6 6v46h33l13 -6h9zM313 387v-9l6 -6v-8h9v3l-8 4l14 13v7zM315 97l-6 -22l-8 4v3h3v8l-4 9l7 4h6l8 4zM304 419l-9 3v-3l9 -13l4 -15h5v9l2 3v3l-8 19zM429 235l6 -6l-7 -8l-5 4l-6 16l3 3h7zM172 244l3 -6l-6 -3l-9 8v14h6v-7h6l6 -3zM395 274l7 -3l-10 -2l-9 8v13h9z
M353 332l-10 10h-6v12h3l3 -6l10 -5v-11zM169 167v16l3 3l8 -8zM186 269l-8 -7v22zM475 161l-6 -6l-8 8l11 4zM200 204h-12l6 6h6v-6zM314 425l5 -9v9h-5zM279 439v-3h3v3h-3zM172 131l3 -3v3h-3z" />
    <glyph glyph-name="quotesingle" unicode="'" horiz-adv-x="166" 
d="M143 620l-3 -6l4 -10l-4 -23v-19l-6 -12v-52l-4 -9l-3 -30l-6 -13l-19 -8l-56 7l-8 29v49l-10 80l5 80l15 8h9l4 4l26 -4l15 3l25 -3l16 -8v-63z" />
    <glyph glyph-name="parenleft" unicode="(" horiz-adv-x="258" 
d="M233 747l6 -6l7 -10l6 -21l-3 -9v-10l-52 -42h-5l-4 -9l-19 -19v-9l8 -4l-5 -5h-19l3 -6l-8 -4l-4 -17h-5v-13l-3 -6v-5l-15 -18l-4 -14v-12l-9 -27v-31l-13 -48l7 -85l-4 -8l3 -15v-135l12 -27l4 -22l5 -10l4 -20l14 -23l4 -14l11 -6l17 -24l39 -41v-16l-12 -20h-22
l-5 9l-20 5l-5 14l-5 -3l-19 14l-12 16l-7 6l-6 13l-14 18l-7 12l-6 3l-15 31l-6 5l-10 35l-7 13l5 14l-7 3v25l-9 12v12l-6 18v28l-3 13v48l-3 40l3 46v28l6 58l3 3v27l7 12v19l8 18v9l9 34l7 12l7 23l14 23l3 12l7 15l11 13l9 18l19 12l21 22l12 6h10l9 6h9l7 6h30l9 -9z
" />
    <glyph glyph-name="parenright" unicode=")" horiz-adv-x="258" 
d="M150 658l15 -11l3 -12l10 -19v-9h3l9 -7l5 -17l7 -16l9 -36l3 -6v-13l6 -12v-14l9 -19v-16l5 -12l8 -73v-67l-6 -6l8 -12l-8 -16v-21l-7 -18l5 -14l-11 -32v-12l-3 -6v-13l-18 -66l-9 -22l-3 -12l-22 -43l-15 -22l-33 -35l-19 -16l-18 -10l-7 -7l-24 -4h-23l-7 5v10
l-12 12v22l16 14h3l48 50l26 46l17 48l8 30l10 28v22l6 36v74l6 11l-5 4l5 51v53l-3 8l-3 31l3 11l-6 10v12l-11 50l-7 14l-9 28l-19 24l-12 25l-52 52v27l12 12h21l16 -12l30 -15l34 -34z" />
    <glyph glyph-name="asterisk" unicode="*" horiz-adv-x="421" 
d="M407 560l8 -16l8 -30l-10 -28l-11 -5h-31v-24l-15 -4l-9 -10h-12v-6h6v-3l-3 -3h6l3 -2l-3 -3l14 -14l6 -29l-14 -12l-38 -25l-23 -10h-6l-10 -9h-17l-23 23l-8 32l-7 6v5l-18 8h-13l-6 -18l-12 -4l-20 -24l-13 -6l-13 3l-64 45l-10 24l7 8l7 2l21 22l24 21v20l-15 7
l-49 13l-9 9l-11 4l-4 9v24l9 18l9 13v6l13 25l19 7l56 -33l12 11l7 -7l9 -3l12 11l-6 7v6l10 14v25l-4 7v23l13 5l6 6h18l12 -3h49l25 -11v-54h12l13 -12l2 -9h22l12 6h34l16 -16zM289 624l-3 3h-5l5 -9v-6h12v12h-9zM350 468v-12l9 8l-6 10z" />
    <glyph glyph-name="plus" unicode="+" horiz-adv-x="494" 
d="M458 330l3 -7v-55l-16 -14h-20l-7 -3h-12l-9 -3l-14 4l-8 -7v-10h-36l-7 3h-12l-7 -15h16v-10l-15 -3v-6l6 -8l-8 -18l8 -4l-6 -9v-46l-6 -20l-9 -5l-6 -6h-82l-12 19l-7 58v45l-6 13v12l-9 6h-13l-18 7h-82l-22 20v16l-3 7l3 18l5 4l-7 6l9 28l9 4h9l6 6h33l65 4l9 9
l12 24v42l4 16v45l12 14l20 7l12 -6l7 4h37l6 -6l11 -19l4 -45l3 -10v-24l-3 -6l10 -20l-5 -6l7 -8h12v-5l34 -3h46l24 -7h9l16 -15v-12zM351 204h-6l-6 -8v12l15 5h16zM387 235h-6v6h6v-6zM351 248v-3h9v3h-9z" />
    <glyph glyph-name="comma" unicode="," horiz-adv-x="198" 
d="M181 39l-9 -12v-11l-16 -24l-17 -18l-10 -3l-15 -15l-36 -9h-28l-10 13l4 14l12 12l28 14v13l-34 16l-6 6l-9 4l-9 21v53l16 25l42 11l61 -6l27 -26z" />
    <glyph glyph-name="hyphen" unicode="-" horiz-adv-x="331" 
d="M299 337l3 -3v-33l-6 -13l3 -14l-8 -17l-49 -6l-12 7l-11 -3l-48 -4l-7 6l-6 -5h-79l-28 5l-10 3l-3 7l-6 6v64l8 12l26 4h30l15 5l20 -5l3 3l64 7l24 -4l3 3h13l9 -3l9 3h33l10 -9v-16z" />
    <glyph glyph-name="period" unicode="." horiz-adv-x="204" 
d="M166 86l6 -12v-34l-13 -24l-15 -9h-73l-18 12h-10l-13 26l4 50l9 9l4 7l9 9h22l53 5l16 -8l19 -19v-12z" />
    <glyph glyph-name="slash" unicode="/" horiz-adv-x="410" 
d="M379 667l-15 -24v-6l-18 -43l-7 -6v-11l-9 -14l-5 -18l-19 -49l-3 -3l-12 -27h-7v-11l-9 -14l-15 -46l-15 -30l-9 -25l-14 -27l-5 -19l-21 -45l-3 -10l-12 -25l-10 -27l-6 -9l-30 -71l-16 -30l-29 -71l-13 -15l-13 -3l-3 -3h-22l-11 6v25l15 30l21 55l13 22l9 27h8v16
l4 6l12 30l3 3l3 13h3l6 27l10 10v8l6 10l8 24l25 52v10l19 36v6l11 28l7 9l8 20l4 4l6 19l28 61l3 17l12 20l10 30l9 12v9l21 34l6 6v6l6 7v6l15 9h28l4 -3h8v-28z" />
    <glyph glyph-name="zero" unicode="0" horiz-adv-x="486" 
d="M409 660l19 -18l2 -6l9 -16l10 -9v-15l6 -45l12 -6v-4l-6 -3v-50h12l10 -8l-6 -6h-10v-22l6 -3l7 6l7 -8l-10 -6v-11l-16 -7v-62l3 -3l-9 -10l6 -25l6 -3l-4 -6l4 -11l6 -6l-15 -5v-11l6 -6v-7l-9 -4v-29l6 -6v-6l-6 -6h-7l4 -25l-7 -21v-25l-6 -11v-32l3 -9l-3 -6h3
l4 -3l-12 -7l-4 -11l-16 -30l-8 -4l-20 -15l-16 -6l-25 -19h-19l-4 -3l-38 -9h-19l-18 9l-9 10v18l-6 7l3 3l3 8l6 9l-5 12l5 16v10l15 14l9 6l19 19v6l6 7l6 14l3 16l6 18v16l9 8l-4 16l4 31l3 8l6 102l-3 36v36l-3 13v47l-8 50l-7 7v9l-9 6l-5 16h-11l-12 17l-11 13l2 15
v49l12 25l37 5l34 -8l6 -6h8l40 -18l10 -10zM232 669v-27l-3 -6v-30l-22 -10l-15 -18l-9 -4l3 -3h6l3 -9l-3 -3l-8 4l-7 -7v-13l-3 -5l4 -8l-17 -28v-34l-4 -9l10 -10l-6 -6v-7h6v-13l-12 -4v-6h3v-13l-9 -9v-19l6 3h6v-5l-12 -17v-36l-5 -25l5 -17l6 -13l-3 -14l6 -4l-6 -3
l-4 -35l8 -23h15l3 7l6 -16v-6l-13 6l-9 -6l3 -3v-23l10 -15l15 5v-4l-9 -6v-6h12l6 6l4 -6l-4 -9l15 -16h6l6 -5v-6l-6 -4v-15l-4 -14l4 -5v-17l6 -4v-3l4 -3l-4 -3h-6l-24 -29l-46 4l-30 10l-10 6l-9 3l-18 12l-12 15l-13 4l-15 33l-15 23v14l-3 21v34l-3 3l3 36v157l6 30
v70l2 13v24l10 64l3 3l5 36l4 3v7l6 12v6l28 37l9 6l9 9l25 16h9l12 6l34 6h30l14 -14zM210 565h-3v9h12zM189 510h-6v6h6v-6zM467 433l3 3v4z" />
    <glyph glyph-name="one" unicode="1" horiz-adv-x="281" 
d="M243 654l-4 -12l4 -7h6l3 3h8v-16l-5 -6l-6 -3l3 -3h14v-10l7 -2v-15l7 -15l-4 -4h-16v-6l10 -14v-16l-4 -6v-19l-4 5l-10 -11h7l4 -15l5 -9h-11l-5 6h-6v-6l13 -7l-9 -11l17 -9l-4 -7h-6l-5 6l-3 -6l8 -15l-3 -9l3 -19l3 4h3v-4l-6 -6l-2 -6l-9 -9v-12l9 -9l-3 -6v-10
h-10l6 -70l-8 -24l8 -12l-8 -14l11 -20l-9 -9l4 -28v-18l3 -9l-8 -7l5 -5l-6 -25v-14l3 -7l-6 -5l-4 -35l-6 -18l-9 -3l-12 -11l-62 5h-39l-9 9l-9 5l-3 10v37l2 16v69l7 92l3 10v69l6 55v31l3 64l3 3v18h-12l-4 -11l-6 5l10 18l4 4l-4 9h-15v12l5 6h3v6h-20l-28 -6l-3 6h-3
v-6l-6 6v15h-3l-7 14l4 8v11l30 14v-10h6l5 14l20 13l9 3l18 19h6l3 3h10v12l9 9h3l7 16l17 9h31l9 4l32 -12zM243 445v-3l3 6z" />
    <glyph glyph-name="two" unicode="2" 
d="M413 627l8 -16l13 -7l3 -5l-3 -3l3 -6h7l8 -9l-5 -16l5 -20l-12 -10h4l9 -7l-6 -6h-13v-9l10 -9l-15 -16v-18l-3 -6l-4 -21l-10 -15l6 -13h-11l-9 -21l-13 -13v-11l-9 -10l-5 -10l-13 -7v-11h-9l-15 -15l-7 -3l-6 -12h-11l-16 -15l-9 -6l-8 -15l-20 -7l-20 -20l-4 -17
l-6 -6h-6v6l-7 -6l-3 -6l-11 -11v-7l8 -9l-4 -9l-13 7l-6 -11l5 -6h4l3 -3l-4 -4l4 -11l-3 -3v-3h14l-11 -12l5 -22l6 -9v-9l3 -6v-9l3 -3v-3h-6v-28l-8 -9l-10 -3l-4 -9l-30 -3l-6 3l-4 -4l-11 4h-18l-16 3h-17l-7 3h-9l-9 6l-6 -3l-24 18l-13 13l-3 9l-3 3v16l3 11v16
l13 24l12 34l36 51l11 21l51 65l14 9l5 10l11 5l6 7l49 45l9 6l22 22l17 15l3 6l13 12l22 43v31l-7 19v17l-6 4l-3 6h-8l-14 9v9h-6l-7 -4l-23 4l-9 -6h-7l7 16l14 -5l7 11l-6 2v3h-3l-3 3h-9l-7 -6l-17 -2l8 -5v-20l-18 9l-6 -6l-4 -12h-8l-8 3l-20 -6h-4l-11 -16l-9 -18
l-15 -14l-31 5l-9 6l-32 6l-4 10l-10 8v27l15 41l9 15l4 11l9 5l3 9l25 24l33 15l5 5l50 13h28l17 -10l7 -23v-9l9 -4v-16l9 5l-6 2l13 4v30l10 12l25 6l26 -5l13 -7l29 -9l10 -9l9 -3l14 -13l13 -6l3 -5l6 -6v-3l12 -4zM434 34l-9 -14l-15 -5l-83 3h-51l-16 3l-8 9l-7 15
l4 9v19l-11 11l4 4v12l10 9l4 12l13 10h31l18 -3h95l21 -14v-80zM171 163l8 -12l-4 -8l6 -3l4 11l-4 7v9l-5 6zM233 51h-3l-3 -3h-6v10h12v-7zM249 599v-6h17l-3 6h-14zM440 559v-4h4v4h-4zM239 623l6 3l-3 3zM224 651v-3h3v3h-3z" />
    <glyph glyph-name="three" unicode="3" horiz-adv-x="456" 
d="M404 627l6 -6l3 -13l10 -17v-7l3 -6v-6l3 -9l-3 -7l5 -3v-9l-7 -7l5 -5h5l6 -6v-9h-6l-5 3l-3 -3l3 -9l-3 -13l5 -3l-2 -3v-15l-6 -6l-3 -9l5 -11l-11 -6l-6 -29l-15 -7l-14 -18l6 -3h10l-7 -6l-3 -8l24 -29l10 5l4 -8v-12l9 -5l-3 -13l2 -3l8 -33l8 -7v-7l8 -3l-8 -21
l9 -9l-6 -6v-30l-3 -9v-10l-8 -29l4 -4l-6 -19l-4 -4l-11 -30l-12 -11l-3 -13l-6 -9h-6l-30 -19l-10 -3l-11 -10l-40 -7l-10 -10h-28l-3 3h-15l-12 22v33l3 9v27l36 29l14 7l8 10l9 22l3 25v46l-6 30l-9 18v10l-28 18l-41 9l-8 -3h-30l-24 11l-5 39l5 50l12 8l9 8h36l19 3
h12l14 8l23 37l3 22l-3 7l8 13l-5 5v7l5 5l-18 34l-18 19l-19 6l-5 15l-3 3v15l-8 15l8 7l5 35l13 14h34l12 -6h16l17 -10l28 -9l40 -40zM190 97l9 -4l3 -10v-13l7 -7l-7 -8v-33l-8 -16l-55 4l-16 9h-4l-33 14l-32 33l-5 14l-6 6l-13 27v30l32 25l40 14l11 -11l3 -9l14 -19
l7 -13l25 -17l6 -6h22v-10zM193 685l7 -29l-4 -32v-13l-12 -11l-13 -6l-12 -9l-23 -8l-15 -45l-11 -15l-15 -3l-32 11l-8 7l-14 5l-11 7l-7 28l5 33l5 10l3 15l10 19l18 17l5 9l35 23h25l10 5l29 6l25 -13v-11z" />
    <glyph glyph-name="four" unicode="4" horiz-adv-x="464" 
d="M413 664v-40l3 -6v-18l10 -5l-4 -7v-14l-9 -5l12 -12l-12 -5l3 -44l-7 -14l4 -19l-4 -7v-25l-3 -9l3 -5l4 -19l6 -6l-6 -6l-7 12l-9 -9l6 -6v-7l13 -12h-10l-6 -5l3 -13l-4 -11l4 -4v-10l6 -11l-9 -4v-30l-3 -11l16 -11l-7 -3l-6 -12l-3 6h-3v-12l9 -3l3 -6l-3 -3l27 -10
l13 -12l6 -12v-28l-12 -28h-7l-7 5l-4 -5l7 -6l-10 -5l-7 -6h-6l-7 -8l10 -5l-4 -8l11 -6v-4h-4l-3 3l-15 -15v-19l-6 -31v-24l-13 -12h-87l-17 11l3 32v73l3 16v27l-6 6v6l-6 3l-3 -3l4 -12h-12v9l-5 8l13 14v6h6l3 -3l7 20l-10 10l-6 3l3 3h8l7 15l-9 4v3h6v37l-3 3l-6 -3
v3l-6 3v6l5 5l-6 5l4 8v9h9v6l-3 6l8 15l-8 7v15l-11 4l11 8l-5 5l5 11l-3 15l-8 4v9l5 8v22l-7 8l15 16l-7 89l7 53l8 15l28 39l32 17l59 -8l9 -9zM430 110h-2l-6 6v4h-6l-3 6l17 -4v-12zM400 141h3v2zM235 471l6 -12l-6 -6v-24l4 -8l-12 -12l-8 -24l-15 -14h-6l-24 -28
l-6 -13l-5 -4l-5 -20l-3 3h-12l-21 -40v-16l9 -5l-6 -3l-3 -6l10 -13l11 4v16l12 -4h6l7 -6l3 -6h7l6 21l5 -6v-9l12 6v-12h-18v-10l6 6l20 -7l14 -14l6 -3l-16 -3v-9l5 -10l-8 -9v-6h6v-3l-20 -9h-53l-17 -4l-13 4l-7 -3h-52l-27 3h-17l-20 13v42l6 12v10l6 18l10 12l5 11
l24 19l8 18l33 41l3 6l12 13v5l16 15l3 13l12 12l11 22l7 -4l4 19l14 15l13 21l6 6l16 31l22 23l8 -7h6v-68zM271 187l-6 -6l9 -6h7v12h-10zM174 288v-7l6 -6v-9h-3l-6 -6l-3 6l-7 9l3 6l-6 4h-6v4l9 5l7 -3l6 3l3 -3zM226 291h-25v-6l-5 -7l-7 7v12h37v-6zM428 291l-3 -3v9
h-3v12h3l5 -6zM262 336h-3v-9h-2l-5 11l5 6l5 -4v-4z" />
    <glyph glyph-name="five" unicode="5" horiz-adv-x="473" 
d="M427 642l-6 -26l-9 -13l-45 -24h-10v3l-3 3l-17 -11l-17 -4l-8 -6l-7 6h-31l-18 9v10h-9l-3 -4l-6 -3l-6 -6l-10 5v-5l3 -3v-17l10 -5l-3 -6h-18l-10 -21h-15v-6l3 -3l14 7l16 -23h22l12 -6l-3 -6h3l9 6v6l3 3l7 -7l-4 -8l-6 -2v-7h3l3 4l12 5l10 -9l-10 -3l7 -6l24 -6
v-6l9 -4v-3l9 -9v-6h7l18 -6l11 -16l16 -8l6 -7l9 -4l12 -28l10 -5l7 -11v-7l8 -28l7 -6l-5 -11l4 -10l7 -3l-12 -18h9l6 3l3 -3l-3 -7v-8l-6 3v-6l4 -5l-4 -5l3 -9l6 -6v-13h-6v-6l6 -8l-6 -6v-31h-7v-18l7 -10v-6h-3l-6 6l-5 -14l4 -4v-3h-3v-3h9l-15 -19l-2 -12l-6 -9
l-4 -22h-6l-25 -24l-6 -3l-8 -8l-38 -14l-18 -9h-18l-23 -6l-32 7v5l-6 13v12l-6 12v22l10 32l8 7l12 6l12 10h13l9 18l8 8l4 13l4 3l5 16l3 22v61l-3 27l-5 15l-10 16h-3l-9 6h-10l-6 -6h-9l-11 7l-5 -10h-7l-4 9l6 5v10l-6 6v6l3 3v3l-6 -3h-10v-9l10 -9v-7l-9 -7l-8 16
l-18 10l-5 -3l-3 6h-9v-3l12 -6h5l7 -6l-3 -7l-14 -6l-6 -11h-4l-10 6l3 6l-5 4l-4 -7l-9 -3l3 -3h-27l-10 -13h-64l-22 8l-7 15l4 81v25l6 24v34l3 9v18l4 13v25l5 22l7 54v39l6 28l10 10l9 3h15l12 3l34 -6l9 -4l31 -6l24 -12v-3l6 -10v-8h19l-4 -16l-3 4l-12 -4l-3 -6
l9 -6h16v6l3 3l7 -14l-4 -8h-6l-3 4l-8 -8l11 -10h15l6 -6l3 17l-7 8l7 11v9l11 30h7l18 -6l10 5l52 5l10 3h11l15 3l7 -3h9l11 -11zM192 37l-3 -12l4 -11l-13 -13h-22l-18 6l-3 3h-11l-14 9l-22 21l-3 6h-7l-20 25l-6 18l-3 3v12l4 13h-14v25l19 18h13l10 4l17 -4l11 -21
l14 -10l5 -10l15 -8l13 -13l34 -11v-50zM161 533v-15l6 -6v12l-3 13zM254 500l-4 9l5 4l5 -6zM277 325v-7h10v7h-10zM200 564l4 -10h3l3 6l-3 4h-7zM210 493v-6l3 -2v-3l6 8l-6 6zM189 554l-3 -3v-6h3l5 5zM235 466v-6l9 6v3zM143 493l2 -3h3v9zM225 585l3 4l-3 3v-7z
M296 447h3l-3 3v-3zM183 328l-3 -3l6 3h-3zM170 548h3v3zM268 453l3 -3v3h-3z" />
    <glyph glyph-name="six" unicode="6" horiz-adv-x="485" 
d="M440 609l5 -16l10 -21l8 -53l-6 -12l-12 -13l-21 -3h-22l-9 -3l-27 4l-10 15v12l-3 10v9l-8 19l-10 11l-4 9h-20l-12 4l14 7l-5 11h-22l-3 -6l-5 11h-8l-9 -8l-7 -4l-5 -15l-21 -8l-4 -13l-6 -7v-8h-12v11l3 7l-6 6l-9 -5v-29l-22 -18l7 -3l14 5l4 -8h9v-6l-9 -10v-27
l-3 -3v-15l18 -10h12v3l4 3l6 -3v-9l32 4l5 -5l15 5l12 -4h37l29 -6l5 4h2v-4l27 -9l31 -28l9 -6l10 -14v-7l7 -7l8 -24l4 -19l12 -17l-6 -6v-22l3 -6l3 -18l3 -6l-3 -6v-49l3 -3l-9 -14l-10 -41v-16l-9 -9l-3 -6l-25 -30l-24 -16l-9 -3l-11 -7l-32 -6h-19l-6 -5h-17l-18 -3
l-14 4l-9 26v28l-3 9l3 32l9 5h5l28 19l17 26l12 44l-3 11l-5 48l-8 4v12l-11 4l5 6v13l-18 8l-6 6l-22 6h-14l-10 -3l3 -6v-6h-6l-8 16l-14 -10l-19 -11l-5 11h-6v-6h-9l-16 -15l13 5v-8l-10 -4v-11l-6 -7v-6l-3 -3l9 -3v-3h4v-3l-7 -2l3 -10l7 3h6v-6h-11l-5 -9v-10l3 -3
v-6l-3 -3v-9l3 -6l4 6v12h15v-12l-12 -8v-26l9 -9l6 -18h12v-6l17 -17l8 -26v-13l10 -6l-13 -7l-4 -14v-9l-7 -20l-11 -4h-24l-6 3h-19l-36 18l-28 22l-18 23l-6 4l-13 18l-6 16l-9 13l-7 26l-5 31l-6 12v31l3 9l-3 30l3 49v113l6 31v18h2v16l4 6v9l3 10v12l12 27l6 19
l10 14l6 13l9 9l5 12l7 4l12 15l13 8l12 10l24 12l12 3l13 7h33l6 -7l-3 -3l9 -4v-42l13 4l3 9l13 6v-18l5 -7l-14 -21h5l12 -7l3 3v13h19l-10 9l-6 3l6 7l-9 6l15 23l4 16h6l6 6h36l7 -3l21 -3l7 -6l11 -3l9 -6l10 -3l6 -9l11 -5zM194 281v-7l-6 -6l-3 6v13h-3l-3 3l6 3v9
h3l5 5l9 -10zM231 596v-12h11l-5 17zM220 299h-8v5l14 7zM188 497h6l-6 10v-10zM173 455h6l-6 6v-6zM234 617v-3h3v6zM188 467h3v3z" />
    <glyph glyph-name="seven" unicode="7" horiz-adv-x="452" 
d="M439 654l7 -13l-10 -30l-7 -14l-5 -26l-6 -6l-3 -9l-6 -9l-3 -15l-5 -5l-8 -20v-6l-14 -17l-5 -23l-5 -9v-11l-12 -6l-5 -19l-8 -17l3 -14h-6l-6 -13v-17l-6 -7v-12l9 -16l-3 -6l-6 3v6l-3 7l-7 -3l-5 -33l9 -10v-6h-4l-5 -6v-10h-9l-6 -35l-3 -4v-27h6v-3l-13 -6l-6 -10
v-15l6 6l6 -5l-18 -9v-11l-5 -9l5 -6v-3l3 -3l-3 -9l-6 -6v-7l6 -3l-9 -9v-33l-7 -13l-6 -22l-11 -11l-22 -3h-88l-6 3l-15 4l-7 15v27l3 22v17l9 52l3 6v28l16 49l3 24l8 22l7 15l9 27l28 66l21 36l31 49l6 6l8 22l44 51l-6 6l3 3h9v3l11 12v10l-5 3l-3 -3v-3h3v-3l-15 -16
l-10 19h-9v15l-15 -7l-4 10l-5 -6h-31l-11 -7l-11 7h-11v12l-25 -12l-9 -3l-8 8l-15 5l-7 -4h-27l-24 -17l8 -8l-11 -22l-15 -7l-21 5l-6 9v15l3 4l-3 12v12l-3 9v70l12 13h55l19 6l64 3h52l16 4l27 -4l9 3h80l7 -7l-10 -15v-12l6 -3v-9l12 -4v-5l-11 4l-9 -9l5 -4h11l7 3h9
l12 12l10 3l14 13l3 -4h10v-12zM305 599l-13 -3v-12h7l11 11zM231 605l-5 -5l8 -4l7 3v3zM338 651v-9h6v9h-6zM347 620l4 -9v9h-4z" />
    <glyph glyph-name="eight" unicode="8" horiz-adv-x="480" 
d="M421 638l8 -26l6 -10v-5l7 -18v-35l3 -17l-3 -7v-45l-10 -16v-30l-16 -18l-4 -16l3 -3l6 -13h6l8 -6v-12l13 -6l9 -25v-6l6 -10l4 -23l3 -3v-33l-3 -16l6 -16l-5 -38l8 -4v-10l-6 7l-3 -19v-16l-7 -23v-7l-6 -21l-12 -24l-37 -38l-9 -2l-15 -10l-33 -6l-10 -6h-16l-6 -3
l-23 4l-15 22l-5 32l-5 11l7 7l7 24l13 13l19 12l14 4v6l10 18l6 31v79l3 3l-3 6h-3l-3 16l-13 25l-30 21v4l-15 -8h-10l-8 -4l-4 4h-33l-4 -3h-18v-12l-5 6v3l-5 5l-17 -17v-12l6 -9l-3 -6h-3l-6 -6v-10l3 -6l-3 -6h-16v-15l9 -9l-3 -3l-9 -19l6 -12v-27l7 -7l-5 -15
l17 -12l4 -8l8 -4l6 3l4 -6l14 -6h11l31 -21l4 -20l-2 -24v-33l-11 -18l-24 -8l-21 4h-34l-57 18l-23 22l-17 12l-10 22l-9 12l-9 21l-3 16l-5 4l-13 69v67l3 3v19l3 6v19l9 8l9 28l22 22l8 16l-5 26l-13 19l-9 33v6l-6 7v24l-3 15v46l3 12v10l13 36l9 12l3 7l15 15l5 10
l16 8l14 14l44 14l6 3l32 6h23l13 -12l8 -20l11 -5v-6l6 3l13 34h14l9 3h21l34 -9l21 -10l16 -12l7 -3zM279 600l-9 -9l3 -6l-6 -6l-6 3v9l9 6l-6 5l3 4h-14v3l3 3l-3 9l-4 -6v-5l-25 -12l4 -9l-7 -14v-12h-12v-6l-9 -3l-4 4l-8 -7v-12l-9 -9v-13h3l5 10l11 -5l-4 -8l-6 -3
v-3h3v-9l5 -5l4 14l3 3l5 -24l-17 -3l-3 2l-4 -8h10l8 -16l9 4l7 -4l-3 -6l-12 -3v-6l9 3l13 -13h15v-6l7 -6l11 4h15l31 8l10 10l2 9l9 14v72l-6 15v15l-19 21zM160 300v-15h6v21zM234 462l-5 5l5 5l5 -5zM246 649l3 -3l4 3v3zM206 437l3 -3h3v3h-6zM231 557v3h3l3 -3h-6z
" />
    <glyph glyph-name="nine" unicode="9" horiz-adv-x="485" 
d="M405 641l13 -13l3 -9l8 -3l-4 -5l4 -11v-5l7 -3l3 -10l9 -9l-4 -19h16v-9h-3v-11l-4 -4l4 -12v-31l10 -8l7 -15l-10 -6v-26l8 -3l-8 -9v-15l-4 -13h7l6 -3l-10 -10l4 -11v-24l-6 -11l9 -8v-12l-6 -3l6 -6v-6l-6 -3l3 -6v-10l-7 -6v-27l-7 -22l4 -12l3 -3v-7l-9 -3v-28
l9 -5v-6l-18 -18v-16l-6 -6v-25l-9 -9l-3 -8l-20 -28l-8 -3v-7l-16 -14l-6 -13l-13 -3l-32 -19h-7l-33 -9l-8 -4l-33 5l-12 24h-13l-5 -12l-12 -13h-27l-19 6h-6l-15 7h-9l-43 24l-15 15l-15 10l-22 35l-9 32v12l-3 13v18l12 6l7 7l57 7l20 -10l24 -38l27 -15h15l6 -6l17 -7
l14 -17v-31l3 -16v-15h10l6 16l-6 30l8 13l-4 10l7 7l10 16l21 19l11 7l17 32l7 8l4 38l3 9l4 36l-10 4l3 12l9 3l5 15l-19 10l-19 3l-6 -6l-9 -6h-10v-10h-11l-4 8l-21 -11l-9 10h-27l-32 6h-20l-19 9l-41 13l-30 30l-18 36v6l-6 13v12l-9 55v71l3 11v35l6 6l12 21v12l6 6
l6 10l6 3l7 11l18 13l10 11l30 10l24 4l18 6h34l6 6l22 -22v-36l3 -6l-3 -6v-19l6 -6v-10l-3 -5v-28h-13v6h-15v-15l-8 -10v-11l-10 -5v-17h6v-12l-9 -5v-8l5 -5l-11 -9l8 -8l-12 -12l4 -12l-3 -6l3 -3l7 4l-4 -13l-8 -3l-8 15l-6 -9h6v-18l7 3v-12l16 -17l12 4l2 4h9v-7
l9 -9h25l36 7l4 9l6 -7l16 16h6l11 12l3 7l4 3l3 24l-4 30l4 6l-13 56l-5 5l-3 19l-16 9h-3l-3 10l-25 24v6l-8 6l5 3l3 16l-3 3l6 39l16 16l31 -3l11 -7l24 -7l11 -11h14l19 -18l6 -3zM253 634l-3 -3h-10v10l8 3zM253 586l-7 -7l-8 5l15 10v-8zM160 482v-10l6 7v3h-6z
M191 573v-3l4 3h-4z" />
    <glyph glyph-name="colon" unicode=":" horiz-adv-x="206" 
d="M180 65l-6 -47l-23 -23l-15 -4h-68l-20 5l-22 23v83l8 5v7l24 14h43l7 -3l15 3l31 -4l20 -19zM169 387l3 -6v-52l-21 -20l-25 -4h-61l-12 6l-13 4l-6 17v58l10 23l9 5l9 9h43l12 -3h33l19 -19v-18z" />
    <glyph glyph-name="semicolon" unicode=";" horiz-adv-x="196" 
d="M156 103l7 -17v-9l3 -10v-21l-5 -5l5 -5v-14l-7 -16v-6l-7 -24l-40 -31l-30 -12h-35l-11 11l14 14h3l31 23v7l-9 9l-42 21l-13 28v51l11 24l22 4l12 6h43l35 -14zM172 389v-9l3 -6v-60l-10 -18l-9 -4l-6 -6h-6l-13 -7l-75 4l-18 9l-15 16v30l3 6v25l6 24l25 21h82l3 -3
h14l3 -6z" />
    <glyph glyph-name="less" unicode="&#x3c;" horiz-adv-x="354" 
d="M335 556l10 -10v-61l-16 -21l-49 -25l-15 -3l-7 -6l-23 -15l-13 -3l-15 -9l-24 -19h-4l-6 -6l-6 -3l-9 -8h-10l-20 -7l-6 -10l-49 -27l-22 -9l-16 3l-6 12v35l9 8v5l10 4l9 6l9 10l13 4v9l17 6l13 9l9 3l22 11l5 7l3 -4l7 14l18 5l3 6l47 34h8l19 18l12 6l3 4l15 12l17 3
l17 18h18zM354 201v-58l-15 -14l-16 5l-9 6l-9 3l-37 18l-3 3l-21 13l-37 18l-12 12l-37 18l-13 13l-13 5l-11 10l-30 14l-5 17l4 9l16 16l12 3l25 11h18l31 -14l3 -4h8l25 -12l10 -3l12 -13h8l7 -6l34 -14l6 -7l19 -6l11 -12l11 -7z" />
    <glyph glyph-name="equal" unicode="=" horiz-adv-x="436" 
d="M435 235l-10 -11l-14 -5l-55 -6h-55l-9 3l-6 -6h-89l-44 -4l-26 4l-29 -4l-35 4v6l-8 -7l-20 16l-5 57l9 24l11 6l16 2h30l25 3h15l8 3h10l12 3l19 -3h76v-3l9 3h49l20 4l11 -4h12l15 -3h31l15 -5l12 -13v-64zM429 450l-2 -28l-10 -10l-23 -9h-75l-21 -3h-40l-6 -3h-21
l-13 -6l-9 4l-13 -7l-11 6h-28l-13 -3h-85l-18 9h-6l-11 11l-4 35l3 21v21l6 6l18 10h22l24 3h40l14 3l68 -3l77 -6h36l19 -4h61l17 -8z" />
    <glyph glyph-name="greater" unicode="&#x3e;" horiz-adv-x="364" 
d="M342 394l9 -10v-39l-7 -15l-16 -7l-21 4l-14 -7h-6v5l9 4l-3 4h-19v-19l6 -5l-12 -31l-18 -10h-11l-14 -17h-6l-19 -10l-5 -6l-12 -3l-8 -7l-32 -21l-47 -27h-9l-13 -11l-28 -12l-17 6v59l16 16h6l5 10l34 20l13 6l15 10l37 21l12 12l-3 6v9l3 4l3 -7v-6h15l4 13l3 -4
l8 5l-5 11h-9l-3 -3h-3v3l-4 3v6l-3 3l4 12l-13 12l3 3v10l-3 6l6 6v7l-6 6l-9 -10l-3 16l-12 3l-3 5l-41 25l-9 3l-11 10l-13 6l-25 24v49l10 9l3 7l20 -13h8l6 -7l34 -16l23 -19l31 -13l22 -21l18 -9l11 -11l14 -5l12 4l12 -4v-3l9 -6l11 3l5 -16h9l3 3h3v-7l12 -4l12 -13
l16 -3v-12zM207 384l-4 4l-3 -5l7 -8h9v9h-9zM244 458h-6v10h6v-10zM189 397l-6 -6l12 3v3h-6zM207 351l3 -3h3v3h-6zM247 354l3 -3v3l-3 3v-3z" />
    <glyph glyph-name="question" unicode="?" horiz-adv-x="451" 
d="M269 110v-31l-3 -12v-26l-10 -16l-11 -4l-9 -9h-45l-16 3h-12l-27 9l-10 9v6l-9 5v70l15 24l18 8h19l32 8l46 -7l18 -18zM418 627l8 -4v-13l11 -9l7 -17l3 -3v-7h-6v-12l10 -11l-7 -10v-12l4 -8l-5 -28l4 -10l-10 -9v-16l-3 -6v-6l-5 -10l-6 -8l-3 -19l-10 -9l-4 -9
l-35 -40h-12l-19 -12l-13 -6v-10l-9 -6h-5l-9 -5v-10h-12l-4 -12l-9 -9l-10 -19v-5l-4 -4l-10 -40l-8 -4l-6 -10h-44l-6 2h-16l-31 9h-5l-13 13v61l6 12v6l7 18v5l17 32l22 21l6 11l24 17l13 4l76 48l3 6l15 15l7 52l-7 7v8l8 8l-5 14l-18 19v6l-15 8l-6 -2h-10l-9 9h-27
l-6 -7v10h-19l-11 -7l-25 -7v-16h-9l-7 3l-14 -16l-3 -6h-3l-7 -9l-3 -17l-9 -14l-5 -15l-17 -8l-60 11l-13 9v3l-12 7v24l12 43l7 12l3 16l14 15l21 29l17 10l8 3l12 13l38 9l5 3h53l11 -25v-12h16v-13l-9 -5l9 -12l-3 -3h-6v-10h6l3 6l15 4l-9 9v3h5l4 11v16l12 24l20 4
l20 -6h6l18 -10l41 -12l12 -12l22 -9l8 -12h9zM239 617v-3l6 3l-3 3zM233 629v-3l6 3h-6zM211 663v-9h3l5 9h-8z" />
    <glyph glyph-name="at" unicode="@" horiz-adv-x="587" 
d="M556 441l15 -42l5 -71l-4 -13l3 -13l-3 -17v-74l-6 -11v-41l-10 -17v-11l-21 -36l-12 -11l-6 -10l-10 -6v-6l-23 -9h-18l-4 -10l-14 7l-14 -7l-3 3h-43l-9 3l-8 -3v3l2 4l-12 12h-37l-19 20l4 16l-3 12l12 26l6 5v19h7l5 21v34l-4 16l7 15v8l6 12l-9 13l6 16l-21 34v32
l18 22h13l9 3h15l6 3h22l12 -6h6v-24l4 -7v-40l3 -5v-9h-7v-44l4 -10l-4 -8v-39h4l6 -4l-13 -7v-11l3 -9l-3 -6l3 -13v-8l10 -11l14 5l4 -5l20 10l4 12l10 10v6l-7 6l5 9l-5 13h11l4 21v9l3 6v19l-3 5v28l-4 24l4 7l-6 30v25l-19 39l-11 4v9l-30 27l-30 7l-5 5l-15 3l-18 13
h-12l-13 8v50h19l6 3h36l45 -7l17 -8l20 -6l10 -10h10l47 -39zM281 517l-3 -6v-15l-12 -12l-28 -7l-12 6l-61 -32v-10h-11l-17 -12l-11 -22l-10 -9l-3 -19l-6 -6l-6 -18l-8 -7l8 -11l-6 -13l-3 -23l3 -7l-7 -12v-104l-5 -6l5 -6v-43l7 -15l6 -7v-12l3 -3v-15l12 -25l19 -9
v-8l8 -10l13 -6l12 -12h10l22 -15l11 5l18 -6h22l12 -3h95l9 6l40 3l19 7l29 4l21 -14l4 -12l4 -3l3 -29l-25 -26l-25 -5l-8 -4l-41 -9h-39l-10 -3l-27 3h-28l-24 3h-27l-55 15l-10 6h-9l-21 9h-6l-6 7l-13 4l-27 19l-6 10h-6l-30 47l-14 39v12l-5 30v16l3 3l-3 6v30l-5 28
l7 13l-5 8v41l3 29l-3 7l7 45l8 16v19l12 6l-6 10l9 14v12l6 19l10 8v6l12 25l8 13l10 9l6 8l24 18l57 24l58 9l17 -4h9l12 -12v-10zM281 376v-17l4 -11l-7 -17l-8 -8l-4 -13h-9l-6 -25v-33l-3 -6v-32l3 -6v-14l4 -4l-5 -16l7 -15l9 -9l15 -33v-35l-14 -23h-28l-34 15
l-21 37l-6 3v6l-7 -3l-4 5l10 9l-9 16v80l-3 6l3 3v21l3 6v34l7 24l6 10v14l16 25l-7 3l3 3h12l6 6h12l3 4l28 7l12 -4zM450 181h-7l-4 -2l-8 8l15 8zM468 187v-6h-3l-4 4l4 9zM278 310h-6v5h6v-5zM440 178h-3l2 1z" />
    <glyph glyph-name="A" unicode="A" horiz-adv-x="513" 
d="M307 672l5 -4l7 -23l6 -12v-16l12 -12l7 -24v-12l4 4l5 -4l-3 -4l3 -26l6 -7v-26l21 -14v-6l-7 -3l16 -52l3 -2v-22l13 -25v-9l6 -15l11 -10l-5 -9l4 -23l16 -8l-8 -8v-6l14 -14l-5 -5v-12l8 -34h17v-9h-6l-3 3v-15l9 -9v-12l11 -33l5 -4l3 -18l11 -13v-9l-4 -11l7 -13
l6 -6l13 -44v-28l-9 -5l-21 -7l-80 7l-6 3h-25l-16 9l-11 21l-3 19l-8 16l-11 39l-5 5l5 4l-3 4v18l-3 9l3 9l-12 12v17l-15 8v15l4 4l-9 25l-8 8l-6 -6h-3v-3l13 -4v-9l-10 -9l-3 6l3 6l-3 4h-9v13l15 5l3 6h4v6h-13l-17 -18v-16l2 -3v-6l-8 4l6 -16v-7l5 -8v-6h3v-6h-6
l-2 -7l-10 -6h-25l-6 -6l-21 -3v-6h12v-7l4 -3l-7 -14l-4 13l-11 -4l3 -3l-9 -3l-3 6v21h-13l-15 -16l-3 -8l-9 -9v-7l-3 -9v-12l-6 -18v-19l-9 -9v-22l-18 -24l-25 -3l-49 -3l-10 15l4 13v27l6 13l4 4l-5 16l16 74v6l3 6l12 46v34l7 12v18l6 25v12l3 15v10l9 36l2 22l7 30
v12l6 25v15l12 37l7 12h-5l8 18v5l9 32v10l6 8l3 13l9 9l15 -16v-9l10 -18l3 -15l8 -9l4 -16v-15l13 -14l13 13l-11 11v45l-12 37v12l-3 16v42l12 6h6l9 4h71l9 -10l8 -4zM237 297l-6 -6h-7v6h-18l-18 17h-6v-11l9 -9v-7l6 -6l-3 -12l9 -15l12 12h9l-8 12h12l9 6v-3l-6 -6
l3 -3l6 -15h3l6 12v12h9l3 -10l16 5l-5 11h-5l-6 7v14zM231 355l-7 3l-6 -6l6 -6l-3 -4v-6l-4 -9l17 -3l3 -10l6 -2l3 6v9l3 3l-3 11l-9 -5h-6v10l12 6l-3 3h-9zM209 468v-3l6 -6l-3 -3v-7l-3 -3l3 -6l-3 -11v-17l20 -7l5 5l-13 6v21l-3 3v16l10 3l-4 6v3h-15zM224 376l-3 3
v7l-21 -4v-6l-4 -8l4 -4l4 9h14v-15l6 6l7 3l3 6l-3 3v6zM199 359l-6 -13l10 -7v-6l-9 -3v-3l6 -3l12 6v12l-9 7v6zM163 101l-8 -8l-6 6l5 5l3 9l6 -3v-9zM249 284l-3 -3v13l3 3v-13zM240 367v-6h6l-3 9zM211 276l-2 2v6l6 -6zM257 321h4v9zM206 394v-3h6v3h-6zM209 498
l3 -3v9zM240 388l3 -3h3l-3 3h-3zM212 275h-3l2 1z" />
    <glyph glyph-name="B" unicode="B" horiz-adv-x="470" 
d="M421 615l8 -10v-17h6l10 -31v-10l4 -13l-7 -20v-17l12 -8v-11l-12 -7l-6 -40h-7v-12l-3 -4l3 -5l-5 -6h-5l-14 -22h-3l-6 -6l4 -7l-4 -11l-7 -4l4 -8l12 6h13v-6l-4 -9l13 -9l5 -21l19 -10l-3 -6h6v-19l7 -13l8 -3l-7 -7l6 -26l-4 -19l5 -39l-13 -21l7 -5l10 4l-3 -11h-6
l-7 -7v-12l4 -6l6 3l4 -5l-20 -8l-12 -36h-6v-6l-28 -19v-8h-12l-6 -3h-6l-15 -8l-37 -5h-54l-17 13l4 6l-4 11v52l16 16l4 9h8l6 16v11l9 5l4 47l-3 13l-9 8l5 10v6l4 4v9l-14 9l7 14l-9 4v3h-3l-3 6l-11 11l-8 -8l-8 -3l-3 10l3 3l-13 12l-6 3l14 10l-9 9l-13 -4l-8 -13
v-5l-6 -9l-6 -3l5 -5l9 9l8 -7l-22 -22l-6 -4l3 -11l-5 -3v-4l10 5l6 -6l-5 -10l-10 7l-4 -4v-7l3 -3v-9l-7 -6l-14 -4l-6 -11l14 -3l6 5l12 7l4 4l11 -4v-7l-12 -3l3 -2l-6 -6v-6h-12l-3 3l-3 -6l6 -10l15 -3l-6 -3l-4 -10l-11 16l-9 -3l-6 -6l3 -6l15 -3l-3 -4v-9l8 8
l7 -8v-18l-2 -3l-7 3l-3 -3h-12v-12l6 -6v-13l16 -9v-9l-13 -6v-6l10 -3v-22l-7 -6v-2l-9 -10h-9l-13 -6h-11l-4 10l-21 -7h-13l-18 -6l-6 3h-34l-12 13v61l-3 21v34l6 18l-6 3v25l-4 36v19l-2 9l-3 82l-6 74v67l3 7v42l4 4l-5 35l5 15l-4 14v82l15 15h9l19 7h15l16 -4l21 4
h77l20 -22v-27l7 -16l3 7l7 -8l8 8v12l4 7l-5 13l19 19h40l18 -6h9l29 -9l20 -8v-5h3l16 -14l12 -6l13 -13zM218 625v-31l-4 -9h9l-5 -15l13 -4l6 3v-6h24v-6l-11 -24v11l-5 13l-11 -4h-12l-10 10h-6l-4 -4l12 -6l4 -17l10 -10v-6l-3 -3l-12 8l-5 -6l-5 4h-5l-3 -3l5 -6
l-5 -13l5 -9v-11l-5 -7l4 -4l13 8v-13l-20 -21l8 -4l3 6l3 -3v-6l-11 -6l14 -15v-12h9l4 9l3 -3v-9l-3 -7v-9l3 -3l-10 -15l3 -3l4 -9l9 9l4 8l8 -8l3 7l-15 14l3 3v6l19 5v11h-7v9h15l15 10l4 11l5 5l4 29l-3 4v8l7 7l-4 18v12l-12 12l9 13l-12 9l-8 16l-20 12l-20 3l14 18
v12zM223 43l-14 -13l-3 6h-4l4 12h12v4zM237 107l6 -7v-9l-6 -11h-6l-6 5l14 4l-5 5v16l3 3v-6zM218 73l4 -3v-6l-7 -3l-3 6l-6 3l3 13h9v-10zM244 251h-4l-9 6h-16l3 2l22 7zM234 437l-6 -3v6l-3 -3h-3v3l6 6h3l12 7zM182 269v-18h6v8l5 10h-11zM231 416l-14 4l5 9h6z
M204 111l-6 -7h-7v7l9 5zM238 49l-4 -4h-6v7l3 3v3l3 3zM242 271l-10 5l11 5l7 -6zM258 429l-7 7l5 4l7 -8zM236 358l4 -9h3v9h-7zM246 431l-6 -2v8h3zM222 349v-3l6 3v6zM218 484h-3l-3 5h6v-5zM209 505l-3 3l9 3zM179 235l3 -3v7zM173 135v-3l6 3h-6z" />
    <glyph glyph-name="C" unicode="C" horiz-adv-x="474" 
d="M429 675l12 -23v-47l10 -8v-32l5 -29l-6 -29l-12 -12l-36 -9h-28l-12 12v9l-23 55l-8 3l-12 13l-17 3l-5 16h-19l5 9l-13 8l-6 -12h3v-2l-3 -3l6 -7h-18l-8 5l-4 -8l3 -3l-3 -9l-16 -28l-7 -4l-5 10l-9 -9v-6l-6 -6l-3 -9h9l-3 -12l6 -4v-3h-9v-12l7 4l-7 -19v-12h-12
v-22l-3 -3v-33l-3 -10l3 -25v-33l6 -12l-3 -10l9 -3v-17l5 -9l-11 -7l3 -6l-6 -9h-3v-31l9 -3v-6l-12 -3v-9h6v-6l7 -13l-8 -22l5 -14h11v-22l21 -8l4 -13h21l6 -6h-6v-19l3 -8l-3 -9v-22l-3 -13v-17l-9 -17l-31 -5l-30 3l-42 11l-41 19l-40 41l-13 32l-11 37l-6 38v73l6 36
v19l3 17l-3 26v79l3 15v16l2 18v43l4 55l6 6l3 21l12 28l22 27l23 24l26 10l11 7l52 14h41l9 -2h6l8 -9l10 -29v-18l-4 -10l13 -6l-7 -13l7 -8l9 10l-3 9v24l3 6v16l7 6l6 9l18 9l99 -10l15 -14zM462 205l-5 -24v-10l-6 -12v-10l-10 -39l-14 -33v-10l-41 -39l-24 -12
l-28 -10l-33 -6l-25 15l-3 31l-6 9l6 12v16l6 4l-7 20h7l35 26l23 34v23l4 6l3 12l6 15l9 9h61l30 -10zM203 361h-12l12 11v-11zM197 446h-6v3l6 6l3 -3zM188 489l-3 -3h3l3 3h-3zM221 498l-3 -3l-3 6v6h6v-9z" />
    <glyph glyph-name="D" unicode="D" horiz-adv-x="488" 
d="M228 669l6 -9v-49l-6 -11h-3l-10 -7h-15v-21l-9 -19v-49l-6 -6h-3v-3l3 -3l-3 -18h12l-9 -5v-53l-6 -13l8 -52l-5 -6l6 -12v-49l3 -9v-101l4 -8l-7 -14h3v-22l12 -5l12 -18l13 -6l6 -18h-6v-19l4 -4l-4 -18l-9 -26l-9 -9l-19 -4h-52l-9 3h-91l-13 9h-6v34l-3 15v61l3 10
v8l4 15l-5 10l4 9l6 40v40l6 5v13l-3 3v28l5 9l-8 9v12l3 6v28l3 3l-3 12v49l3 20l-3 11v9l-3 9l8 13l-5 5v28l-3 9v141l15 15h12l7 3h52l18 -6l6 3h27l8 4l11 -4l15 -3l8 4l7 -7l13 -6v-13zM426 611l5 -6l13 -27v-6l3 -6v-4l6 -9v-11l3 -10v-28h6l10 -9l-16 -8v-7l7 -3
l-4 -18l3 -10v-45l3 -7v-6h7l-7 -6l4 -18l-4 -6v-31l7 -18v-15l3 -3v-7l-10 -6l8 -8l-4 -4l-4 -10l7 -2l-4 -17l10 -5v-9l-6 -12l-3 6l-7 -9v-31l-3 -6l-3 -22l-6 -27l-6 -12v-16l-18 -17l-4 -15l-15 -10l-6 -13l-12 -6l-7 -6l-14 -2l-23 -14l-60 -8l-6 3h-20l-17 26v32
l-7 4l7 23l6 11l-9 5l9 15h4l14 18l6 3l15 26l5 30l5 12v15l3 16v14l7 13v34l3 21v34l6 14l-4 4l3 28v64l-2 13v30l-6 18l-7 12l-7 22l-27 21l-3 10l-6 5v61l7 21l28 10l5 -6h18l12 -6h10l6 -3h6l24 -13l19 -14l28 -28zM478 449h-6v7h6v-7z" />
    <glyph glyph-name="E" unicode="E" horiz-adv-x="421" 
d="M408 653l-6 -38l-15 -15l-27 -2h-65l-6 -6v-8l-12 4l-3 4h-10l4 -12l-7 -10h-3v15l-8 10h-13v-13l-9 -6v-3l-11 -11l11 -11l6 -11l-3 -4l11 -5l-12 -4l-9 17l-6 -4v-13l3 -3v-6l9 -13l-5 -6l-7 -3l10 -9l-3 -2v-16l-4 -3l-9 -13l-3 -9l3 -3l-3 -9l-7 -7l-6 -18l22 -12v-6
h5l7 13l-9 9l-8 4l8 8h4v-6l6 -3l4 -5l14 5l8 8l4 -5h53l25 -9l8 -19v-9l5 -28l-6 -29l-14 -8h-10l-8 -2h-55l-8 -8l-8 8l-15 4l-3 8h-7l-12 -15l7 -7l-5 -14l13 -7l10 -9v-3h-10l-6 3l-3 -10h-10l4 -14l8 -4l-5 -6h-8v-9l5 -3v-6l-3 -3l-3 -18l3 -25l3 -3v-13l-5 -3v-21
l6 -7l-4 -5v-6h9l9 6h13l9 4l82 -4l10 -3h9l11 -4l26 6l30 -10l10 -28v-68l-6 -12l-8 -12l-11 -4h-71l-14 3l-44 -3l-11 3h-24l-30 23l-11 -10l-18 -7h-74l-30 3h-19l-6 7l-11 3l-10 21v101l6 55v59l3 6v42l2 49l4 8l-4 8l7 49v107l3 6l-3 15v117l3 8v22l14 14l51 6l57 -4
l25 -13l7 -42h8l6 -4l9 7v-7l-9 -9l7 -17l15 5v31l7 28l8 8h24l4 -3l11 4l39 -5l8 4l21 -3l12 -4l4 4h24l6 -6zM261 554l-5 -6h-6v3l11 9v-6zM215 585l-3 -3l3 -6h7l3 3zM198 460v-3h8l-6 6zM198 450v-6h2l3 3zM209 551v-6l6 3zM198 276h2l-2 6v-6z" />
    <glyph glyph-name="F" unicode="F" horiz-adv-x="394" 
d="M395 663v-48l-3 -10v-18l-24 -9l-51 4l-7 -4h-34v-9l-5 -5l-11 11h-27l6 -3l-5 -15h-10l3 3l-4 8l-8 -7l7 -13l-14 -9l3 -3v-9l-3 -4l-3 4l-5 -4l6 -21h-9l-12 4l-6 -12l8 -8l7 -2v-6l-3 -3l-9 8l-10 -21h-6v-6h18v-9l-6 -7v-11l-3 2l-9 -2l-3 -3l6 -6l-6 -7v-21l3 -3
l3 3h6l6 -7h6v7l10 9l5 -3l-2 -3v-3l-13 -13l-6 -11l-9 5h-9l6 -2v-13l9 -9h3v-6l-14 -5l9 -9l-8 -12l13 -7l3 3h3v-10h4l3 4l8 3l-8 5v6l8 9v7l3 6l6 33l10 9l9 4l6 -4l27 -3h68l26 -6l8 -14v-68l-11 -10l-22 -9l-13 4l-12 -7l-19 7h-33l-10 -4l-7 8l-13 -13l-11 22l-16 6
l-16 -8l-5 10h-5v-9l20 -14l-5 -5h-9v-20l-16 -4l4 -21v-13l7 -14l-7 -7v-21l11 -11l-5 -5h-6l-3 -14v-35l10 -10l-10 -11v-40l3 -17l-3 -10v-7l-17 -22l-14 -5h-51l-35 3h-19l-5 9l-12 13v27l6 12v37l3 21v74l3 6l-4 35l11 38v50l5 42l3 55l3 13v75l3 28l-3 40v110l14 14
l76 6l29 -5l16 -6v-22h12l9 5l15 -6l5 15l12 12l90 -4l13 -3l37 5l17 -6zM194 233l-13 3v9l-3 3l3 4h9zM181 403l-3 4v10h6l9 -9zM195 530h5v9zM169 279v-7l6 3zM205 646l3 -6v6h-3z" />
    <glyph glyph-name="G" unicode="G" horiz-adv-x="484" 
d="M244 667v-11l3 -6l-3 -18l6 -14l4 -3l-4 -3h-6v-24l-12 -4v-8l10 -11l-4 -8l-3 -12h-13l4 3h3l3 3l-3 6h-7l-3 -6h-12v-12h3v-10l9 4v-3l-6 -6v-13l9 -3l-9 -9v6h-12l-9 -3l7 -12l8 -9v-9l-3 -3v-6l3 -3l-15 -16l-6 -12l5 -5l-5 -10h-3v-3l3 -3l-3 -13v-18h9l8 4l-5 -11
l-6 -5v-12l-11 -17l8 -8l13 -6v-10h-22v-11l8 -8l4 8h6v-3l-3 -3l-3 -13l-6 -3l-3 -6l4 -8l-4 -11v-11l9 -9l-10 -14l4 -8v-24l3 -16v-19h3l6 -30l6 -6h3l12 -9l6 -13h12l4 -20l-4 -9l7 -23v-15l-3 -9l-4 -33l-18 -7h-33l-26 4l-8 8h-15l-19 10l-12 4l-21 18l-25 16l-20 32
l-16 49v150l3 28v20l3 19l-4 11l4 44v98l3 7l-3 11l7 53l12 37l5 5v9l13 22l33 33l18 13h4l24 12h12l19 6h21l6 -3l16 4l23 -11zM457 282l3 -13l-4 -13l4 -14v-42l6 -7l-3 -18l-6 -6v-6l7 -8l-4 -5v-11l3 -3l-6 -11l7 -13l-4 -8v-12l-3 -8l3 -3l-3 -10v-45l-7 -31l-15 -16
h-27l-26 10l-17 18h-28l-36 -19h-34l-12 13l-6 39l-3 3l9 5v8l6 18v8l9 13l19 16l14 7l10 21l9 30l3 73l-13 14l-25 5l-20 21v55l6 12l17 10l26 -4h37l14 5l4 -5l29 4l41 -4l16 -15v-58zM426 673l3 -9l5 -6l6 -35l8 -19l-7 -13l6 -31v-36l-3 -10v-16l-23 -16l-44 -4l-3 3
l-12 4l-12 29l-5 20l-19 29h-7l-21 22h-19l-6 3l3 3v6l-6 5l-6 -2l-5 4l8 8l8 4l-5 11l3 46l9 19l22 6h46l18 -3l6 3l36 -5zM219 197l-20 3l-9 11h5l6 -6h18v-8zM207 163l-6 -3v6l-8 4l8 8l9 -9zM185 473l4 -4h6v15l-3 3zM262 625h-8l-4 3l4 3h8v-6zM189 460h3v3z" />
    <glyph glyph-name="H" unicode="H" horiz-adv-x="486" 
d="M455 616l4 -9l-3 -7v-45l6 -9l-3 -9v-9l9 4l8 -9l-4 -4h-6v-16l-7 -6v-25l10 -5l6 -9l-3 -4v-15l-3 3l-8 -7l10 -13l-9 -16v-34l-4 -8l12 -11l-8 -11v-22l-3 -14l3 -7v-31l-3 -9l10 -4l-3 -7v-10l-8 -7l5 -10l-5 -10l6 -5l-8 -13v-22l9 -4l-9 -19l3 -10l-3 -19l3 -9v-27
l-3 -12v-25l3 -3l-3 -7l-6 -30l-12 -12h-40l-36 6h-25l-20 7l-7 45v67l-7 55l4 12l-3 13v52l-6 17h-9v6l7 8l-14 14h-3l-15 6v3l-6 9l-11 4l11 11h-6l-3 6h-3l-6 7l3 3h6l9 9l-2 6h-8v-6l-11 -7l9 -18h-6l-6 13h-8v-13l6 -6v-3l7 -6h-13l-11 -10l8 -8v-12h-3l-6 6v6h-15
l-12 -6l-3 -6l-7 -7l4 -12v-18l-7 -12h-6l-3 -6l6 -6v-16l-3 -11v-28l6 -7l-3 -3v-3l10 6l9 -6l-13 -12v-15l-9 -9l-6 -3l-7 -26l4 -32l4 -13l-4 -9v-14l-6 -7l-17 -10l-10 7l-5 -9h-20l-6 3l-7 -3h-48l-13 13l3 9l-2 8v19l-3 9v19l3 3l-5 16l6 12l-4 8l4 8l-4 8v109l3 3
l-3 18v55l-3 37v24l-6 71l6 31l-3 5v15l3 10v45l3 16l3 73l2 3v23l21 14h41l26 4l32 -8l14 -14l4 -56l6 -18l15 -3l-13 -14l15 -15l-4 -8v-6l-6 -8v-10l-5 -12h9l-11 -33h11l6 -12l-12 6l-5 -22l7 -7l9 -4v-8l-3 -3l-3 -8l9 -10v-12h10l9 17l5 -5v-6l6 -3v-9l-5 -5l14 -11
l-3 -3h10l8 -9l-16 -3l4 -9h11l10 10v14l17 19l18 4l13 17v55l7 51l-5 16l4 46v39l3 25v18l7 8l14 4h49l16 4l30 -4l20 -10zM199 244l3 -11l-9 -10l-12 6l9 3l3 6l-8 8l5 5v8h9v-15zM226 262l-9 -5l-8 15l17 -4v-6zM199 271l-6 3v10l6 -3v-10zM217 235l-9 -9v6l6 6h3v-3z
" />
    <glyph glyph-name="I" unicode="I" horiz-adv-x="226" 
d="M180 645l-7 -18l4 -4l7 -17l-5 -14l4 -9v-27l7 -7v-6h-7v-13l17 -6l-7 -23l-7 12h-3v-16l3 -11l-3 -9v-19l8 -14l-5 -5l-3 -14h9l6 -19h-15v-15l-3 -10l13 -9l-15 -6l5 -5h9l-14 -18l14 6l-9 -16l5 -10l-9 -13l5 -19l-4 -23l-3 -6v-29l13 -4v-12h-7v-13l-12 -17h9l3 -4
l-3 -6l10 6h3v-9l-10 -9h-3v3l-6 -6v-30l9 -10v-6l13 -16v-12h-6v6l-4 3v4l-4 4l-11 -31l-5 -6l8 -13v-12l3 -4l-6 -3l-6 -26l-10 -10h-111l-14 33v89l3 21v37l6 24v41l7 23l3 4l-7 13l4 29l-4 89l4 55v36l3 25l-4 17l4 20l4 4l-4 5v64l3 6v7l3 3l-4 12l4 21l12 6h46l22 -3
h24l21 -11v-25zM186 419l-3 -3l-3 -7l10 7z" />
    <glyph glyph-name="J" unicode="J" horiz-adv-x="410" 
d="M400 680l3 -36l4 -7v-39l9 -19l-3 -3h-9l6 -15l-7 -7l4 -11v-13l6 -12v-6h-10v-6l4 -4l-4 -14l4 -6l-10 -5v-5l3 -3l4 -16l-10 -15l-6 -33v-19l5 -11l-10 -4l11 -15v-6h-9v-10l6 -3l-8 -4l8 -8l-6 -6v-9h-3v-12l-4 -18l10 -10v-11l9 -4l-4 -8l-8 10h-6l-4 -5l4 -6l14 -7
l-11 -12l3 -9l-10 -10v-38l13 -4h9v-13l-12 7l-13 -5v-8l7 -5v-6l-6 -5l6 -12l-14 -9l6 -7l-17 -50l-12 -19l-8 -16l-33 -22l-29 -8l-13 -6h-36l-19 6l-15 16v33l7 6v28l4 11l-4 10l3 6l30 7v12l12 12v13l3 8v120l-3 18v89l3 12v40l4 25l-5 19l5 9v66l3 22l3 12l3 49v33
l5 25l10 4l6 6h12l19 3l33 -5l19 6l32 -8zM113 191v-52l6 -13l9 -9l3 -6h6l12 -13l3 -9l11 -17l-10 -28l9 -17l-7 -8l-6 -23l-21 -9l-20 10l-22 4l-13 9l-9 3l-3 3l-13 6l-28 29l-11 33l-7 11v10l-3 6v9l-3 6l-8 46l5 43l16 15h70l27 -9z" />
    <glyph glyph-name="K" unicode="K" horiz-adv-x="517" 
d="M175 673v-18l3 -25v-18l3 -11l-3 -7l3 -25l12 -6l-14 -20l14 -4h9v-12l4 -5l-5 -6l5 -10l-4 -4v-6l6 -7v-3l6 6v13h6l27 -13l7 -11l9 -9v-13l22 -22v-6l-6 -4l25 -47l11 -5v-10l8 -4l4 -24l3 -6v-7l10 -9l28 -49h11v-3l-3 -3v-8l14 -22l14 -4v-21l9 -11l13 -4v-6l3 -6v-9
l9 -5l8 -25l13 -10v-9l6 -6l6 -13l13 -17v-6l20 -32l14 -33l-9 -18h-44l-6 -4h-16l-11 4l-28 -4l-29 4l-28 29l-4 13l-10 13l-15 28l-18 26l-3 10l-9 15l-3 10l-10 4v20l-9 9l-9 19l-12 11v22l-10 10l-12 -7l-5 -20l-5 6l-14 -11l-12 -5l-3 -10l6 -3l9 7v9l18 -4v-5l-7 -8
l4 -8v-9h-3l-3 6l-15 3l-6 -6v-19l4 -7l-4 -5l3 -24l6 -13v-23l-3 -7v-21l-3 -13v-36l-6 -13l-13 -6h-18l-12 -3l-12 3h-58l-9 6h-5l-8 16v12l-3 13v42l-3 26l3 14l-3 28v69l-9 135l-4 12v40l-2 22v20l-3 25v19l-3 27v55l-3 12l4 15l-4 10v46l3 3l-5 9l5 21l15 16l105 4
l22 -6zM463 683l-17 -31l-9 -12l-6 -13l-19 -23l-11 -22l-7 -7l-18 -33l-8 -9v-6l-19 -22l-9 -4l-7 -22l-26 -11l-29 28l-21 34l-7 21l7 18l15 22l13 11l9 19l12 16l18 30l25 25l12 6l24 3l31 -3l11 5l31 -6zM196 469l-10 -21l10 -11v-6l-9 -8l3 -3v-6h15l3 -7l-10 -7l7 -8
h6v25l-9 9v10l11 6l-13 13l9 9l-4 5h-9zM204 246l-10 11l-9 -23l10 10l7 -8l-3 -6h-12v-13l15 10h9l12 8v7l3 7v5zM220 139h-3v3h-6l-3 -3l-9 -3l-4 4l4 7l6 -3l11 4l7 -6zM233 123l-10 -9l-9 -3l-6 3l15 12h10v-3zM200 358l5 -9h14l-8 13zM196 297h-9v-9h13l2 13zM187 530
l-5 -9l14 -5v11zM251 150v6h6l6 -6h-12zM196 266v-6l12 13zM202 285v-6h6v6h-6zM187 355l6 -6l3 3l-3 3h-6zM193 478v-3l3 3v6zM187 382v-6l3 3v3h-3zM187 407v-3h3v3h-3zM196 379l3 -3v3h-3z" />
    <glyph glyph-name="L" unicode="L" horiz-adv-x="388" 
d="M182 672v-12l3 -12v-18l10 -6l5 -11l-11 -6l8 -20l9 -9v-10h-6l-11 4l-4 -4v-15h6l3 -6l10 -5l-11 -6l5 -16l-4 -4h-3v-15l-6 -6v-12l-3 -6l6 -6v-13l4 -12h-9l-5 -11l4 -5v-8h-6v-6l6 -3l3 -6l-6 -13v-6l-3 -3v-13l-4 -11v-9l-3 -7l10 -9v-3l3 -3l-6 -13v-58l-7 -5l3 -3
v-31l10 -9l9 -5v-7h-15l-4 -15l4 -19l3 -6l-7 -10l4 -20l-5 -10l5 -11l6 11l6 -3v-12h-16v-13l7 -8v-6h6l6 -6l-11 -11l6 -6l-14 -18l-6 -30l-30 -6h-86l-15 6l-15 16v30l3 22v33l3 9l-3 21l3 9l6 69l6 33l-5 5l5 19v40l3 36v52l3 30l-6 76l7 12l-4 8v64l9 85l10 11l21 5h73
l22 -8zM380 25l-8 -16h-19l-8 -8l-69 5l-3 -6h-53l-11 19v28l-9 5h-6l12 12v19l15 14l19 8l30 -4h64l16 -4h21l9 -9v-63zM207 136l-7 -7l-4 12h7zM176 461v-3h6v3h-6zM185 523v-3l3 3h-3z" />
    <glyph glyph-name="M" unicode="M" horiz-adv-x="662" 
d="M635 664l3 -6v-40l3 -6v-15l6 -6l-7 -8l10 -7l-6 -7v-6l13 -8v-4h-3l-7 -12l11 -4l-8 -8v-6l4 -10l-4 -3l5 -5l4 5h3v-9l-12 -3l-6 -13l5 -16l-5 -14v-33l10 -20l-10 -5v-19l-3 -8v-22h6l9 4l5 -12l-17 -9v-14l3 -5v-25l10 -10l-7 -3v-17l4 -10l-4 -3l-4 -12l4 -13l-4 -8
l4 -16l7 -3v-3h-7v-22l4 -17l-4 -16l10 -11l-10 -11v-15l5 -12l-5 -21l4 -25l-7 -7l5 -3l-11 -17l-22 -7h-39l-19 -3h-39l-19 14l-8 23l5 104v70l7 29l-4 12l5 36h-5l-3 9l-6 6l6 10v21h-9l-4 25h7v12l-7 5l-5 13l-9 9h-8l-5 -12l-6 -7v-11h19v-6h-22l-10 -10l5 -15h-7
l-7 -13l-5 -14v-7h-6l-4 8l-18 4v19l-19 18h-4l5 11l-7 13v13l-7 8l-4 -11l3 -7v-6l5 -10l-10 -16l5 -4l6 4l5 -20l3 -3l-3 -16l10 5v-6l-3 -4v-9h3l4 8l5 -5l-6 -12v-10l12 -4v-5l-3 -6l3 -3h5l-5 -15l-3 -3l6 -3l3 -6l-9 -5v-17l-9 -12l-5 -22l-15 -28l-21 -13l-6 6l-8 -4
h-30l-18 17l-10 35l-40 79l-6 16v6l-16 25l-4 15l-11 12l-9 3v12l3 4l-3 3h-3v6l3 3l-6 5v3l-6 -6h-13l-12 -5v-9h-11l-6 10l-5 -5l6 -13l-5 -5h-4l4 -25l3 -6l-6 -5v-10h9l-6 -9v-25l5 5l5 -11h8v-3l-15 -3v-34l-6 -6l6 -36l3 -6v-31l-3 -11l5 -27l-5 -18l7 -55l-4 -8v-9
l-13 -19h-57l-35 7l-15 24l4 12v37l-3 6v55l3 9v119l-3 61l3 10v39l3 10l-3 43v55l-4 7l5 9l-4 11l3 68l6 24l6 6l-4 3l4 3h6l3 -9l9 -12l3 -12l10 -10v-6l3 -3v-12l6 -4l3 -5h16l11 15v9l-12 -8l-9 14l6 3h6l6 7v6h-3l-9 9l6 6v12l-6 6v31l-12 12v22l11 11l10 -5l12 3h19
l8 -4l15 6l12 -6l5 4h12l12 -8l43 -66h13v-15h8v-6l-2 -3l2 -3v-9l-3 -5l6 -11l8 4l6 -5l-5 -16l13 -22l9 -5v-14h12l4 -15v-7l11 -7v-7l-5 -6l2 -7v-12h6l6 6h10v-6l-8 -4l-5 -9l10 -13v-17h12l8 8l5 -5l7 4l10 26l4 21l12 23v8l9 19l6 19l4 6l6 24l9 19l7 29l11 16l8 24
l6 6l4 16l4 6l4 14l11 11l12 3l9 10l74 3l30 -3l3 -3h12l13 -13v-31zM179 294h-6v-12h-12l-4 12l-3 3v10h3l6 -7l16 -3v-3zM485 300l-7 -6l-17 16h-13l-6 5l8 4l17 -9l10 -16l8 9v-3zM139 398l-11 -6l5 -10h6l7 16h-7zM154 386l-10 -6l9 -9l9 15h-8zM350 425l-12 4v5h12v-9z
M170 349l-7 -3l-6 6v3h13v-6zM87 533l-4 -8l6 -7l4 12zM189 318h-7l-4 9l7 4zM344 392v-6h6v6h-6zM139 441v-4h6l3 4h-9zM146 417h5v9zM366 404l3 -3l2 3l-2 3zM93 508h3v3l-3 3v-6z" />
    <glyph glyph-name="N" unicode="N" horiz-adv-x="521" 
d="M493 673v-62l6 -6l-3 -5l4 -13h-7v-3l4 -4l-8 -24l5 -30l-4 -12l6 -7v-12l-6 -6v-15l4 -17l-5 -9l5 -22l-4 -26l-4 -6l7 -6l-7 -6v-18l4 -6v-22l-9 -9v-7l6 -6l-6 -14v-32l5 -6v-8l4 -6l-6 -4l-3 7l-4 -13l-8 -12l-3 9h-7l-6 3h-7l4 16l3 3l-3 2h-9l-8 24l-7 4l-6 13h-6
v-14l-16 -5l3 -13l6 -9l-3 -2v-9h13l6 3v-16l-5 5l-7 -8l10 -5l5 5l5 12l3 -3l10 -4v-17l3 -16h-3l-6 6v3l-7 10l-2 -10l-9 3l-3 -9l-5 -5l5 -3h9l3 -3h5v-21l10 -4l-3 -10h-7v10h-5l-3 -4l15 -24l9 -2l8 2l10 -3l-5 -6h-4v-3l7 -6l-3 -6v-19l6 3l3 -3v-24l6 -12v-19l-6 -6
h-6l-5 -10h-68l-21 14l-7 18l-13 18l-3 15l-18 19l-49 86v11h-5l-11 16l-9 9l-12 16v14l-6 3l-14 19h-8v16h-6l-9 -3l-5 9l9 10l-16 17v3h-6l3 6l-4 4l4 9l-9 9h-9v12l-7 9h-9v-13l6 7v-10l-3 -5v-6h3l3 -3l-9 -7h-4l4 -12h-15v-16l15 -14v-3l-14 7l-6 -6l5 -11v-9l6 -3
l15 4v-7l-18 -7l3 -12l-9 -4v-17l-3 -12l4 -21l-4 -9l-6 -3l5 -6l4 -16l6 -6v-3l3 -4l-6 -3v-24l3 -12l-4 -14l5 -25l-4 -22v-19l-12 -24h-89l-8 4l-9 18l6 13l-4 11l4 7l-4 15l3 97l3 24l-3 10l3 70l-3 6v82l-4 13l4 22v111l8 5h10l6 -9v-7l16 -5l9 -22l8 -7l4 -14h6l9 -3
l-4 -8l17 -25l20 9l-14 14v16l-7 6l-3 9l-10 10l5 10l-19 38l-6 18l-19 31v18h-6l-6 25l-6 6l-6 30l-4 11l20 12l11 -5l7 7h27l9 -3h19l17 -7l4 -8l22 -21l17 -36l22 -11v-15l6 -6l6 -18l19 -24l13 -13v-9l11 -22l9 -12l10 -3l3 -6l-5 -9l20 -9l-9 -10v-6l9 -14l15 6v-5
l-6 -2l4 -9l2 3h3l-5 -12v-10l18 -25l9 -5h6v9l-9 3v6l9 3l6 6h10l6 3h5l-2 49l-6 6l6 4v141l4 13l-4 14l2 25v35l22 17h12l10 3h58l14 -15zM355 385l-3 -14l5 -5l-8 -8v-10l3 -6l-6 -3l3 -3h6l-3 -3l11 -11l13 14v6l-5 3l-4 20l14 8l-6 12h-20zM389 330v-13l3 -3v-5l5 -9
h-11l-14 14l-4 -5l12 -14l-4 -8l-5 -3l2 -3h6l13 -8v11l15 30l-9 16h-9zM138 413v-10l-3 -6v-9l9 -9l6 9v25h-12zM189 288l-5 5v3h-6v-6l-3 -3l-6 3v13h12l12 -7zM176 327l-11 -5v17h4zM175 259h-3v6l7 15l5 -5zM431 257h-8l-3 2l3 6h8v-8zM420 268h-9l-4 7h16zM473 201h-9
l5 15zM135 375l3 -5h3v5h-6zM123 413l-3 -3h6v3h-3z" />
    <glyph glyph-name="O" unicode="O" horiz-adv-x="509" 
d="M463 630l3 -10l13 -20v-10l6 -25v-18l8 -6l-6 -11l6 -29l3 -6v-12l3 -3v-15l-3 -10v-12l7 -6l-11 -14l7 -7v-3l4 -6l-8 -12l5 -30l9 -4l-3 -6l6 3v-4l-16 -11v-26l3 -11l-6 -13v-39l3 -3l-3 -3v-7l-3 -3v-12h13v-6l-10 -7l-6 -12v-11l3 -7l-4 -8l6 -6l-10 -11h14l-11 -6
l-9 -9l3 -2h6v-3l-9 -5l-10 -39l-6 -6v-12l-33 -34l-3 -6h-7l-51 -21h-25l-19 -6h-21l-15 16l-10 17v28l3 3v20l10 14l27 11l22 34l6 55v13l5 30l-5 9v38l3 3l-3 9v24l-3 15v126l-4 47l4 8l-9 4l-4 26l-6 9l-4 12l-20 10l-6 6l-13 6l-6 6l-15 3l-8 4l-7 -7l15 -8v-6l-12 -4
l-3 3h-9l-3 -9l9 -6l-6 -10l-7 4v6h-9v-8l9 -5l4 -6l-16 -3l-8 4l-4 -4l6 -3l3 -12l-9 -9v-6l-12 -6v-10l-3 -3v-12l3 -6h-9l-3 -12l-10 -20l3 -14v-17l16 -4v-6h-6l-18 -11l7 -15l-5 -5v-15l-3 -6v-50l3 -5v-6l8 -16h-14v-36h12v-13l-3 -6v-19l-6 -6l9 -8l-7 -15l4 -13
l6 -5l4 -20l9 -23l15 -10h12l6 -6l10 -5v-14l9 -8h3v-7l-6 -6l-3 3l-3 -15v-22l-11 -19l-23 4h-28l-32 11l-4 7h-12l-7 3l3 3v3h-12l-3 3l-14 5l-8 9l-14 24l-4 14l-6 3l-12 33v19l-10 28v24l-3 22l-2 55l-3 19v159l-3 18l4 10l-4 17l3 58l5 10v27l15 36l29 28l9 6l12 13h9
l6 5l45 17l63 8l17 -10l13 -27l-4 -16l7 -14v-6l14 -15l-6 29l4 29l9 18l22 12h21l18 -2l40 -9l47 -26l30 -30zM191 174v-12h-3v6l-9 3l5 14z" />
    <glyph glyph-name="P" unicode="P" horiz-adv-x="460" 
d="M434 609l9 -9l9 -3l-3 -3v-9l-6 -3l3 -13h6v-6h3v-12h10l6 -7v-8h-19v-9l5 -10l-9 -18l4 -10v-14l6 -13v-12l4 -3v-3h-10v-8l11 -16l-17 -4v-9l-7 -13l5 -23l-4 -3v-16l-11 -14l-6 -34l-20 -10h-3l-25 -25h-5l-8 -8l-23 -6h-25l-15 -4h-31l-9 4h-10l-5 8l-9 9l5 11l-6 6
l-8 -7l-3 -13h-3v9h-4l-8 5l-4 -8l3 -12l-3 -3l6 -9v-9h-11v9l-3 4v8l-10 -8v-7l3 -3v-8l-18 -9l15 -10v-4l-6 -6l-11 11l-5 -5l7 -6v-3h3l9 -5v-4l3 -3l7 3l3 -9l-3 -6l3 -3h-7l-9 9l-19 -15v-29l-3 -2l3 -3l3 -9l11 -5l-4 -14l-7 -9l9 -4l-9 -9l7 -5l-3 -3h-6l-4 -19v-18
l-6 -15v-15l-11 -13h-87l-4 -4l-28 10l-4 22v49l7 7l-4 17v104l-3 28l3 6v79l3 9l-4 23l8 16l-4 7l3 25v39l5 94l-5 29v40l-3 30l3 10v39l6 13l16 12h15l12 -3l15 4l25 -4h30l9 -3l14 5l32 -7l12 -20l-3 -3l-3 -9l3 -6v-6l3 -6l10 10h6v-19l22 19v30l14 15h28l19 -6l2 -3
l11 5l30 -11l23 -10l25 -18l22 -21zM290 572l-4 -17l-5 5l-10 -9l-3 18h10v7l3 3l-3 3l-16 4v-12l-14 -8l-10 -9v-15h-3l-3 6h-6l-4 -7l-10 4l-16 -5v-4h8l3 3l3 -6h6l4 3l6 -3v-6l-10 -3h-12l-5 -7l-13 -3l3 -3v-6h4v-3h8l3 -3h6l-3 -13l-8 -8v6h-3l-3 -3l7 -8l-7 -4l-4 -7
h-9l-3 3v-12l3 -3v-6l-16 -4v-6h4l3 -5l16 -4l-4 -15l3 -3l-9 -4v-5h14l5 11l12 -9l8 4v-19l4 -9l12 19v9l-6 6h-10l-3 -3h-3v3l6 7l4 9h9l6 -12h9l7 6h8v-3l-8 -5l-3 -20l-23 -11l4 -8h15l7 3l6 -5l2 5h3v-8l13 -6l3 3v3h-5l14 8l4 8l15 8l3 15l-3 3v21l3 -2h8v10l-8 5
l-5 9l10 3l4 11l-4 8v9h-8l11 12v21l-5 13v12h-19l6 6l7 3l-7 6l5 4l-6 11h-8zM201 362v11l-12 12l-3 7l-3 -3l3 -13v-8h10l3 -10l-3 -3v-4l8 -5l21 10l-5 6h-19zM244 340l-6 -3l5 -5l-11 -11v-8l-4 -4l4 -9h7l9 24v13zM216 429h-12l-13 -5l-5 13l3 7l7 -7h20v-8zM241 365
l-5 -11l12 -8h5l5 19h-17zM244 637l-15 -6l10 -6l7 -13h5v19zM290 389h-6l-16 15l-11 6h18l15 -15v-6zM210 340v-16l-3 -3h3l10 6v13h-10zM231 249l-7 -13h-8l4 9v3l6 7zM210 298v-4l6 -6h10l6 6zM216 200h-6l-4 3l10 11v-14zM174 486v-2h6l6 5l-4 5zM163 473l5 -4h6v3l-6 6
zM241 437l-3 -3l-3 7l3 3h3v-7zM251 594v-6h6v6h-6zM306 475h-7l4 3h6zM223 585l3 -3l3 3l-3 3zM226 609v-3h6l-3 3h-3zM164 450h7l-3 3zM168 395v-3h3v3h-3zM204 560v-3h3v3h-3zM226 563l3 -3v3l-3 3v-3zM193 496v-4l3 4h-3zM216 563h4v3zM235 514v3h3zM241 401l3 -3v3h-3z
" />
    <glyph glyph-name="Q" unicode="Q" horiz-adv-x="501" 
d="M440 615l15 -36h7l6 -7l-7 -7l7 -18v-20l3 -7v-12l5 -5l-11 -6v-8l3 -3v-33h16v-3h-8l-5 -19l6 -5l-3 -3h-3v-13l6 -6l-3 -9l-3 -3l5 -10l-5 -14v-13l-6 -12l6 -6l3 -7l10 -5l-13 -21v-13l3 -6v-10l10 -18l-7 -2h-6l-6 -16l3 -3v-6l9 -7h9l3 3h3v-7l-18 -14v-21l3 -9
l-3 -4l-3 -12l3 -3v-9l-6 -6l4 -16l-18 -27l5 -24h-4l-3 3h-6l-3 3l-3 -3v-9l3 -7l8 8l8 -8v-9l-10 -6l-6 -6h-9v-10h18l9 -7l22 10l21 -14l3 -10l6 -10l4 -32l5 -16l-5 -15l-6 -3v-5l-10 -5l-17 -3l-16 -5l-73 6l-16 8l-7 7l-11 3l-34 18l-18 18l-3 10l-10 3l-12 15v6
l-9 10v9l-7 16l7 33v24l15 15l19 7l18 18l9 24v19l6 6v140l6 55l-6 22v22l-6 57l-7 33l-5 11v17l-7 13l-5 3v9l-6 -6l-6 19l-7 9h-6v-9h-6v17h-16l-6 13l-11 16v6l7 3l-4 33l6 6v10l5 6l3 6h38l24 -6h9l34 -13l15 -9l6 -6l19 -12l25 -26zM210 664l13 -12l3 -6h9l3 -19h-7
l-5 10h-9v-14l12 -8l16 -6l3 3h9v-10h-3l-3 4l-3 -9h-19l-12 -12v-10h-7l-14 -9v-6l5 -6l-8 -10l3 -5l-6 -9l-10 -10h-12l-6 -12l-7 -6l10 -10l-3 -6v-5l-4 -3v-6h-9l-3 -7h12l4 -6l-4 -3h-4l-5 -9l-6 -7l3 -14v-22h6v-3l-3 -3v-27h13l6 -6v-10l9 -3l-3 -9h-16v-13l7 -3v-12
l-7 -9l-9 5v-5l9 -12v-25l-3 -3v-6l10 -9l-3 -6v-25l8 -8l-5 -16v-25l9 -18l16 -16l-4 -11l15 -6l3 3h6l-4 -13l17 -6h6v-6l3 -12h3l3 -6l-3 -6v-16l-3 -12v-21l-12 -12h-27l-22 3h-22l-49 17l-6 7l-21 9l-29 29l-11 26l-9 37l-4 25l-5 57v19l-3 9v37l5 16l-6 7l8 30l-7 14
l6 62v94l6 13v20l25 77l9 13l6 3l4 11l26 22l13 6l20 14l19 5l16 6h34l14 -15v-22zM171 420l-6 -3l-3 9l-5 7l6 6l8 -8v-11zM162 542l7 -3l5 3l-3 2v3zM462 202v-3l9 3l3 6zM214 602l-4 -2h-3v-3h3l7 5h-3zM196 585v-6l5 6h-5zM152 517v-3h3v6zM425 52v-3l3 -3v6h-3z
M155 489l-3 -3h3l3 3h-3zM152 349h3v6z" />
    <glyph glyph-name="R" unicode="R" horiz-adv-x="482" 
d="M430 645l6 -18l8 -8l6 -19v-15l4 -6v-23l10 -5l-4 -21l-3 -6l-3 -37l-7 -12v-15l4 -9l-13 -13v-18l3 -3l-24 -25v-12h-11l-14 -9v-15l-18 -9l10 -11l-7 -17l-6 -6v-3h9l3 -3l-3 -6v-13h9l6 -6l3 6l7 4l-3 3h6l6 -10l5 -4l-5 -5h-12v-19l9 -21l3 -3l14 -43l4 -5v-9l12 -29
l8 -7l-8 -7v-16h10l3 -3l-10 -3v-6h7v-27l9 -17l-4 -21l4 -18l-4 -23l-27 -11h-37l-6 3l-3 -3h-64l-21 22v12l-3 28l-3 9l-7 52v15l-3 13v11l-6 25l-6 37l-6 12l-4 16l-8 4v23h-6v10l-26 -7l-5 6v9l9 5v11l-3 6l6 6h10l6 -6l6 6v9l-8 7l5 5v3h-3l-3 -3l-20 -8l-11 -22
l-10 -9v-7h-5l-14 14l-8 -7l3 -3l-5 -22h5l13 8l6 -5l-6 -13l-14 -12l14 -7v-6l-13 -8v-9l-8 -16l5 -14l5 -5l-6 -31l7 -19l7 -4l-7 -3v-9l4 -3v-16l3 -9l-10 -8v-10l8 -7l-11 -11v-37l-6 -9v-3l-13 -16h-9l-5 -3l-59 -5l-21 5h-27l-13 9l-3 7l-6 6v33l-3 10l3 24v31l3 21
v49l3 13v61l3 39l7 25v73l10 70l-6 47l4 37l3 8v9l3 4h-9v24l-3 21v22l-6 61l6 13l12 6h19l6 3h115l27 -11l8 -20v-22h9l4 9l9 4l6 -3l6 6l4 22l17 9h52l49 -14l31 -16zM298 548h-10l-6 13h-12l-7 3l4 15l-5 10h-5l-2 3h-6l-6 6l-5 -5l14 -14l3 -6h8l-12 -13l-10 5l-6 11h-6
l4 -12v-16l-6 -5l-4 -13h-5l3 4v11l-3 3v-11h-6v3l-4 3v-16l4 -3l3 -9l-7 -6l4 -3h6v-4l-13 -4l-6 -13h-11v-7l9 -3l5 -6h10l-4 -12l-16 -11l5 -5l3 -9l8 -9v-6l-8 -9v-8l15 -11l-10 -3v-15h10l9 -15l-6 -3l-5 -11l6 -6l17 4h12l4 13l3 3v27l-5 11l6 13l10 5l-6 5v6h13l9 5
l5 16h11v13l6 18l-3 3l6 7v14l-6 13l9 6v12l-6 13l3 5l-3 3zM247 373l-4 -8l-7 -6v6l-3 3l-3 21l3 6h7zM230 429l-3 -2v-10l-6 -6l-8 4l5 20h12v-6zM240 619l6 -13l6 3v-6h5l5 5l-10 11h-12zM218 229l-18 5v9h8l7 -7h3v-7zM243 661l-3 -5l-10 -3v-9h3l10 9l6 3v5h-6z
M197 160l-6 -10l-4 4l4 15h6v-9zM233 463l-9 -3l-8 8l5 4h6zM230 236v13h3l10 -6zM362 343l-6 -6v-12l9 9v3h-3l3 6h-3zM172 475v-9l9 3v6l-3 3zM194 319l-3 -6l3 -6l6 6v6h-6zM270 543l-10 8h10v-3l6 -3zM182 519l-4 -4l10 -3v-3l5 5zM235 300l5 -8l6 -4v7zM205 554l3 -6h5
l-5 9zM240 402l-4 3v6h4v-9zM205 441h-4l4 9v-9zM371 334v-3h3l3 3h-6zM178 420v-3h10zM221 606h3v7zM221 402l-6 3h6v-3zM194 524l3 -3v6z" />
    <glyph glyph-name="S" unicode="S" 
d="M232 663l6 -10l-7 -19l3 -19l-14 -7l8 -8h-12l-10 -13v-11l5 -5l-5 -5l-6 -12l-2 12l2 7l-5 -7v-21l3 -6v-9h-3l-3 6h-9v-6l6 -9v-17l14 -23l23 -11l5 -11l21 -8l6 -7h4l9 -6l15 -5l4 -10h12l6 -6l9 -6l3 -7h14l38 -22l15 -14l15 -7l7 -15l9 -4l15 -21l9 -33l10 -19v-24
l8 -16l-5 -15v-33l-3 -6v-25l-4 -10l4 -8v-12l-3 -4l-15 -38l-6 -4l-6 -13l-10 -9l-3 -6l-9 -10l-3 -6h-12l-15 -11h-7l-9 -10h-9l-28 -6l-12 -6h-52l-14 5l-14 14l-3 12h-8l5 15l11 3l-5 9v31l11 21l22 9l19 10h13v18l11 5l10 35l-3 15l3 3v18l-12 7v6l-6 15l-37 37l-11 4
l-20 11l-10 11l-45 26l-34 14l-21 14l-25 11l-11 13v6l-12 4l-4 8l-17 18l-14 34v13l-3 9l-2 15v55l5 43l8 24l7 16l7 6l25 30l17 13l10 3l9 6h12l16 8l27 5l3 -4l6 7h19l7 -4l8 4v-3l15 -4zM102 193l15 -10l-5 -5v-10l6 -6l3 -15l13 -6h3l4 -15l17 -6h9l12 -13l7 -26
l-6 -12l7 -35l-8 -28h-34l-5 -3l-13 3h-12l-22 7l-49 10l-12 23v12l-8 17l-10 60l-6 24v25l10 23l39 13h19l14 -9zM409 689l9 -19l10 -27v-9l5 -36v-16l3 -16v-44l-24 -14h-22l-17 -9l-16 6l-12 25l-13 36l-32 33l-19 6l-10 20l-16 16l10 5l6 15l4 38l10 10l5 -4l17 8
l93 -12l9 -9v-3zM145 150v-3h-5v9z" />
    <glyph glyph-name="T" unicode="T" horiz-adv-x="470" 
d="M469 657v-12l4 -32l-9 -17l-11 -6l-9 -3h-18l-31 -6h-19l-20 -3l-10 6l-3 -3l-15 -6l-6 5l-21 -5l-3 -6l6 -7l3 -9l11 -11l3 -22l-7 -22l4 -21l-3 -6v-19l3 -12v-52l4 -26l-4 -7v-19l-3 -6l6 -9v-55l4 -7l-4 -2v-22h7v-9l3 -6l-9 -5l6 -11l3 3h3v-11l-13 -13l4 -24l9 -21
l-3 -13l-6 -9l3 -12l3 -4l-6 -12v-58l-10 -18l-11 -6h-113l-11 11l-5 28v77l3 10l-3 3v6l-3 8l4 11l-4 11v168l-3 25v33l-6 16l3 6l-3 6l3 12l-10 28v27l-3 6v31l6 24v6l4 6l-6 6l-4 -9l-6 7h-11l-10 -4l-9 4h-16l-12 6h-36l-24 6l-19 19v66l7 15l20 10h83l77 3l21 -3h80
l31 5l25 -9l76 6l24 -6l10 -9zM211 565l3 -3h7v3h-10z" />
    <glyph glyph-name="U" unicode="U" horiz-adv-x="494" 
d="M474 633v-36l3 -6v-19l-4 -7l5 -19l-4 -7l3 -6v-19l4 -8l-4 -7v-15l-3 -12v-49l-7 -14l4 -38v-58l7 -11l-11 -5v-18l4 -16l-4 -8v-44l-13 -84l-5 -16l-7 -34l-6 -6l-5 -15l-10 -18l-12 -7l-15 -15l-24 -12l-37 -7l-19 -6h-24l-19 8l-6 11l-6 6v58l3 3l-4 4l-7 -16l-7 -6
v-13l8 -11l-14 -13l-3 -22l-20 -15h-50l-27 9l-34 9l-7 7l-18 7l-24 19l-18 26l-13 27l-6 25l-3 6l-5 74l5 66l3 15v52l10 55l-6 47l6 46v33l8 83v64l7 14l36 7h67l19 -19l6 -24l6 -9v-9l-6 -3v-7l22 -5l-4 -40l-6 -3v-3h10v-7l-10 -17v-13l10 -9h6v-15l-13 -4v-14l-3 -7
v-45l-8 -16h8v-34l-6 -2l4 -4l-4 -9l-8 -8l13 -26h-11v-36l3 -19l-4 -13l7 -11l9 -3v-3l-12 -4v-24l4 -7l-4 -10l6 -7v-6l-8 -4l5 -5v-10l9 -9v-14l11 -16l10 -3l27 -17l7 -17v-7l13 5l17 17l13 6l9 7l21 7l20 25l5 23l3 6v61l-4 23l4 75l3 15v22l7 13l-6 12l5 69v46l6 86
v43l7 12v5l11 13h16l9 3h55l14 -10zM175 572h11v3l-6 7z" />
    <glyph glyph-name="V" unicode="V" horiz-adv-x="507" 
d="M483 678v-32l-10 -23v-35l15 5l4 -13h-4l-5 7l-7 -7l-3 -15l9 -4l6 -12v-3h-5l-10 5v-10l-3 -6l-9 3l-9 -8l15 -8l9 -9l-9 -5v-11l3 -3v-3h-18l-4 -14l7 -7l6 7l3 -3l-3 -7v-6l-12 -4l-4 -18l-6 -9l-6 -5v-10l10 -5l-7 -7l-6 -19l-2 -3v-9h-10v-11l-9 -14v-14l-3 -7v-6
l-6 -6v-27l-4 -3l5 -19h-8l-11 -18l6 -7l-5 -35l-5 -9v-10l6 -3v-6h-9v-13l-3 -3l-4 -33l-13 -22l-17 8v14l-7 15l-10 -11l10 -5l-5 -5l-21 9l-4 -12l7 -28l5 -5l-10 -5l8 -17v-40l-9 -9h-12l-7 -3h-67l-22 17l-11 41l-11 55l-17 39l-30 110l-7 7v18l-12 37l-3 28l-21 56v5
l-6 5l-5 19l-23 70l-17 33l-4 19l-3 3l-15 40l-16 48v22l12 13h27l48 4l69 -5l12 -12l12 -19v-11l13 -12h6v-16l-9 -6l12 -6l3 3h9v-24l15 4l3 -4l-3 -15l10 -15l6 -28l3 -6v-16l15 -16v-27l6 -6v-9l7 -11l5 5v12l6 6h7v-34l6 -3l9 9h3v-6h6l3 -6l12 5v7l-28 10l5 13l11 8
l6 -3l3 -6l6 6l6 3v8l-9 5l16 11v16l8 8l4 17l3 6v5l6 13l3 12l6 6v27l9 19v28l13 26l18 9l36 4h30zM296 197v-5l9 -9h-12v-15h-10v-4l7 -3v-6l3 -6l-3 -3v-4l9 4v6l6 3v-12h9l6 6l-6 12h-9l3 7h3v21zM296 226l-3 3h-6l-7 -6v-4h10l3 -6l6 -6l3 12l3 4l-3 3v6zM265 415h-12
l18 -18l3 9l3 3zM277 387l-9 -15h6l11 11l-5 11zM304 414l4 -8l7 4l-4 15zM280 241l3 -3h7l3 6l-6 7zM287 425v-10h6v10h-6zM317 375h9l-9 9v-9zM308 244l-9 -9l12 6v3h-3zM293 309l-6 -7h3l6 7h-3zM308 381v-6h3v6h-3zM314 333l3 -4v10zM280 455l3 -6v6l-3 3v-3zM232 458
v-3h9zM308 219v-3h6zM317 204l3 -3v6zM293 278l3 3l-3 3v-6zM271 219l3 -3v3h-3zM323 158l3 -3v3h-3z" />
    <glyph glyph-name="W" unicode="W" horiz-adv-x="775" 
d="M767 676l-6 -36v-46l3 -3l-5 -5l-5 -19l4 -10l-10 -23v-32l6 -7l-15 -14v-16l3 -6l-6 -12l-3 -18l3 -6h9l-12 -7l-7 -15l4 -15l-4 -4l-6 -24v-9l-8 -28v-21l-5 -21l7 -14l-8 -8v-12l3 -6v-9l-6 -7v-18l-4 -18v-31l-9 -43l-3 -25l-6 -11v-9l-6 -7v-12h-13l-5 -5l-6 14h-7
v-9l-6 -6v-24l-20 -20l-14 -5h-52l-41 5l-23 23v8l-21 68l-6 31l-10 27v19h-5l-10 39l-12 25v6l5 9l-8 18v16l-6 12v13l-12 11l-4 25l-6 12v12l-12 19l3 3v6l-13 6h-5v-9l9 -13v-33l3 -3l9 5v-14l-3 -3l12 -13v-9h7v-7l-10 5l-3 8l-15 -4v-11l7 -7l-4 -5v-16l6 -6h15v-9h-6
l-4 5l-8 -23h-12l-6 -12l-3 -16l4 -4l-4 -8v-18l-9 -3l-4 -25l5 -4l-9 -12l-9 -36h-18l-11 9l3 4v12l-6 9l-6 -6l-10 6l-12 -7v-8l6 -10l-6 -6l-4 -11l7 -7l4 8l5 -5v-9l3 2l4 10h6v-10h6l6 -2l-3 -3h-11l-4 -9l-7 -3l5 -9l-12 -6l4 -4l8 4l-8 -31v-9l-6 -6l-12 -7l-13 4
l-18 -4h-45l-13 7v3h-6l-6 6v21h-5l-14 40v12l-5 6l-3 12l-11 26l-5 20l-3 6v17l-9 14v7l-3 2l3 3l-7 7l-6 39l-9 14l-6 49l-9 16l-5 31l-7 21v19l-3 6l-6 24l-13 64v7l-9 37v18l-6 7l-13 75l6 5l-11 11v24l9 9l15 7h92l22 5l15 -5l10 -11l5 -20l13 -15v-16h3l9 -15v-30h7
l-9 -16l4 -6h6v-19l4 -3l-4 -2v-17l12 -6l4 -11v-11l9 -13l-12 -3v-10l9 -21l6 -7l-6 -12l10 -5v-13l3 -9v-25l8 4l4 -12l3 -3l-3 -7h12v-3l-7 -6l7 -6h12v6l-6 9l12 12v12l3 10v12l7 30l4 28l12 46h18l17 -30v-6l4 -10v-6l6 -25l9 -8l6 -13l9 3v21l-3 13v12l-9 27v13l-6 6
v15l-6 19v30l-6 13v24l-4 3l-3 15l-3 6v43l11 17l11 8l30 3l13 -4l9 4h49l15 -6l10 -11l5 -20h3l4 -23l8 -17l7 -6l-4 -15l7 -9v-15h9l6 -10v-9l-7 -11l4 -8h6l7 -2h11v-6l-8 -8l5 -14l-10 -4l4 -8h12v-4l-12 -12v-21l3 -3l3 6v-9l-5 -10l14 -15v-24l9 -8l13 7l16 -8h4
l-4 -13h-16v7h-6v-10l5 -5l-10 -15l5 -10l9 3h13l14 7v6l-4 3l4 5l8 20l-11 11l13 6v40l9 9v23l9 23l4 23l6 10v19l9 19v20l5 13h3v6l-5 5l5 29v12l10 26l12 8h16l13 7l35 -4l16 -12v-16zM591 353l-14 -4l3 -9l-3 -3v-7l6 -6h6v-21l-9 -6v-9h9v6l10 9h2v12l-2 9l5 6v7h-5
l-3 -4h-10v10h13v6zM277 211v-11h-6l-8 -15l8 -4v-9l15 -4v-3h3v6l-6 7v18l8 7l-8 8h-6zM256 330l-9 -4v-19l14 10v20zM265 313l3 -3v-7l-7 -6l4 -3h3l3 -3h6v22l-4 3zM271 388l6 -3v-9h-6l-10 16h10v-4zM268 266l3 -9h-3l-3 -9h3l11 10l-8 8h-3zM293 162v-15h6v12zM558 395
v-10h6v10l-3 3zM531 523v-6h6v6h-6zM375 263v-6h3v9zM274 159v-3h3l6 6zM601 278h3v4l-3 3v-7zM274 83v-3l3 -3v6h-3zM635 83h-3h3z" />
    <glyph glyph-name="X" unicode="X" horiz-adv-x="488" 
d="M472 693l-9 -14v-7l-4 -6l-9 -27l-8 -15l-4 -19l-9 -11l-25 -59l-6 -9l-4 -16l-5 -6l-26 -52h-5l-6 -17l-12 -4h-9l-6 -2l9 -13v-9l-3 3v6h-16v-9l3 -10v-12l7 -3l3 -8l12 -7l3 -6l-11 -4l11 -15l-3 -3l12 -20l7 -25l12 -13v-3l12 -27l4 -5l10 -29l12 -5l-5 -5v-8l16 -22
l6 -18l5 -7l4 -14l9 -14v-11l6 -6l3 -10l6 -3v-8l4 -19l9 -18v-33l-37 -7h-82l-14 5l-23 21l-17 46l-14 20l-12 24l-13 13v14l-14 32v3h-3l-5 -10h-11l9 10l-6 6h-7l4 11v22l-20 54l-13 14v18l-28 46v12l-19 37v9l-11 27l-10 16v4l-12 21l-40 85l-6 18l-13 22l-6 21l-22 46
l-5 18l9 16h12l22 3l19 5h68l17 -11l28 -44l17 -36l13 -3v-13l-5 -4l5 -5l3 -12l10 6l15 -15v-9l2 -3v-13h-5v-3h21l3 -14h3v8l12 28l13 22l17 36l4 3v6l12 18l12 31l13 13h3l4 8l17 6h70l16 -10v-15zM169 269l12 -21l10 -28l7 -8l-5 -20l5 -10l-7 -8l-4 -9l-15 -22v-8
l-8 -16l-5 -18l-15 -31l-7 -33l-11 -9l-11 -16l-17 -9h-72l-17 16l10 30l37 64v5l15 25v3l10 19l5 6l9 28l9 8l8 30l13 13l4 13l10 9l4 8l12 7zM273 520h3v3z" />
    <glyph glyph-name="Y" unicode="Y" horiz-adv-x="512" 
d="M491 655l-12 -25l-3 -10l-3 -3v-9l-8 -8l-7 -35l-10 -18l-3 -15l-12 -25v-12l-5 -15l-12 -11l-4 -20v-9l-12 -33l-10 -10l-9 -15l-6 -18v-9l-6 -6v-13l-7 -4l-5 -15v-14h-6v14l-19 13l-6 6l-4 -4l10 -23l13 -8v-4h-10l-11 5l-16 -8v-8l10 5l8 -4l12 7v-10h-6l-9 -9v-6
l9 3v-6l-6 -7h-12v-8l13 -19h8l12 12l4 -9l-3 -6h-3l-10 -9l6 -13l-9 -8v-3l6 3v-9l-4 -8l4 -8l-3 -6v-19l11 -10l-8 -7v-25l4 -8l-7 -13l10 -9l-4 -7l-3 -18l-3 -6h3l3 -10l-3 -6l-3 -16l-9 -5l-6 -6h-37l-6 3l-9 -3h-40l-27 4l-6 18v27l-3 12v120l6 48v19l2 21l-5 3v28h-9
l-10 18l4 6l-7 12l-6 6l-4 17l-23 23v8l-9 4l3 3l-6 7h-3v15h-13v18l-6 9l-9 3v19h-12l-6 6v16l-12 6l-5 28l-8 8l-9 3l4 21h-11v16l-3 3l-17 33l-11 18l-8 19v18l19 9h30l20 4l22 -4l22 4l19 -4l12 -6l12 -3l4 -20l6 -12l24 -17h11v-3l-5 -6l3 -3v-18l2 3v3l3 4l7 -4h6
l12 -7l7 -17h3l5 -21l13 -4l9 9l6 -3l-3 -3v-18h-10l-8 -3l13 -5l5 -4v-10l-3 -6h7l5 9l-5 5l11 8l7 -3v-10l6 -12v-6l15 -6l9 15l13 3l14 34l4 4v5l12 25l18 45l3 3l3 22l6 6l7 18l9 9l39 4l4 3l27 -3l4 -4l8 -3v-17zM207 582l-4 -4h-3v-3h13v-6l3 -4v-3l3 -3v-9l3 -3
l13 12h-10v6l-6 13zM256 562h-12v7h9l5 -4zM198 314h2v3z" />
    <glyph glyph-name="Z" unicode="Z" horiz-adv-x="476" 
d="M462 678l6 -12v-40l-5 -5l8 -17l-6 -8v-11l-10 -4v-10l-6 -6l-6 -19l-3 -3l5 -9l-23 -8v-10l4 -3l11 16l6 -3v-4l-9 -4l-4 -14h-2l-9 -10l-3 -6l-13 13h-6l-3 -7l3 -3l-10 -9l4 -11l-17 -9l-4 -10l-17 -22l-4 -14l-10 -10v-9l-18 -19l-18 -36l-3 -3l-3 -9l6 -4l-13 -14
h-15v-13l6 -6l-3 -3l-12 8l-4 -11v-12h-5l-12 -16l12 -11l-3 -4h-14l-5 -9l-6 -6l-12 -19v-6h6l6 -3h10l-7 -8h-6l-6 -4h-16l-5 -6v-15l4 -5l-13 -8l-3 -6l-7 -6v-21l-9 -9l-6 -3v-10l-14 -4l5 -5l18 -8v-7h-3l-5 -5l-18 9l-8 -4l5 -13l-23 -11v-14l-28 -13h-20l-10 3h-18
l-7 -3h-20l-15 6l-4 19l3 20l3 3l4 23l20 38l21 27l6 18l10 14l7 3l6 17l24 41l12 11l8 24l8 7l3 10l11 11h3l7 25l20 27l6 15l19 28l4 15l15 22v11l15 23l5 13l12 12l7 33l7 5v10l-7 -3l-2 3v9l-4 8l4 4h2l3 4l13 3v7l-16 -4h-8l-6 -10l5 -10l-18 10h-3v7l-6 6l-3 11l-6 6
l-8 -3l-10 3l-53 7h-14l-7 3l-12 -3h-39l-25 13l-4 17l4 4v14l-3 10v22l6 6l3 6l9 6h16l15 3l73 -6h121l20 -14l3 -11l7 -4l5 -8v-3l6 -7h9l3 4l-10 5l4 4l9 3l9 13l13 9h18l5 5l16 -5h16l6 -3h15l22 -11v-8zM462 45l-7 -24l-12 -12h-49l-33 3h-19l-6 6h-61l-14 7l-8 -4
l-8 4l-10 -4h-36l-20 7l-6 10l7 26l16 16l11 23l7 4v6l6 3l6 -3h43l6 3v-6h171l16 -16v-49zM204 107l-13 -8l-9 10l8 4h14v-6zM207 131h-20v7l3 3l3 -3h14v-7zM243 123l-9 -9l-6 20h7zM239 599l-4 -12h8l8 6zM275 254l-3 3h-3v5h11zM425 549v-6l3 -2l2 2v6h-5zM312 657h5v2
l-3 3zM300 654l6 -3v3h-6z" />
    <glyph glyph-name="bracketleft" unicode="[" horiz-adv-x="229" 
d="M206 704l-4 -27l-19 -10l-4 -9l-6 3l-19 -5v-9l-6 -10h-10l-8 -12l4 -8l11 11h3v-30l-5 -3l-5 -13h8l-13 -28v-20l11 -12l-11 -6v-37l6 -28l-3 -20l3 -26l4 -16l-7 -6l3 -24v-49l-3 -12v-31l3 -18l-6 -12v-46l-3 -9l-3 -40l7 -7l-7 -15v-21l10 -6l-13 -18l-5 -40l5 -9
l14 -10l-5 -9l-12 -6l3 -6h5l10 -21l20 9l7 -7h10l12 -5h10v-13l3 -13l-9 -19l-10 -5l-16 3l-8 4l-4 -4h-21l-9 3l-13 -6l-25 3l-5 -3l-6 3l-24 4l-13 40v30l-3 12v46l-12 122v83l-5 19l5 15l-4 57l4 4l-3 10l3 51v30l3 22v74l3 8v110l2 25v25l4 8v7l9 9h19l12 3h101l3 -3
h12l10 -10zM157 -3l-14 -5l-5 4l7 8l12 4v-11zM163 26l10 -3l3 -3h-33v3l-13 11v13l3 3l10 -13l20 -3v-8zM151 29l-3 -3h9zM143 154h-10l4 8l6 -5v-3z" />
    <glyph glyph-name="backslash" unicode="\" horiz-adv-x="370" 
d="M81 691l11 -22l5 -25l14 -27l3 -3l15 -36v-10l12 -19l6 -20l6 -12l5 -19l11 -21l15 -55l7 -14l6 -33l24 -48v-7l-3 -3l6 -5l9 -19l3 -3l10 -21v-7l6 -5l17 -56l8 -6l8 -30v-10l16 -33l3 -3l13 -22l14 -48l6 -7v-27l-9 -9h-21l-16 9l-9 18l-6 6l-21 49v19l-16 20v14l-8 11
l-17 55l-6 13v15h-3l-5 7l-3 12l-6 11l-7 25v7l-4 4l-8 26l-13 18l-30 55l-6 16l3 3l-6 3l-5 13l-7 8v8l-22 32l-5 24l-10 22l-28 71v11l-14 28l-7 9l-12 27v28l7 8l22 4l7 -2h18z" />
    <glyph glyph-name="bracketright" unicode="]" horiz-adv-x="230" 
d="M190 720v-36l8 -8l-5 -14v-58l7 -13l-5 -21l4 -5v-10l6 -6v-5l-12 7l-3 -51l-3 -6l10 -12l-7 -18l3 -15v-55l3 -13v-51l7 -8l-7 -8v-33l3 -13v-72l3 -58l3 -3l-3 -3v-83l9 -35l-9 -35l6 -12v-25l-8 -23l-16 -5l-6 -5l-37 -3h-101l-20 7l-10 23l3 22v14l16 16h11l6 3l39 3
l16 23v124l3 11l-3 10v119l3 9v33l3 44l3 11v25l4 12v18l4 12l-4 13v28l-4 11v55l-3 16v55l-3 9l-3 25l-14 13l-13 4h-40l-8 10v3h-4v12l-3 4l7 26l5 6h70l16 4h48l21 -11zM211 599h-9v2l9 3v-5z" />
    <glyph glyph-name="asciicircum" unicode="^" horiz-adv-x="420" 
d="M293 600l6 -6l46 -93v-9l11 -10l28 -64l17 -28l-4 -5v-15l-10 -9h-36l-28 5l-22 30l-15 39l-9 8l-9 19v6l-6 6l-6 12l-6 6l-8 25l-10 15l-7 18l4 4l-4 12l10 18v3l-6 -5l-4 9l7 3h5l17 25l14 5l17 -8zM238 657l-5 -4l-14 -48v-18h-6l-15 -34l-3 -3l-6 -18l-6 -9v-12
l-16 -19l-19 -33l-5 -3v-16l-9 -9l-3 -9l-26 -49l-21 -9l-15 3l-9 -3h-19l-12 6v15l6 6l3 13l7 12l16 41l12 11l3 12l3 4v8l28 65l11 12v6l30 58l4 3l3 13l9 11l5 14l14 14l17 10h25l16 -16z" />
    <glyph glyph-name="underscore" unicode="_" horiz-adv-x="457" 
d="M463 -89l-10 -40l-13 -13l-44 -3l-15 2h-46l-39 3l-10 3h-33l-17 -4l-8 7h-22l-6 4l-11 -4h-25l-10 5l-17 -5h-105l-18 7l-3 3l-7 -4l-12 4l-9 9v25l-4 8l4 22l3 3l6 13h16l9 3h52l21 3h47l24 -3h80l6 3l30 3l20 -3l44 6l69 4l20 -4h12l15 -15z" />
    <glyph glyph-name="grave" unicode="`" horiz-adv-x="219" 
d="M192 665l7 -8l12 -5v-7l3 -9v-22l-9 -12h-40l-9 3h-6l-3 3h-9l-12 6h-6l-24 8l-37 8l-16 15v18l17 33l11 6l24 -5l3 -3l12 -3l3 -3h7l9 9l6 -3h8l7 -3h18l14 -14l17 -5z" />
    <glyph glyph-name="a" unicode="a" 
d="M413 464l-4 -14l7 -7v-9h3l6 -6v-9l15 15l3 -3v-15l-13 -6v-13l-5 -12l8 -4l4 7h12v-14l-12 6v-9l18 -5l-9 -8l-8 -4l-4 -9l4 -8l-13 -13l3 -4h6l6 7l15 4v-11l-6 -6l3 -5l-3 -3h-3v-3h16l3 -10l-5 -8l-17 5l-5 5l-11 -12l4 -6l15 7l8 -12l17 -8v-10l-12 5l-16 -24
l-13 -4v-5l6 -6l-9 -15l7 -4l3 3v10h28l6 -4l-9 -9h-22v-5l-3 -9v-13l-7 -3l-2 -6l12 -13v-11h-14l-4 -22l18 8v-5l-3 -6h3v-6l-12 -4v-15l-6 -11l3 -10h10l-10 -18v-19l3 -8v-22h-9l-6 -6h-10l-17 -4l-14 4l-14 -6l-32 13l-7 14h-13l-43 -10l-5 10h-4l-8 9l5 9v30l17 28v3
h-17l-10 10l10 3h11l6 -6h7l3 -4h9v41l11 9l-8 12v9h-9v12l3 7v6h-3v-6h-6v24h-3v6l-13 6h-5l-6 3l-10 -6h-18v9l-10 3v-18l7 -3l6 3l-6 -18l-10 -6h-6l-11 -10v-12l-7 -6v-10l7 -6l-13 -8v-6l-8 -8l8 -8h3v13h6v-7l4 -11l-9 -10l9 -13l14 -7l9 4v6l6 5l-6 11h13v-22l9 -8
v-18l-16 -6l-12 -17v-9l6 -5l-6 -7l9 -8l-15 -7l-6 -15l-15 -7h-45l-30 4l-33 17l-27 32l-20 53l-10 87v27l-4 8l4 8l6 23l30 44l10 9l3 7l6 3l18 17h12l10 4h9v6l16 15h11l4 -17l8 8l4 9l9 10h30l9 9l3 -3l-4 -4l4 -8h19l14 13l-5 8h-6l-9 9v12l12 3v10l11 10l-4 14l11 3
l-8 24v52l11 13h44l9 -10h22l45 -27l21 -21l7 3l3 6zM199 510v-15l2 -9v-27l9 -7v-3h-9v-15l-11 -6l-10 -9h-6l-3 -3l8 -8l-7 -6l-9 9l-12 -12l4 -8l-6 -6h-8l-4 4l-12 -4l-19 8l-27 7l-6 4l-16 4l-12 11v30l13 22l25 24l27 18l51 11l22 -4h11zM257 410v-10l-3 -3v-6l-6 -19
l4 -3l5 10h11l5 4l-11 11l3 6v7h-3v3h-5zM187 217l-7 -21l10 -3h6v24h-9zM213 177h-9l-3 -3l3 -6l-7 -8l-4 5l6 18h14v-6zM248 199l-3 -3l4 -4l-12 -6l-11 4l3 6l19 5v-2zM207 73v-9l6 -6l7 6h3v3l-6 6h-10zM203 371l-4 5l2 3h-18l17 8l9 -10zM210 335v-13l19 5l-3 3z
M170 335l7 -11l8 3l-9 14zM241 327h10v12l-3 6zM224 245l5 -10v-3h6v13h-11zM223 416h-6l-5 4l12 5h8zM204 122l-3 -3l-6 4l4 9h5v-10zM165 355h-7l-4 4l8 8l3 -3v-9zM165 372h-10v7h10v-7zM168 152l6 -6l3 3v8zM262 419l6 -6h4v6h-10zM257 352v-7l8 4l-3 3h-5zM204 404h-5
v6h5v-6zM434 259v-2l6 -3l3 3zM158 201v-5l4 3v5zM287 388l-3 -3h6v3h-3zM248 355l3 -3l3 3h-6zM434 306l3 -3v6zM257 364h2l3 6z" />
    <glyph glyph-name="b" unicode="b" horiz-adv-x="449" 
d="M403 485l5 -14l9 -9l6 -19l4 -6l5 -18l6 -12v-6l-3 -3v-10l6 -12l3 -24l3 -9v-16l3 -14v-53l7 -19l-4 -14l5 -5l-8 -11v-24l13 -3l-6 -3h-10l-3 -19l-6 -18v-34l-6 -12v-9l-9 -9v-12l-15 -16l-3 -12l-13 -3l-3 -6l-18 -18h-10l-6 -12l-51 -16h-40l-15 16l4 94l5 12v7
l6 12l12 16v8l3 19l3 3v30l-6 31v30l-3 9v28l-5 20l6 12l-11 31l-17 5l3 3h6l6 2l3 -2v5l-6 3v19l-9 15h-7l-5 10l-8 -4l-5 -15l-12 -13h-6v-9l-8 -4l-4 -7v-10l-6 -12v-6l7 -7l-4 -15l-3 -36l-4 -5l4 -28l-3 -7v-12l3 -7l-3 -45l6 -25v-9l-4 -8l22 -8v-17l12 -13v-39l-3 -6
v-10l3 -3l3 -21l-9 -14v-11l-16 -8l-17 8h-8l-25 19l-26 7l-15 -10l-18 -19h-3l-13 -9h-24l-22 5l-11 26v98l3 6v27l-3 3v28l6 19v39l3 6v30l-3 10v55l3 9v30l-3 12v41l6 20l-6 16v24l4 14l-6 16l8 31v74l7 8l-5 5l4 13l-4 12l4 7v22l11 12l20 4h21l6 3h34l9 3h21l9 -3
l16 -11v-14l-3 -9l3 -7v-27l3 -21v-55l3 -13v-17l3 -7v-11l15 -7h9v-3l12 -4l4 -33l3 3l9 24l12 25l21 9h49l22 -6l25 -11l23 -20z" />
    <glyph glyph-name="c" unicode="c" horiz-adv-x="461" 
d="M416 462l9 -9l3 -16l9 -13v-11l3 -12v-16l3 -9v-27l-15 -16h-28l-12 -6h-61l-21 11v14l-3 6l-3 -12h-3v6l-22 9l-3 7l18 3l-7 6l-17 -9v-13h9l-12 -12l-15 6l-5 -9h-8v-13h7l6 -6v-3h-16l-3 -5h-9l-3 -7l6 -9v-12l-6 -13h-21v-9l-12 -12l-10 -4v-13l10 -4l5 -6l10 6
l3 -13h-15l-7 -12v-12l4 -3v-9h15v9l-6 10h11v-13l9 -12h-12l-11 -7v-3l10 -4l-10 -11h-3l-3 -3l9 -6v-21l8 -10l6 -3l4 -12l12 -12l7 -14l15 -7l-3 -3h-16v-59l-12 -12h-46l-19 9l-27 10l-9 9l-12 6l-13 12v7l-12 7l-27 53v19l-8 7l-11 66l-2 38l2 32v73l9 59l4 6v6l15 30
l9 9l23 35l11 5l9 9l19 10l27 12h12l3 3l28 8l21 -11l6 -19l3 -3v-45h10l6 9v27l6 12l6 22l28 7l54 -10l6 -3l17 -4l20 -12l6 -6l6 -3l16 -15zM440 110l-6 -12l-15 -49v-6l-9 -6l-30 -29l-41 -14h-9l-18 -6h-25l-20 21l-6 32l-4 5l2 3h3l8 8l-9 14l8 15l3 12l18 9l19 37v18
l6 14l23 7l17 -5h42l13 -6h9l6 -4h9l6 -6v-52zM239 401l-4 3h-3v-6l6 -6l-12 -4l3 -3l13 3l3 -3l3 6h6v15zM198 288l-17 -4l12 -12l3 6l13 7l-8 12zM232 437v-8l5 -9l13 -4l4 3l-19 18h-3zM262 388v-9l7 3l7 11l-4 5zM235 110l-6 3v4l-4 12h10v-19zM235 361l-3 -6h10v6h-7z
M214 318h6l3 6l-4 4zM248 371l-3 -3l5 -6l4 9h-6zM248 440h2l-2 3v-3z" />
    <glyph glyph-name="d" unicode="d" 
d="M444 694l3 -24v-18l8 -8l6 6l8 -7v-10l-6 -6v-12h7l-4 -21v-10l-4 -11l4 -4v-6h-3l-8 7l4 -17l13 -11v-6l-9 -10l-4 -21l-9 -7l6 -6v-8l-6 -3l3 -7v-9h-3v-31l8 -7l-5 -15l-15 5l6 6h6v6h-19v-19h7v-6l-7 -13v-12l11 -5l-7 -3l3 -3l4 -13h11v-3l-6 -3l-6 -6h-3l-3 -3
l-15 -7l3 -12h6l12 -12v-12h-6v9h-12l-3 -9l3 -6l3 -16l5 -12l-2 -10l18 -11v-9l-6 -10h-10l-2 3l8 9l-13 7l-6 -17l5 -5v-18l6 -6v-6l-9 -5l3 -20l6 -9v-6l-3 3l-4 -9l4 -3h7l-4 -9l-6 -6l6 -13l6 -48l3 -10v-15l-20 -30l-23 -10l-12 -8l-30 8l-35 19l-10 10l-21 7l-26 -12
l-6 6l-7 4l-6 16l4 45l-4 3l10 15v13l-3 3l4 9l26 8v7l6 12v16l5 19l-6 6l8 8l-4 30l3 10l-6 18v28l4 7l-4 23l4 11l-13 5l9 4v16l-30 -8h-6v-6h-13l-6 -6v-13h9v-3l-6 -6l-3 -15l-6 -3v9l-16 -7v-20l3 -3v-10h-3l-14 -6l-3 -6h-3l-4 -3l11 -3l-6 -11l14 -22l-6 -7l5 -17
l-14 -7v-6h6l8 -16v-12l-5 -6v-10l6 4l24 -4v4l-9 9h9l6 -6l6 -3v-9l-6 -9l-6 6l-9 -3h-13l3 -3v-19h13l3 -3l-13 -6v-40l5 -9l-8 -12l-3 -18l-3 -3v-8l-11 -5l-46 -3l-40 16h-7l-17 9l-19 15l-16 18l-20 40v12l-13 43v31l3 12l-6 6v73l-3 16v36l4 11l-5 18l7 14v37l6 30
l20 47l31 31l38 15l25 6h11l27 4l10 -4l30 -8l10 -26v-16l9 -11h9v6l-3 2v6l7 6v19h12l10 -7l17 37v22l4 21l-4 34v77l7 13l15 7h79l9 -3h33zM191 291v-3l6 6v3zM215 318l-4 -3h4l3 3h-3zM208 340l3 -4v7zM188 272v-3l3 3h-3z" />
    <glyph glyph-name="e" unicode="e" horiz-adv-x="463" 
d="M404 465l10 -9l9 -19l3 -17l9 -10v-28l10 -23l-4 -4l3 -28v-49l-3 -6v-24h-6l-11 -23l-16 5h-46l-13 -10l-6 6h-39l-10 -4l-9 4l-26 8l-16 -11l-9 9l-16 -9v-6l-22 -22l-5 10l6 6l-6 9l3 3v3h-22v-12l3 -3l3 -9l-12 -3l9 -9h8l-7 -13l5 -6h6l5 13h21l-26 -16l-6 -12h6
l4 -3l-7 -10h-6v-5l9 -9v-6l27 -28l4 -7l6 -2v-6l3 -6l6 3h6v-6l-17 -4l-4 -12l5 -22l-5 -5v-9l-7 -6l-4 -9l-18 -8l-40 5l-42 15l-6 6l-9 3l-17 13l-4 8l-22 22l-24 52l-9 55v30l-3 9v99l13 74l8 14v6l6 19l16 30l30 30l18 6l10 10h6l8 8l25 4l23 6l5 -6l5 5l8 -8v-6l6 -3
v-21l5 -6v-13l6 -6l-3 -3v-10l6 -6h20l-4 -21l-12 -18v-6l9 -4l6 4l-4 18h10l3 21v64l10 19l8 9h50l11 -6h13l42 -22l22 -20zM433 147l-7 -31l-12 -33l-16 -15l-6 -13l-12 -12l-7 -3l-12 -13l-21 -5l-25 -9l-8 -10h-47l-11 13v14l-11 11l11 16v38l20 21l8 15l8 4l3 8l9 13
l4 9l13 14l-4 5l3 6l8 -6h10l9 -3h22l9 -3l13 3l44 -14zM273 358l-4 3h-9l-11 -9l8 -9v-10l-4 -4l-7 8l-13 9v15h-6l-6 -9v-6l9 -6l-4 -16h31l8 8l8 -8l3 6v10h6l6 6v7zM255 402v5l-6 -3l-7 -12l4 -8l19 13zM194 333l-5 -4l5 -5h8l6 3h-6v6h-8zM204 358l-4 -9l2 -3l12 12
h-10zM234 144l-13 9l3 3h6zM246 423v-3l6 -7l3 3v7h-9zM187 404l-6 -6l16 6h-10zM285 376l-6 -5h9v5h-3zM221 371h6v2l-6 6v-8zM260 373l4 8l-4 7v-15z" />
    <glyph glyph-name="f" unicode="f" horiz-adv-x="398" 
d="M373 668l13 -24v-31l-18 -14l-18 -6v-15l-16 5l-6 -3v-6l-6 -3l-3 3h-9l-3 -3l6 -6l-5 -6l-14 8l-6 -6l-12 -6l9 -9v-7l-12 5v5h-6v-8l7 -8l-7 -8h12l6 3l3 -3h27l10 -9v-6l7 -14l-5 -46l-16 -13l-32 -4h-22l-2 -3h-3v3l-3 3l-9 -8h-13l-3 -3l-12 -3l-4 -9l19 -4v-9h-18
l-8 8l-5 -6l6 -15h10v-9h-10v-11l-2 -10v-12l2 -3l-2 -13l3 -19l-3 -22l2 -11h7v-6l-9 -4v-10l6 -13v-9l-6 -6v-25l6 -5h6v-3l-12 -9v-19l2 -16v-36l7 -3l-9 -5v-11l6 -13l-4 -8v-43l-6 -17l-14 -7h-89l-12 12v12l-3 6v119l-6 25v40l-3 42v61l-4 24l4 4v9l-4 8l5 5l-4 21v15
h-13l-6 13l-22 14l-5 28v46l11 12l21 11l7 16l5 49l16 48l13 13l5 11l30 23l38 13h9l6 5l25 3h70l31 -5h8l22 -15l13 -4zM215 320h-6v6h6v-6zM221 339h-9l-5 4l14 5v-9zM227 439v-3l3 -3l4 3zM209 442h6l3 3h3v3l-3 4zM230 470l-3 -3l5 -9h11v12h-13zM202 464v-3h7v3h-7z
M230 486v-3h-6l-4 -4l4 -9l16 16v8l-3 3zM237 513l3 -3l6 6l-5 5zM252 543l-6 -5v-4h3l3 4h8v5h-8zM279 571l-3 -3h-14l-5 -13l7 -3l6 6l12 7v6h-3zM359 571h-3v9h3v-9z" />
    <glyph glyph-name="g" unicode="g" horiz-adv-x="464" 
d="M432 494l-4 -10v-25l2 -12v-10l6 -8v-6l17 -17l-5 -10l-9 -4h-9v-7h6l10 -9v-8l4 -13h-14v-25h-6v-3l3 -3v-24l3 -3v-12l12 -12l-9 -16h-7l4 -9l-3 -6v-40l-5 -6l5 -6l3 -18l3 -4l-6 -12v-12h13l-5 -13l6 -11l-11 -7v-24l4 -7l-5 -16l4 -36l8 -2l-16 -8l11 -21l-6 -21
v-20l-3 -3v-19l3 -6l-6 -21l-8 -19v-13l-15 -10l-4 -11l-25 -21l-16 -10l-29 -12h-10l-6 -3h-15l-9 -3h-6l-6 -3h-22l-2 3h-6l-7 -7l-34 7h-18l-12 6h-40l-51 26l-5 11l-20 9l-21 31l-7 19v11l9 13l12 3l15 11l38 16l15 -5l12 -13l6 -3l9 -9l25 -13h39l23 8l10 -6l8 8l9 5
l20 39l4 38l-6 10l-3 8h-7v7l-7 -11l-5 4h-3v13l-8 9h-7l-6 -6l-3 12l12 13l-5 10l12 11v9l3 12l-10 10h14l4 15l13 3l6 9l9 9v13l3 18v24l3 6l-4 9l4 94l-4 58l-22 31l-7 -7l-4 11v10l-3 5l-2 19l-6 3l3 3l3 12l5 13v14l6 13l6 3l35 -17l17 5l7 9l24 12h37l9 5l20 -10z
M211 516l8 -41l-6 -7v-18l6 -7l8 -3l-5 -9l4 -2l-4 -6h-3l-15 -16h-12l-6 -6v-20l-9 4l-5 -14l5 -3l-3 -7h3l6 -12l-3 -16h-3l-11 -10l11 -13v-4h-6l-8 4l5 -18l-5 -15l4 -5h13l-9 -9l3 -15l-7 -3l4 -3v-3l8 -4l-5 -5l-7 -3v-7l13 -8v-37l-6 -7l6 -9h12l3 -3l-9 -12h6l15 -3
v-3l-3 -3v-6l9 3l5 9h4v-9l-7 -7l7 -15l-8 -4l5 -14l3 -3l-6 -6v-15l3 -6l-3 -7l4 -11l-19 -31h-9l-9 6l-8 -4l-23 4h-12l-18 9l-13 2l-18 16l-16 11l-29 34l-4 13l-13 25v33l-5 13v15l-6 43v104l6 24l3 24l11 45l7 10l16 32l28 28l20 8l21 12l25 3l12 7h32zM192 306l-9 -3
v7l-3 5l3 6h9v-15zM207 346l-3 3v6l3 3l8 -8zM430 83v-9h3v9h-3zM207 431v-5h3v5h-3zM180 150l3 -3v3h-3z" />
    <glyph glyph-name="h" unicode="h" horiz-adv-x="448" 
d="M410 483l9 -9l6 -31v-15l5 -12l3 -12l7 -7l-7 -3v-22l4 -2l4 8l6 -7l-14 -13v-28l8 -8l-12 -17l12 -13l-8 -23l-5 -19l2 -21l7 6h9l-13 -12v-52l-9 -10l4 -12l6 -9l-4 -21l-5 -12v-85l-9 -10l-16 -6h-15l-7 3h-11l-9 3h-22v3h-27l-9 7v3l-10 4v20l-3 10l4 27l-4 11v44
l-3 14v197l-3 18l-6 15l-10 9h-8v10h-9l-12 8l-10 -5l-10 -10v-10l-15 -5l-2 3l-10 -5v-8h4l3 -5l-7 -12l5 -10h-5v-9h-12v-6l-7 -20l4 -4h6v-12l-12 -16l18 -16v-3l-12 -5l-9 -9v-13h3v-15l-9 -9l6 -9v-6h9l6 -13l-9 -4l-3 11h-3l-7 -13v-12l-3 -7l3 -6l7 -3l12 -11v-7
l-6 -3l-10 -9l-6 -3l-3 -6l3 -7v-20l4 -9l-4 -4l-6 -15v-19l-15 -15h-104l-2 4l-10 6l-6 17v38l3 14v25l3 13v36l3 36v41l4 66l-4 33l3 23v82l4 7v61l-4 18v43l4 18l-4 9v47l4 5l-4 9v44l9 18l21 8l10 -5h33l6 -3l7 3h28l3 -3h17l13 -13v-8l6 -19v-25l6 -6h3l3 -3l-9 -18v-6
h6l7 -6l6 3l9 -14l-4 -5h-8l-5 5l-7 -7l12 -4l-10 -8h-3v-5l17 -9l7 -14v-4h9v-21l-3 -6v-9h3l4 -3h7l5 9l4 -8l21 20h55l5 -3h10l14 -9h4l3 -3h10l17 -12l14 -7zM207 419l-8 -5v-10l5 -7l11 22h-8zM183 149l-3 -3l-12 9l6 7v9l9 -9v-13zM189 314l-3 -5l-3 3v18l3 -3z
M177 391v-12l9 9v3h-9zM223 382v-3h-10l5 8zM161 135v-3l4 -4v7h-4zM220 434v-6l3 6v6zM232 455v-6h3v6h-3zM196 565l3 -3h2l-2 3h-3zM201 553h3v6z" />
    <glyph glyph-name="i" unicode="i" horiz-adv-x="208" 
d="M152 544l-7 -5l16 -6l12 -22h3v-3l-6 -7v-6h10v-9h-4l-3 3v-27l3 -3v-9l5 -21l-8 -6l11 -53l-8 -15l-7 -7l4 -9v-9h7v-6l-7 -3l3 -9l-6 -3v-34h6l7 6h7l-4 -9l-10 -3l-6 -12v-12l7 -7l-9 -24l21 -3l-16 -15v-15l-3 -4l5 -8l-6 -18l7 -8l9 -3l-13 -13l4 -5l-5 -20l8 -43
l-11 -45l-16 -8h-9l-22 -4l-21 4h-13l-12 4l-11 -5l-13 4l-3 3l-10 3l-6 13v63l-3 33l3 29l-3 6v67l3 3v68l3 9l-5 16l5 39v43l4 16l-4 33v70l7 11l40 11v18l3 10l21 -16v9h6l6 -6l5 4l14 5l4 -8l11 -8v-9zM121 550l-6 -3l6 -3h19l-6 6h-13zM91 555l-4 -8h19zM140 553l3 -3
v3h-3zM174 679l-5 -50l-14 -14l-7 -3l-3 -4h-17v-8l-11 -21l-17 6h-7v20h-14l-4 -7l-12 10l-12 7l-16 15v55l11 21l20 9h19l30 3l34 -3l12 -11zM109 602l8 -3l4 3h-12z" />
    <glyph glyph-name="j" unicode="j" horiz-adv-x="220" 
d="M187 519l3 -25l3 -8l-3 -6v-37l3 -15l7 8h6l-5 -10l-11 -6v-15l12 4l3 -3l-3 -6h9v-12h-6l-3 3l-2 -6l3 -12l-13 -9l7 -13v-24l3 -4v-3h6l-5 11l13 5l-6 6l3 3h6v-9l-6 -6v-16l-11 -19v-27l5 -6h12l-3 -3v-2h6v-6l-3 -3l6 -3v-3l-9 -4l-4 13h-10v-9l5 -4l-7 -8l4 -10l9 9
v-12h19l6 -7h-9l-10 -9v-11l-17 -7l3 -8l8 8l5 -9l-11 -15l-3 -7h-2l-3 -3l3 -6h14v-11l-6 -7h-6l-2 4l-3 -4v-9l3 -6v-6h5v-16l-10 -9l14 -7l8 8h6v-3l-6 -6l-4 -10h-13l2 -12v-10l12 -11h-6l-3 -6h9l9 -9v-10l-12 -3v-22l-3 -8l7 -7l-15 -49l-11 -23l4 -4l-6 -6l-3 -6h-7
l-13 -18l-14 -6l-11 -12l-22 -4l-6 -3l-25 -3l-6 -3h-18l-10 3l-33 3l-18 6l-3 4l-37 17v14l-17 9l-20 30v25l25 8l15 16h12l17 8l36 -18h8l14 -7l5 4h9l6 13h-9v14h12v16l4 7l-10 5l-3 10l-6 -22v-13h-7v19l-3 10l10 15v17l-6 21l6 165l-3 13v37l-4 58l-3 76v95l11 20l17 5
h18l6 6h25l21 8v-2l12 -6h20zM183 649l-7 -28l-14 -14l-30 -6l-3 -5v3l-18 4l-10 4l-6 -3h-22l-23 15l-4 26l-4 4l4 10v25l15 15l16 4h30l10 3h42l17 -17zM144 588l-11 6l5 5h6v-11zM211 371v11l14 -4zM223 33h-6l-6 6h12v-6z" />
    <glyph glyph-name="k" unicode="k" horiz-adv-x="445" 
d="M154 685l6 -19v-9l3 -12v-15l14 -14l-4 -8l-4 -3l4 -5l9 -5v-8h-16v-12l13 -13v-3l6 -6l-9 -3l-3 -6l6 -12l8 -8l-5 -4l-4 7l-10 -5l5 -10l-4 -8v-48l4 -19l-12 -22l5 -11v-46l3 -15v-13h10l11 8l-5 5v7l12 6v29h9v12l-6 7h12l24 9l10 -16v-9l9 -9l12 -21v-12l9 -10
l10 -18v-9l15 -18l3 -13l12 -15l16 -26l9 -4h4l-5 -11l4 -8l10 -5l15 -28v-10l2 -3l6 -18h12v-9l3 -9v-6l9 -4l-8 -8l22 -38l22 -53l-7 -13l-35 -7h-48l-16 4l-21 -4l-21 7l-21 20l-5 22l-21 33l-11 7l-10 -5v5h-3l-3 -9v15l6 9v13l-4 4l6 12l-5 5h-8l5 9l-9 -5v22l-9 4h-6
l-6 7l6 3l-4 4l-11 -10l9 -7l-5 -4l-4 4l-4 -15l7 -6h12l-6 -6l-12 -18l6 -13v-6l-3 -3v-24l-3 -6v-28l3 -9l-3 -21l-19 -19h-27l-56 -6l-34 11l-5 29v171l-6 18v113l-3 83l-3 21v83l3 12l-3 27v31l-4 11l4 10v74l6 12l15 6h9l6 3h16l52 5l23 -12zM420 496l-30 -46l-16 -16
l-3 -5l-12 -13l-5 -10l-12 -6l-8 -15l-18 -12h-9l-25 24l-6 13l-8 8l-7 22l-6 6v16l6 15l3 3l11 30h9l5 10l9 3l9 9h27l35 -3h40l16 -10zM188 291l-6 -7h-6v7l3 6v6h-8l-5 -9l3 -6l-4 -8l8 -11l-4 -6l4 -9l3 -15v-25l3 -3l3 -15h-3l-3 3l-8 -7l10 -10l4 8l15 -4v-8h6v21
l-9 6l3 6v15l3 10l-3 6v3l-9 -3v12l10 14l-7 7l3 6l14 8l-8 8zM191 327l-3 3v-9l-3 -3v-3h6l-7 -7l5 -10l14 14l-3 6l3 3v6h-12zM206 123l-6 -7l-7 4l4 9h9v-6zM200 88h-9v10h9v-10zM169 315l4 -6l3 6h-7zM194 306h-3l6 3z" />
    <glyph glyph-name="l" unicode="l" horiz-adv-x="209" 
d="M157 674v-13l15 -7l-6 -3l-6 3v-6h12v-13l-7 -14l23 -25v-10l-3 -6v-9h-8l-5 9h-3v-15h6l7 -10v-9l3 -5l-13 -3v-6l3 -4v-9l-3 -6l5 -5l-11 -8h-6v-17h9l3 -13l6 -9l-9 -6h-10l4 -13l6 -3l-7 -13l4 -4v-6l6 -13l-6 -6v-6l9 -7l10 4l3 6h3v-13l-9 -3l-5 -4l-7 6l-4 -8
l3 -42l6 -7v-23h-6v-10l4 -4l-7 -14v-7l-3 -6v-8l6 -6v-24l18 -12l-5 -5l-7 6h-3v-33l10 -9l-4 -6v-21l10 -9v-3h4l-4 -10l-3 -3v-48l7 -14l-7 -14v-24l-19 -19h-27l-37 -5l-57 6l-14 23v95l4 27v31l6 14l-3 11l3 11v41l-3 14v35l4 9l-7 14v31l-12 187l4 26l-7 13v104l8 16
l16 9h58l3 -3l21 5l10 -5h8zM160 474l3 -4v4h-3z" />
    <glyph glyph-name="m" unicode="m" horiz-adv-x="644" 
d="M606 437l-6 -5l6 -16h24v-6l-7 -8l-6 -27l17 -7l3 -13l5 -10l-5 -5v-10l-9 -4l-4 -13l-9 -10v-6h12v-15l-17 -9l14 -25v-9l-14 -14l5 -11l6 3v13h9l11 -4l-17 -11v-28l-3 -3l-8 8l-4 -5l6 -9l-4 -13l7 -15l3 -15l-9 -4v-45l7 -14l-4 -26l-3 -9v-33l-15 -16h-53l-8 3h-16
l-7 -4l-8 4h-19l-14 16v48l5 52l-11 16l6 6v15l3 6l-6 12l-7 -6l-5 -10l-8 7l-18 -3l-2 3l2 6h13l6 3h12l13 13v12l5 5l-8 5l-7 -4h-6v7l-6 14l-3 3l6 10h-6l-13 -10h-3v-6l3 -6l-17 -5l-3 -10h9l7 -7l-7 -11h-28l-16 -3l-3 -7l7 -6l-10 -14l10 2v-12l-4 -3l-3 -52l4 -24
l-4 -4l4 -16l-4 -23l-11 -13l-16 -9h-31l-11 3h-34l-27 14v50l4 5l-5 8l4 42l-6 16l6 21v40l3 3v12l4 18l-8 17l6 18l-9 9l5 11l-14 4l-14 14l8 7l-6 3v3l-3 4v3h6l6 5v9h-12l-10 -9l-3 -5l-6 -3l-3 -7h-5l-9 -4l-8 9l12 5l8 -3v11l8 9l16 4v12l3 3v6l9 3l-15 15l6 12h12
l3 13l-3 9l-6 9l8 8l-9 9l7 23v22l3 6v11l13 13h30l12 -6l4 -4l14 -3l12 -11l10 -3l12 -13h3l3 -3l7 6h11l4 -8l9 -4h12l5 5l15 -7l-4 -4v-22l6 6l6 13h8l7 -3h12l3 6h3l-7 7l-8 -4h-10l-3 3l9 14l4 -8l3 3l-3 10h3l6 -7l12 4l19 20h15l3 -3l28 3l6 -3h8l3 -3l19 -8l6 -6
l-3 -4l13 -6l9 -9l15 -8v-11zM191 459l-4 -16l11 -10l-4 -7v-6l-7 -4l4 -19l20 4l4 12h12v-11l-16 -7h-7l-6 -13h-4l-3 3l3 3v4l-10 -4v-12h24v-9l-17 -6l-4 7l-12 7v4l-6 -6v-8l3 -7l-6 -12v-31h6l5 11l6 -12l-5 -4h-6l-3 -7l-6 -6l9 -9l15 -6h5l8 -16l-3 -3l-3 6l-17 9
l-11 -6v-6l-7 -6h22v-5l-9 -5l7 -12l-20 -10v-33l10 -14l-3 -3l-4 -19h9l6 19l10 -4l-6 -12l-27 -19l9 -8l-4 -12v-6l-6 -13v-18l-3 -9v-15l-3 -7v-21l3 -6l-3 -6v-11l-36 -5l-12 6l-22 -5l-24 3h-15l-19 16l-6 45v36l-4 46l4 31v46l3 12v37l3 12l-3 3v55l3 6v40l7 18l-4 7
v39l5 19l-5 8l4 12v10l8 9h9l15 5l75 -8l11 -12l15 -10l16 -3l16 -14v-16zM407 236l-3 -6h-13l-15 -22l5 -5l5 5l21 11v8h7l8 4zM417 156l4 -9h-11l-6 3l-6 -3l-3 3v18l22 -6v-6zM453 190l4 -11l-6 -6l-14 14v15h7l9 -5v-7zM194 224l-7 -16l-10 -7l-14 5l22 7l-5 6l4 14
l7 -3zM415 124l-9 -8l-10 5l5 5v12h4zM618 349v-19h6v13h10v6h-16zM218 346h-10l-3 -6l-5 9h-3l21 3v-6zM183 136l-6 -12l-7 7l6 12zM245 257h-6l-9 6v6l3 3zM239 368l3 -7v-3h10l-8 14zM218 197h-7v11h7v-11zM618 423l-12 4l9 7l3 -3v-8zM389 429l3 -9l6 3v6h-9zM249 294
l3 -6v-3l5 3v6l-2 3zM643 303h-6v10h6v-10zM395 440v-6l6 3v3h-6zM417 321v-3h6l3 3h-9zM407 193l-3 -3h6l4 3h-7zM398 252l3 -7v7l-3 3v-3zM431 423v-3h3v6zM172 385v-3l3 6v4zM612 245h6l-3 3zM255 346v-3l2 3v3zM472 202h3l-3 3v-3zM398 291h3l-3 3v-3z" />
    <glyph glyph-name="n" unicode="n" horiz-adv-x="469" 
d="M421 471l14 -23v-22l4 -10v-6l6 -12v-49l-3 -3v-13l5 -16l-5 -5l3 -6v-28l3 -6l-7 -7l4 -14l-3 -12v-43l-7 -9l4 -7v-6l3 -7l-10 -35l5 -22l-5 -15l4 -21l-6 -11l5 -5l4 -13l-4 -6l-6 -24l-13 -9h-53l-25 3h-25l-8 13l-12 3l-4 8v12l-3 16l4 20l-5 9l4 7l-3 35l8 15
l-5 46v94l3 44l-3 33l-6 18v11l-39 23l-4 13v11h-3l-10 -10l4 -14l4 -8l-4 -4v-6h-16v-13l3 -6l-3 -3l-5 -21l-16 -13l-5 6l-4 -9v-33l3 -9l-8 -17l5 -21v-11h-6l-3 -19l-3 -3l6 -15v-21l12 -4l-12 -12v-15l3 -13l-6 -5v-12l-3 -4v-55l-3 -3l-7 -22v-4l-12 -18l-8 -5h-47
l-60 8l-10 10l-6 19l3 30l-5 10l6 18l-4 16v94l4 17l-6 12l8 42v94l4 14l-4 14v79l-3 13v21l8 10l7 3l6 5h49l9 -3l13 3l35 -4l23 -14h21l6 4h18l10 -10h12l20 14l29 11l39 -12h10l28 -16h8l22 -22v-3l15 -5zM191 361v-6l7 3v3h-7zM243 492v-3l3 3v3z" />
    <glyph glyph-name="o" unicode="o" horiz-adv-x="469" 
d="M209 485v-53l3 -3l3 3h3l-3 -17l-14 -5l5 -5v-3h-11v-37h-7l-12 -9h-6v6l-7 -6l4 -12l3 -25l6 -6h9v-3l-20 -12l5 -15l-3 -4v-22l-7 -8l3 -6l4 -19l3 -4l-7 -20l4 -6v-25l9 -19v-8l-3 -6v-16l6 -6h9v-9l10 -13h2l22 -16v-20h9v-10l3 -6l-8 -4l-6 -10l5 -31l-7 -7l-21 -7
l-30 4l-46 16l-35 24l-23 28l-12 18l-7 21v13l-13 25v27l-5 12v31l-6 45l3 7l-3 6l3 18l-3 3v22l3 12l-3 12l3 28v18l18 56l22 36l15 12l12 7l3 6l34 15h3l13 9h11l13 6h21l17 -9zM418 454l11 -25l7 -9v-18l9 -10v-15l6 -30l-6 -3v-10l7 -7l-5 -23l6 -13l-5 -6v-12l-3 -3v-3
h19l6 -7v-11h-9v6l-15 -14l8 -17l-3 -6v-13l5 -9l-5 -15v-12l-6 -12v-21l-3 -6v-18l-9 -4v-13l-10 -31l-8 -8l-5 -10l-20 -15l-6 -9l-13 -4l-11 -11l-3 -6h-10l-5 -6l-39 -6l-7 -6l-27 6l-5 5l-6 16l3 3h4l-4 13l-8 8l-7 -3v4l15 11l4 13h-11l-4 9l15 4l5 20l11 6l24 35v30
l6 6v22l5 11l-4 15l8 38l-6 5l-3 44v21l-3 3l-4 33l-15 10v12l-6 6l-5 10h-4l-4 -7h-6l-7 9l10 4v9l-17 10v3h4l-6 44l12 12l-9 9l5 4v10l14 15h22l24 -3l3 -3l29 -4l18 -8l8 -10l19 -8l22 -22zM190 130l-6 -12l-5 5l3 3v10l3 3zM180 390l5 -10h5l-8 16z" />
    <glyph glyph-name="p" unicode="p" horiz-adv-x="460" 
d="M431 443l4 -12l3 -3l14 -44l5 -29l-5 -19l6 -19l-5 -20v-22h14l-4 -9l-13 -4v-17l-3 -31l-3 -10l5 -25l-8 -20v-32l-9 -14l4 -4l-10 -11v-12h-3v-6l-10 -25h-15l-21 -21l-27 -18h-13l-6 -3l-30 -6l-6 -3l-10 3h-21l-9 14v31l-9 10l3 3h-22l-6 3l10 3l6 6h18v18l32 41
l5 26v25l5 50l-6 13l4 10v31l-3 18v18l-7 25l-6 9l-3 22l-15 15h-9v9h-12l-11 -15l-8 -4v-9l6 -3l-3 -8l-6 -7l-3 -13l-12 -8l-27 -25v-10l9 -5l-3 -3v-16l-11 -10l9 -15l-4 -5v-6l12 -9l-6 -13l-10 10l-7 -8l7 -8v-12l5 -8l-5 -4v-6h-6v9h-3l-3 -15l3 -6v-10l3 -3l6 3l4 10
h9l-3 -3v-10l-12 -11l12 -4l8 -8l-10 -19h8l3 -10l21 -21h12v-12l-3 3l-9 -6v-12l-3 -3l-9 -20l3 -11l-9 -3l-3 -3l6 -3v-9h-15l-6 3l-19 -9h6v-4l-3 -3v-6l3 -3l-3 -6h16l9 -10v-27l3 -3l-3 -3h-16l-5 5l-10 -5l-6 -18l3 -12l6 -3v-15l-3 -10l-3 10l-7 -22v-6l-2 -6l-6 2
h-6l5 -3l-8 -8l-13 3l-4 4l-15 -7l-23 3l-6 3l-17 -5l-11 5l-3 9l-9 9v52l-3 12v196l3 3v15l-3 6v64l4 38l-4 11v104l4 8l-4 22l3 7l-3 12v24l-6 41l6 31l16 11h51l12 -6l10 5l34 -6l14 -21l16 -3h39l17 -25l-7 -21l9 -9l12 -6l6 12l-9 10v6l9 9v12l13 30l14 7h46l19 -9h9
l21 -13l16 -5l8 -12l11 -4zM185 346v-6h6l-3 -4h3l9 10l4 14l-7 8l4 3l-4 5zM219 405l-16 -17l3 -9h3l8 12l7 3l7 7zM180 -14l-8 8v12l21 -7zM163 -36l-6 -6v-9l15 6l-3 3l3 3zM231 429v-13h9v13h-9zM231 25l-9 4l9 6l4 -6zM264 382h-9v6l2 3l7 -6v-3zM224 -21h-6v6h9z" />
    <glyph glyph-name="q" unicode="q" horiz-adv-x="455" 
d="M431 493l3 -9v-37l3 -13v-30l-4 -11l11 -11v-6l-7 -5v-34l4 -8l-4 -11v-11l-6 -32l3 -6v-33l-3 -3l3 -19v-22l10 -5l-10 -14v-20l10 -9l-4 -3v-18l-4 -10l4 -55h7v-12l-3 -13l6 -8v-3h6l-16 -47l4 -5v-31l3 -3l3 -16l5 -5l-11 -22v-67l-24 -13l-53 -3l-29 4l-8 -4l-12 3
l-5 6l-11 6l-5 29l-3 55v61l-11 21h-11l-6 6l-15 6l-6 13l-7 7l7 20l-6 18v19l-3 6l24 24l10 4l15 19v11l8 4l-6 12l4 42l-3 18v37l-3 15v10l-4 14l5 14l-5 11v22l-6 30l-9 9l-32 17l-11 42l-15 -3l4 -19l-12 -7l-4 -14l-15 -22v-14l-7 -19l-6 -6v-3h10v-3l-4 -4v-12l-6 -23
l4 -8l-4 -41l3 -13v-62l3 -6v-24l10 -18l20 -22l4 -21l9 -3l-6 -6v-10l3 -6v-12l3 -18l3 -6l-8 -13l-4 -12l-12 -13h-40l-27 10l-3 3h-11l-42 27l-12 18l-9 10l-13 28l-6 6v15h-5v18l-6 10l-3 15l-5 9l-8 83v49l-3 15v37l9 64v16l7 6l6 32l8 4l3 9l13 19l15 15l22 12l24 6
l12 7h24l10 6h28l14 -14l3 -27l4 -2v-6l11 -11l13 6v16l8 15l20 10l12 -9h12l10 -9h22l14 15l5 9l11 4h6l24 6h37l19 -9zM223 453v-3h6v6z" />
    <glyph glyph-name="r" unicode="r" horiz-adv-x="380" 
d="M356 505l-3 -3v-6h10l-3 -10l3 -8h7l-4 -37l-3 -7v-13l-21 -14h-7l-14 -9h-7l-13 -13h-9l-16 -7v7l-15 10v9l-17 -3l-10 -16v-9l-12 -7l-5 -11h-8v4h3v6l-4 3l-8 -19l-6 3l-4 -4l7 -8l-9 -24l5 -10l-13 -7l5 -5v-15l-3 -3v-16h6v-6l-6 -2l6 -16v-25l-3 -6l3 -8v-44l3 -33
v-95l-11 -23l-17 -8l-18 -3h-49l-21 3h-31l-13 13l-8 18l-3 64l3 9v47l8 52l4 5l-4 19l7 27v95l-3 52l5 70l-7 47l5 9l12 3l3 6h79l13 -9l6 -7h9v10h3l9 -13h4l-3 6l4 10h17l13 -5l11 8l3 6l11 -7l16 8l5 -4h27l5 6l34 -6l18 -14l9 -14h10v-3zM176 334l3 -7h3l-3 7h-3z
M176 355l3 3l-3 4v-7zM182 371v-3h3v3h-3z" />
    <glyph glyph-name="s" unicode="s" horiz-adv-x="424" 
d="M388 402l-7 -29l-20 -9h-15l-13 -3h-30l-18 -4l-20 20l-10 -6v-13l-3 -6v-19h11v-9l-3 -3l3 -3l5 -11l23 -4l8 -8l16 -4v-4h6l12 -12h10l28 -27l11 -15l6 -16l10 -36l3 -3l-4 -16l4 -19l3 -5l-6 -6l-3 -19l-5 -4l5 -6l-8 -24l9 -10l-14 -4l-3 -7l-8 -9l-3 -6l-13 -6
l-6 -12h-6l-46 -25l-6 -5l-45 -6l-24 8l-5 10l3 3l-9 18h-6v2l6 7v43l9 8l4 8l24 16l9 17v12l-12 12v6l9 8l-12 6v-8l-3 -3l-5 -14l-9 9l11 8l-6 3h-10l-3 -3h-15l-2 3l2 6v10h3l5 -14l17 17l-10 3l-9 9l-26 15h-10l-16 6l-9 6l-18 3l-6 7l-22 7l-27 20l-9 9l-8 4l-8 11v7
l-9 9l-14 24l-7 43v58l12 37l13 22l39 30h12l9 8l28 4l10 3h33l15 -15l8 -45l4 5l8 4l7 17v6l11 18l17 8l43 -7l6 -6l32 -9l47 -46zM132 165v-9l10 -10l3 -10l20 -5l-7 -6l5 -10l18 -14l7 -10l9 -20l-4 -10l4 -9l-7 -14l3 -8l-9 -23l-9 -10h-33l-41 12l-30 19l-22 18l-15 25
l-11 11l-7 31l-6 7v40l12 8h9l12 6h10l9 4h18l9 3h28zM220 429v14l-9 -3l-5 -9h-9v-9h17v-14l-14 10v-13l14 -8l3 -6l7 -6v-5l17 -9l14 5l2 3l9 3l-8 21l-19 10l3 3v9zM224 364l-7 -9l3 -6h7l6 -4l14 -4l-9 9l7 8l-6 6h-15zM220 342v-12l7 -6l3 6v6h-3l-3 6h-4zM187 358h3v3
zM236 181h3l-3 3v-3z" />
    <glyph glyph-name="t" unicode="t" horiz-adv-x="342" 
d="M212 679v-12l6 -7v-11l6 -27l16 -7h14l3 -10v-13l-11 -4v-10l16 -17l14 5l6 9l5 -10l17 -8l6 -7l12 -7v-13l8 -27l-6 -61l-20 -11h-44v-5l7 -10v-3l6 -6l-6 -6h-20l-4 -10l-7 -6v-24h10v-14l-13 6v-4l3 -3l-3 -3v-4h13v-6l-10 -9v-9h4v-3l-7 -6v-19h10v-6h-7l-4 -23
l-5 -4l13 -39l-7 -12l7 -19l6 -3l3 -7l-9 -17l10 -19h13l11 -21l11 5l28 4l24 -13l6 -12v-13h4l9 -11v-36l-26 -19l-24 -8l-33 -5h-10l-11 -4l-51 5l-20 5l-28 14l-11 4l-28 28l-20 40l-5 18l-3 49v91l4 30l-4 8l3 47l-3 14l5 14l-5 10v12l-6 29l-31 14h-20l-16 16v6l4 7
l-7 20v22l3 18l9 10l31 7l27 15l20 42l5 33l3 10v24l6 12v10l63 8l28 -9zM243 374v8h14zM252 413v-3l3 3h-3z" />
    <glyph glyph-name="u" unicode="u" horiz-adv-x="461" 
d="M408 489l6 -5v-22l3 -9h6v-6l6 -6l-9 -3v-9l9 -9h3l6 -6l-6 -7l7 -7l-4 -5l-4 -10l4 -20h-9l-8 -12l5 -10v-22l3 -3l6 3v-14l-9 -5v-14l-3 -9l3 -22v-33l-7 -11l7 -35l7 -7l-12 -7l5 -5v-3h-3v-6h6v-6l-14 -13l5 -5v-43l-7 -14l7 -7v-51l-13 -20h-81l-33 29l-26 -6
l-11 -13l-13 9l-10 3l-6 9l3 6l-6 18l3 6l-4 11l6 12l-8 8v3h-10v-9h-11v-3l11 -6h-11v-13l-3 -9l10 -28l-26 -27h-28l-8 3l-16 3l-6 6h-20l-29 19l-24 20l-16 29l-2 12l-7 12v15l-6 7l-3 36v25l-4 8l4 22v61l9 26l-7 63l4 28v28l3 55l7 49l10 11l17 4h73l4 -3h11l9 -9v-16
l7 -6v-68l-4 -6l7 -26l-13 -22v-6l10 -9v-14l12 4v-10l-12 -8l-10 -3v-7h6l14 -6l-20 -5v-3h6l4 -3l-5 -9l8 -7h9v-8l-9 -4h-13v-10l10 -9l-9 -3l9 -8v-16l-4 -12l13 -13l-3 -15v-12h-10l-3 -3l3 -3h13v-3l-13 -3l7 -10v-9h18l16 6h5l-8 -9v-7l-20 4l-5 -9l9 -3l6 -6h10
l-5 -16h5l14 6v-9l-6 -6v-6h-8l6 -6l21 21l3 7h11l11 15l21 8v10l3 9v19l-5 9l5 10v14l6 13v45l6 7v28l-4 8l6 5l4 14v31l-3 11l3 41v52l3 6l-5 11l5 22l13 13h36l19 -10l16 5l5 -5h22l6 -6v-13zM182 228l-5 -10l-8 9v15l-5 10h6zM181 180v6l13 4l4 -4zM150 343v-3h6v6z
M423 411l3 -7v7h-3zM386 502v-3h3v3h-3z" />
    <glyph glyph-name="v" unicode="v" horiz-adv-x="424" 
d="M408 517l3 -4l-5 -56l5 -5v-3h-9l-4 -21l3 -6v-6h13l3 -3l-6 -3l-3 -10h-7l-3 -3l3 -3h7l7 -7l-7 -12l-7 -17l-6 -10l-8 8l-4 -4v-4l-3 -6v-15l-11 -15l-4 -22l-7 -10l6 -17l-8 -4l4 -3l-7 -8v-22h-7v-19l-9 -8v-19l-19 -80l-7 -8l-26 5l-6 3h-9v13h6v-6h12l6 6l-6 9v6
l-9 7h-9l-12 7l-3 -7l10 -11l-8 -8l-2 -25l11 -20v-23l7 -6v-14l-14 -14l-13 -5h-49l-32 4l-18 17l-11 50l-4 6l-9 39v6l-7 14l4 13l-6 13l-4 25l-6 14v4l-4 9h8v6l-10 9v13l-5 5l-4 19v18l-12 13v16l-17 26l-11 31l-22 47l-5 29l-12 33v30l21 11l48 7l16 -4l6 3h38l20 -14
v-8l13 -20l3 -16l6 -6v-31l6 -6h15l8 4l-5 -10l3 -3v-6l16 -12l-5 -11l5 -5l12 12h7v-18h6l11 6h6l-3 -6l13 6l3 7l-9 5v10h9l3 -3v6l-3 6v8l10 5l5 30l4 9l5 30l15 25l69 8l17 -6zM266 149v-6l13 -3v9h-13zM250 371l5 -4h2v12zM224 385v-6h9v6h-9zM276 174l-3 -3l6 -6l3 3
v6h-6zM257 352v-4h6v4h-6zM266 158v-3h4v3h-4z" />
    <glyph glyph-name="w" unicode="w" horiz-adv-x="628" 
d="M612 525v-31l3 -3l-6 -30l7 -11l-7 -8v-14l-3 -4l3 -6l-15 -43l5 -9l-8 -15l4 -22h-7v-6h3v-6l-5 -9l12 -6l-4 -12l-3 9l-9 -9l6 -7l-3 -9v-6h-10l4 -7l-4 -17l-11 -11l8 -5v-15h-6l-3 -3l3 -6l-3 -6l-3 2l-6 -5l3 -30l-18 -22v-9l-15 5l-12 -6l-4 4l-9 -5v5l9 8v16l18 4
l-15 15l-15 -30l-21 -7l-3 -12l3 -3l6 -19v-27l3 -6v-41l-11 -9l-23 6l-3 -5h-19l-5 8l-9 5l-4 17l-9 13l-3 9v11l-6 13v12l-6 10l-10 12l-3 8l-5 7v28l4 4l-7 8l-4 -4l-9 4v6l-3 2l-3 8l-11 -6l-11 11v6l7 3l3 10h-7v6h-12v-6l6 -7l-14 -15l-13 -4v-26l4 -12l-7 -4h-6
l-6 -3l-16 31v6h-6v2l-8 -2h-8l5 -14l-4 -7h-9l-3 3l-9 3l-10 -6l4 -4l-4 -18l5 -12l-5 -9l3 -3v-25l7 -6v-24l12 -6l-6 -3l9 -10l-3 -3h-3l-6 -19v-8h-13l-14 -4l-6 6v6l-13 -11l-9 5l-4 -6l-9 4v5h-13l-7 25l-4 6l-14 74l-17 33v30l-14 32l-3 18l-3 3l-4 21l-9 19l-6 18
v15l-6 6l-16 52l-14 58v13l-5 9l-5 19l-6 11v25l12 12h64l9 3l9 -3h32l16 -17l4 -38l7 -9l4 -30l8 -16l4 -4l9 -23l-7 -7v-3h13v-18l-7 -9l13 5l8 -8h13l7 15l11 -15h10v14l-17 5l9 14l5 -9h6v9h-3v3l8 10l6 24l4 7l-4 11v13l5 4l5 14v10l3 8l4 32l11 11l16 7h75l11 -11
l8 -24v-9l3 -3l3 -11v-7l4 -7l6 -37l14 -9v-8h13l4 9h14l5 -22l-8 4v6h-9l-3 -6l-11 -4l5 -9l6 -6l3 -6l3 3h9v-18h12l10 -15v-6h2l4 -5l7 13l-5 4l-8 3v15h-15v15h22l5 10l12 6v6l-6 9h-6v7l9 8v19l-3 6l15 15l7 12v9l4 9l6 23l10 12h57zM252 134l-13 -12v-13l-7 7l7 15
l-3 6l-12 6v2h9l9 -2h14zM465 204v-6h5l-6 -17l8 -4v6l6 9v12h-13zM318 183l-5 -6l-3 3l3 3l-14 14l6 5l8 -10h5v-9zM489 335v-18l-11 -3v-3h11l7 9l-4 18zM224 274h-3v-8l9 5h5l5 11zM221 390h-13l3 3v7h10v-10zM205 204l-3 -9l6 -3l9 5zM496 403h-15v6h15v-6zM219 232
l5 -10h6v10h-11zM260 170l-3 -3l-8 6l3 4h8v-7zM484 213v-3l5 -3l5 4l-5 5zM187 351v-6h7v6h-7zM230 341v-6h6v6h-6zM492 381v-6h4v6h-4zM327 250h-6v-3h10zM214 247l4 -6l3 3l-3 3h-4zM214 210h-3v-3h7zM337 241v-3h6l-3 3h-3zM484 244v-6l2 3v6zM211 345v-7l3 10zM352 219
l3 -3v6zM233 323v-3l3 3v3zM68 305l3 -3l3 3h-6zM227 189h3l3 6zM349 228v-3h3v3h-3zM465 253v-3l4 3h-4zM472 167l3 -3v3h-3zM359 207h3v3zM197 320h3v3zM379 143l3 -3v3h-3z" />
    <glyph glyph-name="x" unicode="x" horiz-adv-x="438" 
d="M405 488v-2l-16 -31l-3 -9h-3l-3 -10l-7 -6v-7l-20 -32v-10l-13 -11l-8 -21l-13 -13v-13l-14 -7l5 -10h-12l-6 -10v-18l15 -8l3 -13l5 2h7l-12 -18l3 -6l22 -15l-7 -7h-3v-6l12 -11v-19l10 -3l-4 -3l4 -3l9 9v-12l-6 -7v-6l18 -9l-5 -9l9 -10l8 8h6v-10h-6l-9 -6l8 -4
l7 -15l3 -3v-11l11 -12l5 -16l9 -14v-24l-9 -5h-25l-30 -6l-43 3l-9 10l-3 6l-10 3l-6 14v7l-18 21h-9v15l-18 11l-7 11v3h10v8l-10 4l-15 16l-6 -6v17l3 3v13l-9 6l-3 -3h-18v8l12 4v10l-6 17h-13l5 10l-8 12l-12 12v10l-15 30v6h-7l-8 25l-10 8l-39 68l-6 6l-16 31l-18 24
l-9 28l-6 6v11l-4 9l10 10h18l12 6h96l26 -15l5 -19l25 -16l5 -10l6 6l8 -4v-15h16l9 -3l2 3l10 3v15l6 6l9 16v13l18 27l25 9h9l36 6l28 -6l20 -20zM142 146l18 -18v-42l-11 -30l-5 -4l-3 -25l-17 -18h-10l-3 3l-9 -9h-55l-13 13l6 18l10 5l6 19v8l47 79l14 13h21zM287 349
l-7 -19h-4v-10h5l7 16l9 8zM257 433v-5h7v5h-7zM252 412v-9h3l2 6l-2 3h-3zM257 397v-6l4 3zM298 323h6l-3 3zM301 259h3l-3 3v-3zM270 378h3l-3 3v-3zM121 146h3v3z" />
    <glyph glyph-name="y" unicode="y" horiz-adv-x="456" 
d="M444 492l-9 -17v-28l3 -3v-8l-12 -6v-10l3 -7l-6 -9l15 -4l-3 -15v-14l-15 -9l-9 3l-3 -16l9 -5v-14l-22 -17v-16h13v-6l-4 -3l-6 3l-9 -3v-6l6 -7v-12l-3 6h-6v-19l-10 -5l-3 -9l3 -16l4 -3v-4l-9 4h-6v-17l-9 -13v-18l-7 -4l-6 -12v-18l-9 -15v-19l-4 -13l4 -8h-9
l-7 -9l-4 -29l-7 -8l-3 -15l3 -3v-12h-11l-11 -22v-12l-22 -34v-6l7 -6l-10 -10h-8l-6 -8l-3 -12l-10 -16l-6 -3l-25 -24h-11l-31 15l-4 6h-12l-11 8l-22 7l-10 10l-3 12l13 12l9 15v5l9 4l40 55l3 10l3 3l3 9l19 30v16l8 18v18l3 13v18l6 10l-6 5v9l7 13v15l13 13l-5 13
l-5 -5l-13 -3l-9 7l-5 -10l3 -2h8v-10l-11 -6v-6l3 -3l-3 -3v-10l9 -4v-5l-23 -4l-17 -45l-10 -9l-14 15l-3 16l-8 15l-8 28l-6 28l-3 5l-19 61v8l-8 14v9l-19 40v21l-16 24l-9 28v10l-13 20l-8 38l-3 6l-7 26l16 16l24 4h49l6 3h35l11 -7l16 -31v-6l13 -49h12v-6l3 -5l9 5
l2 -5v-11l9 -5l10 -15l3 -10l-6 -6l-10 3l-6 -3l-2 3h-3l4 -9h20l6 6l3 6l13 -6l-10 -8l-9 -13v-3l6 3l3 -3l-3 -3l12 -4l7 7h-3l-3 3l3 7h11l9 -3l4 6v8l-7 6l3 3h11l14 44l3 15l7 9v12l9 24v10l8 22l25 9h19l22 3l20 -3h19l8 -7h7l6 -6v-25zM328 22h-10l3 9h16zM200 358
l8 -8l3 12zM230 334v-7h3l3 7h-6zM246 297v-3l3 3h-3z" />
    <glyph glyph-name="z" unicode="z" horiz-adv-x="424" 
d="M415 483l-9 -30l-13 -21v-9l-10 -10l-9 -21l-11 -13l-12 -24l-7 -6l-3 -9l-12 -13l-3 -9l-15 -30l-3 -16h-12l-10 -9v-11l-3 -3v-7l-9 -9v-6l-10 -13l-8 -14l-9 -22l-10 -15l-6 -21l-11 -12l-13 -31l-7 -7l-11 -24h-4l-3 -16l-18 -18l-10 -3v-15h-4l-8 -18l-18 -4l-15 -8
l-10 5h-39l-6 3h-22l-17 9l-7 32l3 11v19l13 24l5 3l15 25l8 19l11 6v12l12 8v3l13 19l5 10h3l16 23l4 9l11 5l3 11l4 3l6 12h4l10 15l3 13l10 9l3 10l19 36l6 19l5 3l13 33h6v9l3 25l12 27v13h27v15l13 5v3l9 16l22 22h6l14 5l38 -5h32l17 -12zM417 70l-6 -29l4 -10l-4 -25
l-11 -11l-40 -4h-104l-21 4l-7 -7l-19 3h-24l-6 13v20l10 13v12l11 3v10l13 18v6l3 11l7 -14l7 13l20 8h18l4 4l8 -4h16l20 -6h22l68 -7zM247 514l-6 -15l-7 -7v-11l-12 -25l-9 -12v-13h-13l-5 -5l-17 -7l-8 4h-64l-14 -4l-13 4h-20l-21 11v10l-3 3v34l4 10l-4 17l9 23l11 6
l24 -4h61l11 3h34l11 -3l23 4l23 -5l5 -5v-13z" />
    <glyph glyph-name="braceleft" unicode="{" horiz-adv-x="278" 
d="M269 732v-43l-15 -15l-15 -4l-5 -9h-15l-5 -14v-19h6v-13h-21l-4 14l-8 -7v-8l21 -5l-7 -3l13 -7v-4l-8 -4l-8 -15l-12 -4l-12 -16l7 -56l-3 -4v-24l-7 -25v-15l-6 -18v-6l-9 -10l-3 -15l-12 -12v-6l-15 -15v-18l20 -28l13 -34l3 -18l3 -6v-34l3 -4l-6 -17v-28l3 -13
l-6 -6l-4 -34l4 -18v-11l6 -3v-47l6 -2l10 -19l39 -28l6 -11l7 -7v-31l-10 -9h-9l-6 3h-40l-22 11v5h-11l-13 12l-18 21l-21 38v17l-5 14l-7 69v80l-4 14v19l-19 38l-35 28l-7 17v8l-3 10v19l-4 4l4 8l-3 3l10 20l15 7l11 3l7 10l17 13l17 32v58l-5 28l5 37v25l6 30v10
l11 45l7 9l13 26l21 17l6 3l10 10l20 5l7 7h21l6 3l3 -3l29 5l28 -14zM187 614l12 -16h-12v16zM178 582l3 -3h3v12zM201 640l-2 -3l2 -3h4v6h-4z" />
    <glyph glyph-name="bar" unicode="|" horiz-adv-x="141" 
d="M87 722l6 -12v-12l4 -4l-4 -12l3 -6l-3 -3l12 -12l14 -6l-7 -12l-7 -3l-9 -9v-129l3 -6v-33l3 -19v-91l-3 -9v-22l3 -11l-3 -107l-3 -6v-61l3 -9v-202l-3 -9v-24l-11 -12h-13l-6 3l-15 4v12l-10 4v19l3 7v24l-3 13v20l3 7v12h-3v12l3 7l-3 5v15l6 6l-9 4l5 5l-5 10v76
l4 11l-6 11l5 15l-3 9v21l-6 18v71l-3 39v204l6 67v40l-6 11l7 43l-4 7l3 12v9l5 5l-6 18l14 14h9l4 -4l14 4l12 -12v-37z" />
    <glyph glyph-name="braceright" unicode="}" horiz-adv-x="277" 
d="M184 683v-9h-9l-4 -3l13 -6l-4 -14l10 -4h6l12 -6v-22l-3 -3l-6 -17l6 -7l12 9h3l-9 -27l-11 -8l20 -20v-14l-19 -4l-11 -15l9 -3h12v-7l-9 -3l9 -12l9 -2v-6l-9 -10v-9l-9 -9v-22h9l3 6l6 -10l-11 -5l8 -9l3 -6l25 -12l9 -10l15 -27v-15l5 -22l-13 -21l-22 -15v-13h-19
l-9 -12l-12 -27v-36h6v-3l-6 -6l7 -65l5 -9l-6 -6l3 -13v-30l3 -9l-9 -9v-18l-6 -12l-3 -10l-12 -18v-6l-29 -32l-23 -8h-12l-7 -6l-21 3l-12 -8l-12 8l-3 6l-6 -3l-6 5l6 11v7l15 5l9 9l15 3v9h6l5 -5l4 17l10 16l12 35v34l4 8l-4 23l-3 40v24l-6 47l6 29l3 3l6 25l13 14
l11 28l-3 10v12l-12 13l-3 8l-17 17l-17 50v19l-3 6l-3 46v33l-6 18v16l-16 50l-33 32l-18 6l-12 12l-12 25l9 37l21 9l39 -7l10 -6l22 -5l29 -17l12 -24l18 -10l11 11zM223 574l-3 -6l-4 15h7v-9zM193 486v-3l6 -7v10h-6zM196 534h6l3 3l-3 4zM193 622l7 5l-4 5z" />
    <glyph glyph-name="asciitilde" unicode="~" horiz-adv-x="511" 
d="M477 394l-3 -10v-9l-16 -30l-9 -12l-4 -9l-20 -7l-11 -10l-69 -5l-10 -3l-36 7l-3 3l-18 3l-16 5l-21 3l-45 16h-22l3 6l-22 -3l-23 -14l-7 -16l-15 -16h-10l-8 -4l-19 10h-6l-28 17v20l5 10l5 22l18 30l31 21l67 11l9 -2h36l13 -6h15l37 -19l15 -5l16 -10h6l8 -4l10 -3
h51l7 10l6 3l3 9l6 9v7l10 9h6l14 4l40 -19z" />
    <glyph glyph-name="uni00A0" unicode="&#xa0;" horiz-adv-x="420" 
 />
    <glyph glyph-name="exclamdown" unicode="&#xa1;" horiz-adv-x="215" 
d="M144 311v-28l9 -19l15 -13l-11 -6l12 -8v-18l3 -3l6 12h6l7 -9l-10 -10l-5 5l-7 -11l9 -14l-6 -7l-9 -3v-3h7l-4 -18l12 6l10 -3l-11 -5l4 -5v-17l-6 -6v-10l-5 -20l9 -5l15 28l-6 13h12v-19l-3 -3l3 -7l-9 -5l-3 -6h-4l-3 -4l-12 -3v-14l-3 -12v-13h15v-9l-9 -9v-6
l-8 -15h8v-3l-3 -3v-13l3 -6l3 -14l4 -8l-5 -10l4 -29l-12 -27h-9l4 5l-22 -8l-14 4l-11 -4h-22l-11 -3h-31l-12 12v10l-7 11v116l4 28v18l3 18l-3 6l-4 22l4 12l-4 31l4 35l6 22v22l6 17l3 49l3 9v16l6 6v10l22 8h36l19 -18zM166 536v-50l-6 -5v-15l-13 -13l-27 -9l7 -6
h-10l-6 6h-71l-9 12l-11 6v13l-3 6v30l3 28l11 19l10 5l37 6h58l18 -11zM197 -7h-6v16h6v-16zM200 79l-3 -3h-9v3l9 6zM160 195h3l-3 3v-3z" />
    <glyph glyph-name="cent" unicode="&#xa2;" horiz-adv-x="425" 
d="M395 540l3 -3v-6l16 -31v-25l-19 -11l-29 -4l-18 -6l-19 4l-15 9l-13 24v6l-3 3l-13 -6v-18h-6l-3 3h-9l-6 -3v3l-6 3l-20 -12h-5l4 6l-4 6h-3v-9h-6l-9 -3v-3l16 -13h-19l-7 -3l4 -15l-6 -3l-9 -9l-12 8v-5l3 -6l-8 -4l-8 -11h-9v-3l6 -4v-3l-19 -9h-15l19 -15l-4 -11
l4 -7l-5 -5l9 -9l-8 -14l7 -6h12v-12h-6v6h-9v-21l6 -7v-5l15 -4v-9h3l3 3l10 3l12 -12l3 -6l2 2h10l9 -8h9l17 -11l8 8v9l24 5v4h-4l4 12h6l5 -15l5 9v3l6 9l4 17l18 18l39 -4l11 -6h19l16 -15v-22l3 -3v-6l-13 -15v-16l-12 -12l-13 -6l-14 -13l-9 -5l-10 -9h-25l-8 -5
l-9 5h-10l-4 14l-14 7h-13v-9l13 -6v-12l4 -9l-7 -7l-6 13l5 5l-7 12l-10 -11v-19l3 -6v-9l-6 -6v-15l4 -5l-7 -29l-9 -12l-19 -6l-24 4l-12 11v61l-8 15h-5l-12 12l-21 4l-6 -3l-6 12l-31 9l-18 12l-38 38l-14 48v137l3 12v9l6 31l12 24l6 19l34 33l18 10l40 15l3 9l6 6
l15 -5v5l-3 6l-3 18l10 6l5 10h5l14 9l3 -3l12 3l8 24l7 3l6 -3h14l5 -9v-6l6 -15l12 -6l-3 -16h-4v-10l13 -7l29 17h5v-9l6 -3l5 -6l8 7l11 -19l-12 -15h15l13 -6l3 -4h3l9 -6l5 5l10 -8v-9l9 -6l3 6zM267 228h-15l9 -9h9v9l6 7v9l-3 3zM172 335l-6 -9h-6l-3 6l-3 3l9 3
l6 6h3v-9zM234 256l-7 2v4l13 3l3 -3zM276 622v-6h-9v6l6 6zM290 519l-5 -10h3l4 3h3l3 7h-8zM188 641v-6h6v6h-6zM282 244v-9h3v9h-3zM246 488l-3 -3h6v9zM310 583v-6l5 3l-2 3h-3zM310 595l5 3v3zM139 409v-3h3v3h-3z" />
    <glyph glyph-name="sterling" unicode="&#xa3;" horiz-adv-x="478" 
d="M431 596l9 -9l11 -25l-5 -26l-51 -26h-13l-11 6h-16v8l-12 6v-11l-19 -6l3 -3h-9l-3 -3l11 -4l8 4l3 -16h-6v4l-4 3l-10 -7l-4 -20h-6l-7 -7l-5 -13l9 4v-6l-11 -5l4 -4h37l6 -7l3 -8l3 -3v-31l-6 -13l-13 -8h-17l-6 2h-13l-6 6h-6l-7 -6h-6v16h-9l-10 -11l8 -7h5v-9
l-11 -3v-10l-12 -6l-7 -33l-3 -3v-31l-10 -30l4 -4l-7 -28v-36l-3 -12v-27l19 8h25l8 -5h28l22 -6l34 7l18 13l6 15l27 4l13 5l27 -5l15 -20v-54l-3 -3l4 -8l-7 -22v-6l-13 -19l-24 -24l-25 -6h-12l-21 -6l-64 3h-61l-16 6l-11 7h-22l-6 -7h-25l-5 -3h-34l-50 -4l-21 4
l-15 16l-9 17l-5 18l8 23l13 8l6 11l11 8l16 18v7l6 11v25l9 27l9 17l6 36l6 11l6 19l4 22l6 17v35l-10 9l-12 14v32l9 12l13 5h7l20 26l6 21v18l8 7l16 49l30 46l38 25l35 12l39 8h55l36 -13l22 -21zM272 443v-10l-9 -17v-13l8 4l8 -7h6v22h-9v8l6 6v7h-10zM313 546l-3 -3
l11 -11v14h-8zM252 403l-5 -4l5 -5l3 3v16zM291 474v-6l9 3l-3 3h-6zM266 471l-3 -3l6 -4v7h-3zM260 428l3 -3v3h-3zM297 480h3l-3 3v-3z" />
    <glyph glyph-name="yen" unicode="&#xa5;" horiz-adv-x="545" 
d="M515 678l-9 -18l-8 -31l-12 -23l4 -7v-15l-12 3l-9 -22v-9l6 -3l-3 -3h-11l-4 -9v-9h-7l-7 -20l4 -5h10v-3l-16 -6l-9 -10l12 -5v-6l-6 -6v-10l7 -3l-13 -9v-9l-5 -7h-13v-17l10 -13v-9l-13 -13v-17l5 9l8 -3v-3l-7 -3v-10l-11 -10l5 -5l5 5l4 -5v-13l18 -3h25l9 -9v-11
l3 -4l5 -19l-8 -15l-6 -3l-3 -5l-12 -12l-10 6h-31l-18 -12v-7l-3 -3l-3 9l-6 7l-6 -4l3 -3v-6l9 -9l-3 -3v-10h6v13h13l3 -6l7 -4l7 14l10 5l9 -19l16 -6h15l13 -12l-3 -12v-35l-22 -10h-68l-3 -3l4 -8l-4 -8l-6 12h-24v-12l4 -9l-14 -9l7 -4h12v-3l-6 -6v-18h-9l-3 3v-9
l6 -3v-3l3 -3l-9 -10v-19l-10 -5l-3 -6l-12 -6l-24 3l-12 4l-4 -4h-54l-13 6l-3 12l-6 6v71l-9 9h-3l-3 3l6 6l-3 14l-9 4h-55l-25 6h-6l-9 6l-15 4v28l29 12h58l6 16l-5 5l6 3l-3 6l-6 3l-8 13h11l3 -4l9 5l-9 8h-33l-39 -6l-24 10l-11 15v17l14 26l41 4h34l6 6h6l9 10l4 9
l-4 6l-3 13v8l-9 9l-6 13v14l-12 6l-6 22l-6 7l-3 9l-16 31v8l-8 13l-4 12l-19 34l-8 24l-6 7v12l-13 16v10l-11 17l-6 17l-5 5l-8 20v13l18 6h28l9 3h11l15 4l7 -4l16 6h30l29 -29l11 -29l3 -15l3 -4l3 7v9l6 -3l3 -6l14 -14l-6 -6l6 -12l13 8l5 -5l-4 -20h-12l3 -6l15 -10
l6 -6l14 -5l10 -19v-9l13 -13h6l9 4l17 -8l29 35v12l6 16l9 18l21 61l13 18l4 14l11 11h10l5 6h6l10 -5l6 5h24l7 -3l8 5l25 -13v-17zM191 245l-6 6h-6v-6l-6 -7v-9h6l-3 -6l3 -6h12l12 8l-4 5l-8 -4l-3 9l6 3l6 -3l6 6zM405 406l-7 -13l13 4h6v3l-6 6h-6zM246 220h12v6
l-4 5zM362 232l-3 -3l5 -5l5 8h-7zM408 330l3 -4l3 4v6zM298 513v-3l3 -3l3 3v3h-6zM286 501v-6l6 6h-6zM203 204l9 -3l3 3h-12zM377 351v-3l3 3h-3zM234 220h3l-3 3v-3z" />
    <glyph glyph-name="copyright" unicode="&#xa9;" horiz-adv-x="756" 
d="M366 698l-19 -10h-33l-28 -9l-49 -19l-3 -3l-13 -5l-36 -25l-19 -19l-6 -3l-30 -27l-12 -15l-3 -13l-24 -29l-5 -13v-16l-20 -58v-12l-3 -15v-25l-7 -11v-68l13 -37v-9l-4 -4l7 -14v-3l9 -10l3 -12l15 -15l6 -15l38 -41l2 -5l18 -9l31 -28l6 -3l15 -12l16 -6l36 -22
l61 -22l7 -6h14l5 -14l-10 -10h-28l-7 -4l-8 4h-15l-19 9h-9l-30 13l-13 2l-12 9h-12l-18 19h-10l-20 19l-4 6l-14 8l-4 10l-16 15l-3 6l-9 10l-3 9l-12 12l-3 9l-16 31l-3 15l-9 9l-9 25v6l-7 11l-5 35l-6 18v89l11 61l25 56l75 97l22 23l48 30l19 6l17 17h12l9 7l15 6h10
l6 6h16l13 8h42l6 -5v-15zM650 608l6 -11l18 -19l6 -18l7 -4l3 -6l6 -6l16 -24v-9l5 -6l9 -19l13 -33v-19l6 -12v-18l3 -13v-64l-3 -15v-12l-10 -37l-9 -15v-19l-21 -33l-7 -15l-14 -19l-7 -3l-9 -18l-12 -12l-21 -25l-7 -3l-8 -16l-32 -19l-11 -11l-37 -19l-41 -16l-29 -5
h-13l-6 -9l-16 -1v7l-6 -3h-5v3h-6l-3 3l7 14l7 4l6 -3l25 9l19 3l11 7h16l8 7l14 5h15l24 25l24 13l9 11l7 3l18 16l8 11l17 10l3 15l8 4l7 15l12 12v8l4 7l21 52v12l7 13v21l5 24v68l-12 52l-12 31v8l-19 37v7l-9 4l-3 10l-9 10l-3 6l-12 12v6l-27 14l-7 13l-14 5l-29 23
l-12 4l-9 6h-3l-17 10l-20 4l-75 23l-7 27l12 12l15 -3h18l27 -9l16 -3l39 -19l25 -18h8l32 -24zM366 501v-9l3 -11l-11 -33l5 -5v-6h-7l-7 -8l5 -4l-9 -19l6 -17l-13 -7v-9h12l6 -2l-3 -4v-12l-9 -6l-3 15h-3v-15l3 -16l-6 -12l3 -6l9 4v-16h-6v-18l12 -16l3 -12l7 -18v-35
l-13 -5l-10 -10l-37 9l-26 16l-15 20l-13 41v151l7 11v22l11 25l28 27l47 12l18 -9zM512 251l-9 -19l-6 -6l-3 -12l-28 -18h-9l-9 -6h-30v6l-9 4l-5 41l23 25v12l4 5l4 14l10 9h40l27 -11v-44zM375 269l-6 -6l-3 3l3 9l-3 6v7h5zM380 361l10 -6l-16 -6l-3 3l3 3l1 12l2 4z
M387 404l-4 -3l-3 12l-6 -6l5 -9l-6 -13h-4l-4 4l5 11l-7 7l6 3l-6 9v7l8 3l16 -11v-14zM503 476v-8l10 -10l7 -32l-12 -17l-14 -5h-9l-25 -6l-15 3l-10 9h-6v30l-10 11l-8 26l4 18l9 19h3l3 4l27 -4l16 -6l3 -7l12 -4zM97 410l-7 17l9 4l3 -2zM399 431h-6l-6 6h12v-6z
M141 496l-5 -4v-6h-6l-9 -8l-10 3h-6v4l25 7v9h-3l-3 4l-9 4v5l-4 3h18zM148 511l-9 9l-9 3v18l18 5v-35zM173 553h-10v16l10 -9v-7z" />
    <glyph glyph-name="ordfeminine" unicode="&#xaa;" horiz-adv-x="304" 
d="M267 633l6 -16l6 -39l10 -19l3 3h3v-15l3 -12l-3 -6v-6l-3 -3l-6 -21l-9 -10l12 -3l-7 -12l-6 -3v-6l6 -6v-22l-12 -24l-3 -19l3 -3v-15l-15 -12h-28l-18 6h-15l-36 6l-4 12v34h-3l-7 7l4 2h15v6l-30 6l-6 9l-3 10h-7v-13l13 -24l9 -9l5 -19v-21l-11 -12l-16 -6h-24
l-40 13l-15 20l-9 16v9l-9 39v19l3 6v24l8 28l7 6l7 15h8l18 18l15 4h7l6 7l-13 8h-5l-3 3l-12 3l-7 6h-12l-12 9l-7 22l7 15l4 12h6l15 22l26 6l4 3h18l15 3l25 -12h15l18 8l34 -8l31 -21zM142 630l-4 -12l-8 -4v-8l9 -4l-9 -9v-6l9 3l4 10l11 -5l-4 21l5 9l-6 12zM111 600
l-10 -11l4 -8l9 12v7h-3zM130 483v-9h9v9h-9zM121 489v-6h3v6h-3zM144 648l-2 -3h6zM121 575l3 -3v6z" />
    <glyph glyph-name="guillemotleft" unicode="&#xab;" horiz-adv-x="436" 
d="M381 174v-23l-10 -6l-17 13l-3 7l-13 6l-15 15l-12 7l-21 21l-13 6l-12 12l-18 13l-12 12l-19 12l-6 15v22l23 10l26 -26l10 -5l8 -16l19 -12l9 -9l12 -6l25 -25l17 -12zM192 190v-25l-8 -8l-14 14l-12 6l-6 6l-12 7l-6 11l-16 6l-9 10l-9 6l-15 15l-12 7l-19 17l-10 5
l-15 20v20l9 5h13l18 -11l4 -11h9l27 -28l12 -5l37 -37l9 -6l6 -10l15 -6zM405 419l-6 -29l-29 -29l-19 -9l-6 -7l-39 -26l-27 -5l-18 9l-9 18l7 8v10l17 9l38 29l14 14l14 5l15 15l23 11l17 -5zM219 437v-33l-6 -13l-18 -19l-12 -5l-7 -6l-51 -34h-7l-6 -7h-28l-11 19v16
l14 15l13 6l12 12l25 19l15 15l24 12l11 11l17 6l11 -6z" />
    <glyph glyph-name="registered" unicode="&#xae;" horiz-adv-x="690" 
d="M592 612l7 -6v-6h4l16 -25l7 -21l9 -10v-8l12 -25v-9l4 -10l8 -33v-71l-2 -27l-14 -37l-36 -55l-12 -12l-8 -13l-23 -14l-18 -22l-9 -9l-3 -6l-23 -14l-14 -14h-10l-11 -6l-16 -5l-15 -11l-16 -2l-11 -6h-41l-7 4l-5 12l5 15l23 12l12 12l-7 4l-8 11l-6 3l8 8l4 -8h13
v-15h12v7l8 5l8 11l-10 -5l-6 -6l-16 15v10h-8l8 12l-3 9l-21 16l-24 57v6l-11 16l9 32l-8 7l-11 4l8 9v15l9 10l7 24l20 21l4 21l-7 13l-8 9l-9 16v6l-4 8l4 26l11 12h28l30 -21l16 -25l6 -19v-12l3 -13v-36l-10 -23l-29 -37l-3 -22l6 -16l6 -9l3 -9l9 -10l9 -14v-7h12v-9
l14 -14l10 10l14 -7l5 5h16l9 -3v-13h21l11 22h7v-3l-6 -6v-31h-12l-6 -3h-6v-14l28 13l9 16v9l6 10l6 3l21 28l13 49l9 49v55l-13 36l-3 16l-9 9l-9 18l-55 55l-64 46l-25 12l-12 9h-9l-51 14l-10 11v12l8 9h41l9 -9l4 4l17 -4l35 -11l26 -13l5 -5l17 -6l21 -14l15 -15
l17 -11zM315 706l-5 -24h-12l-25 -6l-6 -6l-3 3l-6 -3h-12l-9 -9l5 -4l-5 -5l-9 -3l-3 -9l-7 3v-6l4 -6l6 3l6 -7v-12h-3l-4 -12l-19 6l-8 -12h-5l-13 12v-9l11 -11l-9 -5l-11 4l-7 -3h-6l-9 -3l-6 3l7 8l-4 4v5h-5l-7 -14h3v-3l-3 -3l-6 6l-9 -9v-11l-10 -5h-9v-16l-15 -14
l-15 -28v-13l-9 -21l-4 -60l10 -40l21 -56l18 -27l3 -7l43 -42l6 -9l19 -10l43 -28l51 -18l38 -10l6 -20l-9 -9h-41l-42 8l-7 3h-9l-59 26l-5 6l-21 15l-5 10l-17 8l-24 31l-9 18l-19 31l-8 8l-16 52l-7 54l4 8l-3 7v42l18 74l14 33l32 46l40 40l42 28l64 28l63 13l17 -6z
M322 557v-24l-12 -20l-8 -37l6 -11l14 -15v-10l13 -15v-12l-6 -12v-16l-4 -3l-6 -11l-8 -10v-34l-4 -13l4 -8l-3 -12v-13l-8 -19l-17 -8h-25l-16 5l-8 16v132l3 19v131l3 3v12l8 8l13 5h37l4 -3l13 -4zM264 644l-11 -4l8 -6l-8 -7l-3 -6l-4 6l-8 8l12 8l6 12h8v-11zM200 634
h-2v-10l5 -6h6l13 -3v9l-14 7l4 9v6zM487 239v5l-13 -8l13 -3v-3l7 3v12zM418 248v-6l3 -3l3 3v6h-6zM182 637l5 -5l4 5l-3 3zM519 230v-7l9 7h-9zM195 612v-6h5v6h-5zM415 230l-3 -4h6v4h-3zM439 242h6v6zM160 597l3 5l-3 4v-9zM460 272v-6l4 3zM166 600l7 -3v3h-7z
M482 278v-6l3 9zM215 652l-3 -3h3l3 3h-3zM160 618l3 -6v6h-3zM470 260v-3l3 3h-3zM350 401h3v3z" />
    <glyph glyph-name="degree" unicode="&#xb0;" horiz-adv-x="325" 
d="M276 694l11 -6l14 -33v-16l3 -6v-49l-6 -18l-10 -22l-15 -15l-6 -11l-24 -17l-25 -9h-29l-14 20v17l7 6l19 23l19 65l-8 16l-3 24l-12 6l-22 18v4h-15l-30 -31l-9 -27l-9 -21l5 -10l4 -32l12 -17l24 -24v-6l-3 -6v-16l-22 -11l-24 5l-25 11l-11 11l-8 4l-5 8l-20 20
l-16 45l-3 43l6 26l15 34l25 24l42 22h36l18 -9l23 9h24l9 -6h9l25 -13l21 -21zM152 620l-5 13l7 9h6zM175 648v-9h-9v3l3 3l3 7z" />
    <glyph glyph-name="periodcentered" unicode="&#xb7;" horiz-adv-x="234" 
d="M182 367v-16l4 -23l-9 -26l-23 -12h-12l-6 -3h-16l-4 4l-8 -4h-33l-22 22v27l3 9l-5 9l9 17l-6 6l11 17l13 6l36 4l7 -7l33 5l21 -11z" />
    <glyph glyph-name="ordmasculine" unicode="&#xba;" horiz-adv-x="325" 
d="M293 589l3 -6v-25l3 -6l-3 -9l-4 -24h10v-9l-13 -19v-49l-10 -29l-31 -38l-26 -5h-24l-15 15v31l9 9v3h-15l4 8l-7 3l-8 -7l4 -7l-7 -7l-8 4v-6l6 -12l-7 -27l-8 -7h-24l-6 2h-14l-32 27l-3 17l-6 3l-6 9l-13 44v56l-5 37l5 36v11l13 29l13 20l14 7h4l8 9l18 4l14 6
l28 -4l13 -18v-6l7 -5l3 3v5l18 19h24l13 -7l18 -6l29 -28zM186 623l-12 -7v-36h-7l-9 6v3h-3v-24l-6 -7l-6 -17l8 -4l5 -10l5 11l6 5v3l-6 -3v3l-3 3v16h9l19 21v13l9 11v8zM190 572l-16 -23l8 4l10 -18l15 -7v3l-7 8l12 12l-12 6v8zM149 522h9v-12h9v6l7 6l-4 7zM161 474
v-4l3 -3v-6l-9 -9l3 -3l6 3l7 14l-7 8h-3zM166 640l5 -17l6 7l-5 16zM134 522v-12h12l-4 12h-8zM189 470l-3 7v-13h9l5 5l-5 5zM143 599l6 -6h3v8l3 3v6zM126 543l8 -8h3v6l-3 5zM144 449l-4 -10l14 5zM192 449v-7h6l2 7h-8zM146 488v-5l6 3l-3 2h-3zM134 474v-4h3v4h-3z
M192 546l3 3h5zM134 571l3 -3v6zM192 593v-4l3 4h-3z" />
    <glyph glyph-name="guillemotright" unicode="&#xbb;" horiz-adv-x="436" 
d="M386 317v-17l-10 -24l-31 -9l-8 -10v-15l-27 -28l-12 -7l-13 -14l-6 -3l-16 -16l-8 -3l-12 -12l-33 -18h-13v5l-6 6h-5l-5 10v34l10 19l20 14l33 28l26 12l14 14l23 4l3 4h12l-59 48l-6 3l-14 16l-19 9l-29 29l-5 30l4 20h6l7 4l17 -4l12 -9l13 -6l11 -12l19 -9l15 -16
l13 -6l7 -8l53 -36zM202 286l-8 -14l-44 -5l6 -17l-13 -20l-14 -7l-15 -16l-19 -8l-14 -12l-42 -31h-13l-4 3l-4 -2l-8 8v34l9 8l12 7l3 6l11 3l9 14l32 22l18 19l25 3l10 10l-38 42l-13 7l-16 21h-7l-4 8l-15 10l-9 9l-14 10l-7 19l4 21l28 -6l23 -22l19 -7l52 -36l8 -9h6
l16 -16h9l21 -21v-35zM142 287l2 -3v3h-2zM19 156h-3l2 1z" />
    <glyph glyph-name="questiondown" unicode="&#xbf;" horiz-adv-x="451" 
d="M324 323l-6 -5l6 -5v-16h-3l-3 -9l3 -10l-3 -15v-19l-14 -24v-14l-12 -5l-7 -14l-13 -6l-4 -13l-11 -6l-21 -21h-12l-13 -12h-9v-12l-5 -7l-8 4l-8 -4h-6l-12 -18l-7 -15h19l3 -3l-3 -6v-16h-9v10h-10l-8 -13l5 -6l7 -4l-9 -21l8 -8v-6l7 -7l14 -3l6 -18h16l3 -6l25 -17
l-3 -17v-19l-3 -3v-11h5l-9 -38l-15 -14h-36l-25 6l-15 2l-12 7l-23 7l-38 30l-19 24l-8 18l-13 20l-6 32v86l19 61l2 3v4l12 17l6 13l35 33l30 16l9 9l19 9l28 19l35 43v5l6 15v10l16 15h6l24 8l56 -6zM450 13l-9 -19l-4 -22l-8 -17l-6 -6l-6 -13l-10 -12v-7l-9 -8l-14 -3
l-11 -17l-14 -8l-10 -3l-3 -6l-19 -6l-22 -9h-42l-14 23v26l-4 24l15 30l35 13l29 31l5 18l5 9l7 38l8 8h16l11 -3h16l41 -14l17 -17v-30zM368 536l-12 -8l-4 -8l-15 -18h11l4 9l10 3h6v-6l-9 -16l-4 -3h7v-3l-10 -2l3 -13h-17l-8 -24l-12 -4l-14 -11v11h-13l-6 -6l-13 6
h-12l-5 4h-19l-17 10l-9 18l4 53l19 24l12 4h21l41 4l17 -4h16l-3 -6l6 -8h22z" />
    <glyph glyph-name="Agrave" unicode="&#xc0;" horiz-adv-x="513" 
d="M312 679l7 -8l5 -19l9 -24v-14l9 -9l7 -12l6 -6l16 -27l-10 -16l3 -6v-12l6 -6v-22l6 -21l15 -10v-15l-6 -6l6 -6l3 -30h6v-3l-7 -8l15 -15l-4 -8l6 -6l-7 -14l8 -12l-5 -10l10 -10l-5 -28l11 7l6 -6l-6 -3l5 -10h-8l-3 10l-4 -4l4 -24l18 9v-8l-12 -5l7 -18l13 -10
l-5 -11v-12l6 -7l9 -33l10 -20l9 5v-15l-5 -10l14 -18v-19l6 -17v-13l9 -18v-29l-9 -5h-12l-34 -8l-86 6l-13 13l-5 23l-8 15l-4 27l-3 6l-11 47l-10 5l-6 -3l-5 5l5 5v12h9v9l4 8l-10 5l-13 12h-6l-3 2l9 5v11l3 3v19h-6l-6 6l-6 -3l8 -4l-8 -9l6 -12l-18 -7l-3 7l-3 -3
l5 -15h16v-6l-3 -3v-9l-12 -7l-3 -6l-9 -3l-3 -3l-19 -3l-3 -6h-12l-9 6h-12l-6 -6v-12l4 -8l-4 -4v-8l-13 -6v7l6 7v9l-9 5l-3 16l-19 -18v-3h10v-9h-14l-4 -19l-6 -12l3 -7v-11l-4 -8l4 -5v-3h-3l-7 -6l-3 -29l-12 -20l-19 -6h-17l-7 -3h-48l-17 17l26 112l11 30v12l8 39
l5 10v22l9 17v19l6 19l5 37l11 27v9l6 24l2 16l13 52l3 3l6 21l3 21l16 55l6 13l8 9l3 9l-3 5l5 5l11 -10l6 -12l3 -12l9 -13v-18l7 -6l4 -8l10 10l-10 9l10 8l10 -9v-4h3l6 6v6l-9 3l6 13l-3 27l3 17l-6 17l-4 45l-3 7v16l16 5h6l17 9l43 5l23 -23zM336 815l-12 -18l-12 -9
l-11 6l-5 -10l-7 14h-8l-14 4l-14 -15l-5 11v6l-25 12l-6 7l-15 5l-3 6h-9l-7 7l-9 -4h-6v10l-7 6l4 18l12 23l24 -8h14l27 -8l9 -7h11l51 -13l8 -8l15 -8v-27zM234 352l-14 9h-6v-16h-6v-9h-12l-6 9h-5l8 -15l-3 -3v-16l-9 -5l-9 -17l7 -6l17 11l3 -4l-6 -3l-6 -9v-9l6 3
h11l27 -15l17 9l3 -4h8v-11h13l3 3l-3 5v10l7 14l-5 5l-5 -10l-3 12l-4 4l4 9l8 9l-10 26l-14 -7l6 11h10l-5 10h-27zM226 297l6 -3v-7l-6 -6l-3 6h-3l-6 7h-6l3 9h-10l-6 8l5 5l5 -5l21 -8v-6zM208 371v8l-18 -8v-7l5 -5l29 12l-4 5zM257 308l-3 4h-6v15h9l7 -7zM196 492
v-15h12l-4 15h-8zM229 385v-6l14 -7l-7 20zM203 431l-4 -15h2l7 9v6h-5zM242 327l-11 -5l5 8l-4 3l5 4zM190 514v-7h9v7h-9zM248 297l-6 -3v15h3zM232 404l-4 -5l4 -5l7 10h-7zM220 437v-6h6v6h-6zM287 153h-6v6h6v-6zM336 657h-6v6h6v-6zM361 562l-3 -3l3 -3l3 6h-3z
M214 446v-3l3 -3v6h-3zM204 532v-3h4v3h-4zM251 367v-3h3v3h-3z" />
    <glyph glyph-name="Aacute" unicode="&#xc1;" horiz-adv-x="513" 
d="M379 651l-17 -6l9 -8v-10l-3 -9v-9l-4 -7v-5h4l3 9l12 -4l-6 -22l8 -8v-6l-8 -9l14 -4l-10 -10l4 -10v-7l12 -16l-8 -7l9 -5l3 -9l-5 -9l5 -5l-3 -7v-6l6 3l4 8l5 -5v-12l-6 -6h-12v-7h3l12 -20v-10l3 -3h-12l-6 -6v-8l9 5h9l4 -8l-16 -8v-6l6 -6h6l4 -18h-7l-6 -3l3 -9
l6 6h7v-25h-13l-3 -6l12 -12l-8 -12h8l15 -9v-13l3 -9h9v-3h4l3 -6l-27 -3l-3 -3h9v-12h8l9 -5l-15 -5v-3h6l3 -3h11l-10 -29l12 -17v-21l6 -12h6v-34l6 -13v-27l7 -6l3 -9l3 -3v-6l-13 -13h-12l-11 -2l-57 2l-42 6l-6 7l3 6h-5l-11 28v21l-9 21l4 5l-7 14v40h-12v6l4 7
l-4 10v16l-7 18l7 7l-19 22l-9 -4l-3 -6h-6v3l5 5l-14 5l-3 -13l-6 -3l3 -9l6 -6v-13l6 3v-3l3 3v13h6l3 -22l-3 -6h-9l-6 6l-3 -16v-11l-15 -3l-13 -6h-21l-12 -3h-18l-7 -7l-21 -3l3 -6v-16l-7 13h-5v-16l5 -5v-6h-11l-6 -16v-12l-5 -5l-8 -25l-12 -25l-16 -10h-14l-27 -5
l-37 8l-12 12l14 78v9l10 37l8 18v15l9 28v9l13 37l3 3v9l36 119l17 41l5 21l10 30l12 18v18l8 19v18l13 24l6 7v9h13l13 -19l11 -49v-9h6l15 6l-3 3h-6v6l15 5v5l-3 6v19l-6 18v64l-4 13l8 18l36 3l9 3h31l9 4l25 -12l5 -10v-7l7 -6l3 -6l6 6l9 -6v-19h18v-6zM361 869
l12 -28v-24l-15 -15l-6 -3l-3 -7l-9 3l-10 -3l-42 3l-10 -3l-42 -3h-37l-14 14l-6 18l6 10l51 26h12l15 15h9l11 11l32 10h20l18 -11zM233 297h-10l-6 -3l9 -9l-3 -7h3l7 7l12 -7l3 -9l3 9l3 -6l7 11l-13 5l-3 12h-3v3zM251 401l-4 -9l-11 -4l-3 -6h-4l-6 -6l3 -3h3v-2h4
l6 5l15 4l3 18zM214 327v-12l5 -5l4 3h10l6 5l-6 6v6l-4 3v3zM263 346v-10l-4 -3l4 -12l-3 -3v-5h15v5l-7 7l6 16l-8 8zM465 178v-7h10l6 -6v-6l-3 -3l-7 6h-12v16l-3 6l5 4l7 -7zM201 156l-2 -3h-15l-12 -4l-4 4l19 9l4 -4l8 4zM193 333l-4 -4l4 -11h8v15h-8zM260 275l6 -3
l3 -3h8l-6 12zM440 306h-6l-5 7l3 3l8 -3v-7zM263 294l-3 -3h15v3h-12zM220 364v-6h6v6h-6zM285 269l10 -5l-4 8zM199 297v-6h6l-4 6h-2zM420 278v-6l6 6h-6zM281 318v-3h4v3h-4zM260 364h3v7zM285 291v-6l3 6h-3zM220 398l6 -3v3h-6zM208 309l3 -3v3h-3zM242 456h3v3z" />
    <glyph glyph-name="Acircumflex" unicode="&#xc2;" horiz-adv-x="513" 
d="M340 850l9 -9l4 -10l20 -25v-8l-8 -22h-6l-22 -20l-6 -10l-8 4l-5 -4l3 -3v-22l-8 -8v-22h5v10h10v-7l-13 -12h19l6 -9l-6 -7l-6 3v-9h21v-11l22 -22v-22l-12 -5l3 -3l-3 -3l4 -5l8 5h9l3 -10l-13 -7l12 -25l-6 -5h-3l-2 -3l9 -18v-12l-12 -3l3 -7h12l6 -12l8 -7l-6 -6
l5 -26l-10 -14l9 -8v-41l16 -20l-5 -17l17 -23v-24l6 -12l8 -5l4 -20v-10l6 -5v-6l-5 -5l10 -20h8l3 -3l-7 -6v-10l13 -5l-3 -9l6 -6v-10h-7l4 -15l9 -10l-4 -10l4 -4v-24l9 -14v-17l6 -7v-12l3 -12v-24l-6 -7v-9h-58l-18 6l-3 -3h-35l-18 3l-9 13v14l-9 14v21l-6 6l-3 33
l-10 9l-6 3v13l-2 5v16l-9 9v19l-3 17l-3 -3l-4 -9l-9 4l5 10l-17 -5l3 -3l-3 -2h-21v-12l10 -12l-7 -4l-6 3l-10 -9l-3 -6h-3l-12 -7l-5 10h-14l-11 -12l-17 12l-16 -4l-5 -9h-7l-4 -27l-4 -12h12l-3 6l13 9l6 -12l-16 -8v-8l-11 -3l-3 -6h-5l-8 -15l-6 -6v-15l4 -9l-6 -6
l-5 -19l-18 -9h-24l-13 -4l-36 4l-6 6l-3 22l9 60l7 28l3 3l3 49l8 16l-3 6l6 12l6 34l4 6l6 24h3v19l12 36l5 25l7 24l3 25l18 77l4 8l3 18l6 19v9l12 24v22l8 28l4 5v10l6 6h11l5 -9l3 -13l19 -33l9 5v20l3 8l-6 19v19l-5 14l5 16v17l21 11h24v10l13 4l5 10h13l6 6v9h-14
l-5 -9l-23 -12l-16 12v15h-5l-5 10l7 6v14h-9l-4 -11l-5 -9l-9 9h-28l-18 8l-10 7l-8 13l5 11l10 10l5 9l44 43l31 21h20l8 3l39 -5l27 -19l22 -10zM266 303l-10 -12l-4 15l-5 5l-8 -8l-12 -6h9v-10l7 -3l-4 -3h-9v-9l3 -10v-8l13 5v-2l-3 -3l3 -3v-8l14 8h19l5 5l-5 3
l-9 13l6 6v9l-3 3l3 4v9h-10zM216 372l-5 -8l-9 -3l-4 -16l4 -6v-3h-5l-3 9h-3v-18l3 -6v-9l3 -3v-12l9 5l12 -12l6 4l-4 12h-5l-4 10l4 11v18l6 7l3 -10l9 3l3 10l-7 10l7 14zM205 284h-8l-6 -3v16h-7l-7 -15l4 -4v-6l13 -15l3 2l3 13l15 -8v-7h9l5 4zM246 239v-22h24v9
l-4 3v3l-6 11zM301 749l-7 -3l12 -4l-8 -8v-13l-8 -7l8 -7h4l12 24l-4 9v9h-9zM181 125h-15l-5 10h-11l13 6v5h3l5 -9l10 6v-18zM279 229l-3 -3l13 -13l9 4l-5 12h-14zM239 779l-13 -8l7 -6l6 6l9 3l4 12zM230 317l-5 -6l14 -5v11h-9zM227 737l3 -3h14l-5 11zM257 715l3 -2
h6l5 4l-6 6zM221 801l-6 -12v-6l6 12h3v6h-3zM255 275l-5 -5l5 -4v-2l-8 4l5 10h3v-3zM202 388v-3l6 3l7 6zM353 617v-6h3l3 3zM239 811v-4h7l-3 4h-4zM230 786v-3h6l-3 3h-3zM260 324v-3h6l-3 3h-3zM208 382v-6l3 3v3h-3zM266 779l-3 -3h7zM276 235h3l6 7zM260 262h-5v2z
M239 259v3h4zM243 352h3l-3 3v-3zM380 477l3 -3v3h-3zM260 312h3v2zM221 452l3 -3v3h-3z" />
    <glyph glyph-name="Atilde" unicode="&#xc3;" horiz-adv-x="513" 
d="M331 681l7 -25l14 -24v-9l16 -8l3 -14l-3 -2l8 -9l-3 -3v-13h10l3 -12l7 -8l-7 -8v-8l3 -3v-3h-3v-3l3 -4l-3 -9v-9l-5 -5l14 -14v-11l6 -3v-7l-6 -3v-6l8 -4l-10 -11l5 -10l6 3l13 -6v-2h-10v-42l13 -6v-13l-6 -10l8 -4l7 -14v-10l12 -30l6 3l3 -6l-6 -3v-9l6 -22l6 -12
v-7l19 -5l-6 -3v-13l3 -3v-9l3 -3l-5 -19l6 -19l8 -8v-12l2 -6l-4 -10l7 4v-6l-3 -3l3 -9l7 -10l6 -18l-3 -12v-12l-3 -6l8 -5l-5 -5v-13l-16 -6l-57 -5h-22l-15 -3l-31 4l-6 11l-11 15l-7 46l-6 16v12l-7 18v15l-6 6v13l-2 3l-3 18h-16l-6 3l20 6l-12 25h-5l-8 11l5 4l3 -3
l9 12l-6 6h-3v31h-18v9h12v21h-22l-6 -6h-18v-6l5 -4l-5 -5h-6l4 21h15l6 7l8 -4v7l-7 7l4 11l3 -3l9 4l-7 15h-5l-3 -6l-14 -4v10l6 5l-3 3h-7l-3 3h-9v22h-6l-6 -6v-3h6v-16l-16 -7v-7l3 -4l7 4l7 -4l-7 -12v-6l6 3h6v-6l-6 -13l-6 -3v6h-16v-6l3 -6v-15h9v-9l-3 -6l7 3h9
l9 -9l10 9h11v-19l9 -17l7 -22l10 -11l-9 -10l6 -12h8v-5l-22 -17h-9l-5 -6h-44l-8 -10l-3 -6h-10l-3 6h-14l-6 -18l12 -5l-13 -13l-8 -15l8 -7l6 -9v-3h-6l-4 3l-9 -5v-19l-6 -9l-10 -32l-5 -5h-6l-6 -6h-86l-15 8l-6 16l6 19v30l6 12l4 20l5 5v14l22 74v16l9 27l9 40
l13 40l5 28l6 14v16l9 36v6l7 19l6 9v21l9 19v6l10 28l3 2v6l13 49l11 14v11h16l15 -39v-7l6 -21h5l6 9v6h13v19l3 7l-6 23v22l-10 36v23l16 8h12l30 7l10 -4h36zM376 840l-5 -15l-24 -24l-45 -5l-37 5l-25 13l-33 9l-23 -10l-3 -6l-9 -10h-19l-17 9l-5 27l11 19l8 19l28 18
h19l3 3h8l6 -3h25l55 -27h29l28 18h17l8 -9v-31zM249 336l-7 -4v13h7l3 -3zM450 314l-3 -5l-13 11h13zM227 428l-8 3l5 -9l15 3l-3 3h-9zM208 543v-8h10v8h-10zM273 309h-10l-3 3l8 3l5 -3v-3zM255 428l2 -3l3 3l-3 5zM263 384v-3l3 -3v6h-3zM249 439l3 -3h3v3h-6zM208 354
v-3h3v3h-3z" />
    <glyph glyph-name="Adieresis" unicode="&#xc4;" horiz-adv-x="513" 
d="M326 702l7 -11v-15l16 11l6 -11l9 -10v-14l-8 -13h8l6 7h2v-4h7v-3l-7 -6l-2 -6l-8 8l-4 -11h12v-16l-3 -6l3 -2l-3 -20l-11 -6l5 -15l7 -48l8 -13v-14l3 -3l6 3h6v-7l-6 -6v-15l6 -7v-9h3v6h13v-12l-10 -3v-15h17l-5 -11l6 -25l12 -11l-8 -17v-9h6l9 -19v-18l-8 -8
l11 -6v-8l-6 -5l6 -16v-19l15 -8v-10h-3l-3 7h-12l9 -19h6l6 -18l10 -9v-12l-10 -14l10 -23l6 -3l-5 -10l12 -35l11 -7l-8 -9l8 -34l6 -7v-27l-12 -12h-124l-23 14l-6 35l-7 14l-6 41l-3 6v9l-8 10v27l-3 6v9l-9 3l-4 10l4 6v18l-10 9v3l-11 19h-4l-10 -7l7 -3v-11l14 -20
l-11 -8v-19l-24 -15h-19l-27 -3h-29l-14 -9v-22l-13 -8v-7l-5 -18v-28l-12 -22l-6 -26l-13 -13h-61l-27 6l-7 6h-4l-8 17l7 50l5 15l8 39l10 32l9 46l7 28v12l6 12l6 31l3 6v9l6 15l4 3v20l9 14v12l9 20l-3 4l7 17l9 40l5 11l3 15l6 10l8 51l6 11l6 31l5 10v7l5 8v16l17 25
l11 -5v-11l10 -19v-21l9 -9l6 3l2 6l8 8l-5 7v22l-5 25v55l9 9l12 2l12 6h22l5 3l3 -3l6 11l10 -4v-6l22 -4l6 3l6 -6l12 -2l6 -6zM455 181v-3l4 -3l3 3l-3 3h-4zM215 355l-4 -9h-10l-3 -4l16 -9v-6l9 -6v-13l-15 7l-4 9h-6l6 -27h13v-6l6 -7v-6l-15 -7l12 -8h6v6l22 6h11
l3 3l4 -3v-3l6 -3l-6 -3h-9l-3 3h-12l-11 -4l11 -5l15 -9l9 9v-15l6 -6h3v15l3 3v26l-14 9l-7 -8l-9 7h-9v-13l-10 3l3 10l-9 6l4 11l18 4v12l-6 3v6h-12l-4 13l6 6zM193 288v-8l11 4zM254 321v-9l-3 -6v-9h15v9l-7 6v6zM236 352l-5 -4l5 -9h6v10zM232 376l7 -5v5h-7z
M202 378l7 -6l16 8l-6 6zM220 401v-5l12 -5v3l-6 10zM214 495l3 -3v3h-3zM197 559l4 -15h13l-6 6l-4 9h-7zM199 575v-9l12 -3l3 6l-6 6h-9zM361 587v-3l3 3h-3zM400 865l6 -11l-6 -34l-3 -6v-10l-21 -12l-6 -10v-9l-17 -8l-8 14h-12l-6 -3l-6 6l-9 4l-12 -9v9l-10 3l-3 9v9
l-9 13v55l9 9l5 8l14 10h64l18 -13h3l9 -8v-16zM239 875v-55l-13 -25v-3l-6 -6h-24l-12 -7l-7 7h-21l-24 6l-13 12l-9 22v21l3 12v22l24 20l19 4h52l20 -10zM355 782h3v4l-3 3v-7z" />
    <glyph glyph-name="Aring" unicode="&#xc5;" horiz-adv-x="513" 
d="M310 678l8 -9h12v-24l8 4l8 -4l6 -12h6v-19l10 5v-18l13 -13l-16 -10l7 -5l7 -14v-12l-4 -8l10 -10l-14 -5l-3 -8v-6h5l4 12l12 -12v-6l-13 -3l-5 -6v-9l2 -3l-5 -5l14 -4l-6 -16h6v-12l-3 -3l11 -11l8 5l4 -15h-11l4 -12v-10l6 -12h16l-7 -9v-21l10 -5l-3 -8l9 -18v-13
l5 -24h9v-12l3 -3v-6l7 -7h3v-20l10 -30l8 -5l-5 -9l5 -14h4v-13h9v-6h-3v-3l5 -6v-13l3 6h3v-17l-3 -13l6 -12v-16l3 -5l8 -36l5 -11v-14l-6 -9l-21 -10h-58l-22 -3l-19 3h-22l-20 15v12l-9 19v9l-7 13v6l-6 17v19l-8 9v18l-10 19v15l-6 7v30h-9l-14 -4l-5 11l22 5l-3 9h-3
l-6 -6h-14l-5 -9l6 -9v-18l5 -9l-10 -21l-12 -4h-10l-6 -3h-9l-9 -9l-29 15l-5 -10l-12 4l-3 -4v-11l-9 -4l-4 -8v-18l-9 -14v-26l-5 -10v-12l-4 -13l-3 -21l-15 -15h-61l-13 3h-21l-12 13v20l12 35l4 6l3 20l8 22l5 32l23 81v10l12 33l7 15l-3 3l5 16h3v36l12 13v36l10 9
v10l3 15v12l5 5l14 84l9 9l-6 11l8 35l6 9h9v-3l7 -3v-11l11 -6l13 5l-3 3l3 6l14 3l4 9l-3 3l-15 -7v13l7 3l3 18l8 7v21l-4 15l4 15l14 10h38l4 -4l8 4h22l16 5v-21zM340 837h-16v-12l-9 -15l4 -15l-9 -10l-7 -3l-21 -24h-7l-3 3h-9l-6 -6l3 -6h-3l-5 6l-36 7l-19 13
l-15 19l-4 16v36l6 13l17 21l26 12h31l33 -8l33 -35l16 4v-16zM266 324h-6l-8 9l-5 -9h-5v6l10 9h-13v9l3 7l-6 3h-15l-13 -10v-3l9 -4l-17 -6l-6 -15l-4 -3v-8h10v-9l-8 -8l-8 8h-3v-16l6 -15l6 -6l4 12l3 -3l13 -5l-5 20l3 6l-3 7v9l-6 5h-5v3l5 7h19l15 6v-6h-3v-7l-5 -9
l5 -5l6 6h18l9 3h13v16zM249 816h-13l-19 -9h-9l-3 3h-3l6 -13l16 -12h15l3 -3h15v15l-6 8l4 8zM227 852l-22 -14v-19h19l9 6l3 -3l3 9v17zM269 297l-10 5l-6 -7l4 -11v-12h23l-5 14l7 7l-3 4h-10zM285 184l-6 3l3 3l-3 6v5l10 -6zM194 132l-5 -5l-8 8l3 3h6zM263 259l3 -5
h6l3 3l-7 7zM362 568l6 -12l3 3l-4 15zM242 275h-6v-6h13zM227 269h3v9l-3 3v-12zM266 355l-3 -3h9v3h-6zM269 336v-3h6l-3 3h-3zM318 840l3 3l-3 3v-6zM214 312l3 -3v3h-3zM269 367h3v3zM263 242v-3l3 3h-3zM321 663h3l-3 3v-3z" />
    <glyph glyph-name="AE" unicode="&#xc6;" horiz-adv-x="667" 
d="M673 676v-16l4 -10l-4 -23v-22l-6 -5v-3l-12 -13h-50l-5 -3l-17 9l-11 -6l-8 8l-12 -12l-9 8l-23 -10l-3 9h-17l6 -16l-5 -9l-6 -3v-6h13l-13 -11l-9 8h-2v-21l-3 -3l-3 -9l-13 -6v-7l10 -5l-4 -4h-9v-6l5 -4l-8 -5h-6v-14l12 -4l3 -3h-9l-6 -7l-13 -9v-9h17l-4 -9v-6h-3
v-4l9 4l3 -3l4 13h5v-4l3 -3v-11l-12 -4v-10h9v-27h-6l-3 6l-3 -3v-6l-5 -14l11 -7v-10l-4 -4l4 -8v-18l-10 -5l5 -6l-5 -22l7 -7l-5 -5l11 -10h-15v11l-3 4v12l-4 6v25h-12v-12h6v-7l-3 -3l3 -3l-6 -9v-9l12 -12l-3 -3h-6l-6 -9l9 -16l16 -19v-8h-3l-9 7l-4 -7v-6h-10
l5 -19l-5 -14l7 -14l-8 -13v-14l5 3v13h14l7 12l7 -6h6v-3l-6 -9h-9l-13 -7v-6l10 -5v-11h-15l-4 13h-5v-16l3 -11v-25l5 -6v-16h-5l-5 -16l-5 -5l-6 -12h-61l-43 3l-15 6l-13 13v49l3 11v25l4 6l-7 6v31l-3 12l4 4l-4 27l5 4l-5 14l-6 -13l-6 -5v-9h-6l3 -6l-6 -16h-3
l-9 -9l-3 3v9h-9l-21 -8l-4 -4v-7h-12v10l-3 -3l-9 -3l8 -8l-5 -5l-16 -3v-8l7 -7v-6h-7v-19h-16l-23 -70l-3 -2v-9l-13 -4l-12 -9h-37l-18 3h-21l-19 6l-11 22l9 35l12 19v9l9 19l2 16l19 36v13l25 48l12 30l52 114l5 18l10 19l3 16l3 2l6 25l13 24l4 13l5 5l3 13l6 6v12
l12 24l6 19l6 12l7 21l9 13l3 9l6 3l9 -4l3 -35v-41l3 -8v-13h6v10l9 11h13v34l3 55v43l12 19l12 6h12l15 4l53 -4h31l19 -11l8 -14l3 -19h9l9 6v13l6 -5l10 22l18 5h134l25 -16zM643 73v-55l-13 -12h-25l-4 5l-13 -5l-102 3l-8 16v52l-7 6l7 5h4l18 12h17l9 -3h40l25 -6h21
l14 5zM600 393l-3 -57l-12 -15h-19l-6 3l-17 -5l-38 5h-15l-6 25l5 6v40l22 18h15l4 -3l38 4l25 -5zM459 61l-11 -2l-2 2v6h-10l5 20l5 -4l13 -6v-16zM471 245l-18 -10l-7 -6v16h13l12 4v-4zM266 307l-3 -10l-6 -3v-8l9 -5v3l-5 5l14 14zM257 511v-14l9 5l-6 12zM239 321
l-6 -7l-7 -2v-9l16 14v4h-3zM478 361l-6 16l14 -8zM257 226l-9 -9h12v6zM473 267l-5 5v6h3l7 -6zM269 526l-6 -6h11l4 9zM254 245l6 -6h9l-6 6h-9zM456 168h-6v9h6v-9zM247 356l4 -4l6 6l-4 5zM248 312l-3 -3l2 -6l6 5zM254 207l6 -3l3 3l-3 4zM434 336l-3 -3h6l3 3h-6z
M431 257l-2 -3h5v3h-3zM443 376v-3h7zM471 544v-5l3 5h-3zM434 214l3 -3v3l-3 3v-3zM440 367v-3h3v3h-3zM431 314v-2l3 2h-3zM245 272h3v3zM162 110l3 -3v3h-3zM450 58h-4l2 1z" />
    <glyph glyph-name="Ccedilla" unicode="&#xc7;" horiz-adv-x="474" 
d="M421 672l17 -54v-18l-4 -8l7 -7v-10l-3 -6v-55l-8 -13l-16 -9h-43l-15 16l-6 19l-9 17l-3 10l-10 6h-12l-5 -3v20l-16 8l-3 -3l3 -3h5l-5 -16h-6l-3 -3h-7l7 9h-10v-6l-7 -12l-19 10l-4 -4v-18h-15l-13 -12v-13l-4 -8l-10 10l-4 -5v-12l8 -9l-8 -15l-6 -6l-3 -7l-6 3v-18
l-12 -13l-7 -14l8 -11l5 5l6 15l3 -9v-22l-3 3h-6l-3 -3l11 -11l-11 -11v-8l12 -3l-9 -25l6 -6l-8 -24l14 -3l-8 -8l-6 6l5 -36l-3 -3l-3 -11l12 -4v-9l-6 -6v-6h3l6 6h7l-4 -12h-12v-19l15 -15h12v-9h-12l-3 3h-3l3 -9l-9 -3v-19h12v-24l3 -3l8 4l4 -4v-9l-3 -3l12 -13h13
l3 -6l9 -9v-6l6 -12l-3 -6v-16l3 -6l15 9l3 7l10 -4l17 22l-5 15l15 15h4l22 24l14 31l3 13l6 6l-4 9l4 15l7 14l14 5h31l9 -4h24l10 -9l8 -25l-5 -5v-49l-10 -31l-6 -12v-9l-9 -18l-30 -30l-13 -10l-7 -8l-32 -10l-13 -10l-3 6l-15 -3l-17 18l-4 25v19h-6v-19h-13l-13 4
l-14 -10l3 -6l9 -3v-3l-9 -5l5 -13h-14l-19 -7h-6l-9 -3l-9 6h-3l-12 7h-31l-49 25l-21 20l-3 7l-6 6l-3 6l-18 18l-16 61l-3 37l-4 6v12l-2 6v22l-3 12v18l3 6v16l-4 8l6 14l-8 13v29l5 46l-5 15v19l-5 63l6 48l5 10v10l2 9l10 28l12 21l16 15v4l9 9l12 6l3 10l15 8l16 12
l27 3l4 5l24 8h12l3 -3l9 3h18l10 -19v-15h12l4 15h27l12 17l9 5h19l25 4l11 -4l17 4l38 -5zM329 -126l-4 -17v-15l-14 -31l-13 -12l-3 -6l-6 -3l-10 -9l-23 -13l-41 -3v5l32 24l7 20l-6 11l-20 11l-13 3l-9 6l-15 14l-6 35v15l3 3v15l9 9l9 6l3 4h12l16 3l44 4l26 -14
l12 -4zM282 -30h-9l-3 -6h-3v12l-3 3v3h9l10 9h3zM256 -39h-4v3l-12 8l3 10l15 -15zM221 144l-12 -2v17h9zM264 664l-3 6v-11l9 -4h6v13zM188 484l-9 -9l3 -6l9 9v6h-3zM267 579l-9 -10h9l9 10h-9zM270 77l-12 -3l9 12h3v-9zM206 456h-9l-3 3l3 3h9v-6zM252 591l-3 -6h7v6
h-4zM215 536h3l-3 3v-3z" />
    <glyph glyph-name="Egrave" unicode="&#xc8;" horiz-adv-x="421" 
d="M316 787l-6 -12l-5 5l-6 -10l7 -13h-14l-3 -12l6 -6l3 -7h15l9 -3l-12 -6h21l6 6l3 -6l-3 -6l3 -5l7 -3l3 -7h6v7h6l13 -10h14l13 -12l9 -28v-46l-9 -9v-3l-10 -9h-27l-3 -6l-6 3l-17 -4l-5 4l-12 3l-6 -3h-9l-6 -6l-4 -12h-5v15h-10l-12 -12l-6 -13l-7 -6v-3l-2 -3l-3 3
v19h-6v-7l-3 -3v-9l7 -14l-7 -4l-9 7h-7v-16l-3 -6v-6h6v-10l-3 -3l-4 4l-8 -4l-3 -6l3 -3h15v-12l-3 -3l-3 -12l3 -3v-3h-7l5 -16h-13v-6l10 -5l-10 -13v-6h3l9 9l3 18l10 -6l9 -3v-2l52 -4h32l10 -21v-55l-7 -19l-17 -6h-55l-27 3h-22v12h-3l-3 4l-9 -7l-3 -9l10 -16
l-13 -5v-6l-6 -3v-3l15 5l6 -5v-6l9 -7v-6l-3 3l-9 3l-6 -3v-9l6 -3v-13l-21 7h-12l6 -15v-6l6 -6l6 3l3 -3l6 12l6 -12l-3 -7l-22 -3l4 -18h9l3 -3l-17 -13l-5 -21v-30h22l6 -6l-3 -3h-9l-6 -3h-6v-13h6l6 -3l3 3h3v-9l-3 -6l3 -3l-6 -18h-3v9h-3l-3 9l-7 3l-6 6l-4 -17
l10 -4v-9l-3 -3v-13l13 13l6 -6v-7l-9 -9l-9 4l-4 -4l-5 -15l-12 -7l-13 -5h-12v3h-52l-6 3l-7 -3l-28 4l-7 7l-4 16l9 101v49l2 15l-2 9l2 37v83l5 14l-5 31v49l-4 39l4 16v160l4 5v31l9 9l19 10h21l13 4l18 -5l33 4l8 3l4 -3h6l3 8l10 -3l3 -5l8 3l7 -13l6 -3l3 3l-5 10
l5 8v28h3l6 -6l3 6l6 -3h10l9 -9v-4h-6l-7 -6v-6l-6 -15h13v12l7 8l8 -8h9l9 -8l3 5l-23 18l-4 16l-9 3l-4 19h-12v8h6l7 6h3l3 3h-16l-6 -6l-3 3l3 6l-5 5l-4 -5h-9v4l-15 9l-9 3l-10 6h-17l-16 12v9l3 6v13l8 9l7 12l20 9l17 -12h9l64 -18l43 -22l9 -8zM385 99l4 -54
l-3 -6v-10l-9 -8l-9 -3h-76l-22 3h-15l-25 6l-9 9l-10 23l9 13l-8 4l9 11l-4 12l10 20h7l3 -4l25 8l14 -4h40l59 -4zM321 749l-12 9l10 14v6h8zM255 757l12 -15h9v15h-21zM203 158l-3 -3l-3 -6l-3 3h-9l3 9h15v-3zM170 279l3 -3l21 5v6zM194 363v-6l12 -3l3 3l-6 9zM283 732
l-4 -12h3l3 3h7v9h-9zM282 772v-12l10 10h3v2h-13zM230 558v-12h7l-3 9l3 3h-7zM218 299l-6 6v3h6v-9zM185 345l3 -3h3v9zM257 577h7l-3 3zM200 687v-3h3zM179 320l-3 -3l6 3h-3zM252 775l-3 -3l6 3h-3z" />
    <glyph glyph-name="Eacute" unicode="&#xc9;" horiz-adv-x="421" 
d="M395 678v-46l-12 -22l-55 -6l-71 5l-14 -5h-9l-10 -4v4l-6 -5h-6l-9 -9l-3 -16l-3 -3l12 -9h9v-13l-12 6h-9v10h-9l-6 -6v-4h6l21 -9v-8l-6 -16l-6 -3l-7 -11l6 -11l-5 -14v-16l9 -8l-15 -10l3 -13h6v-36h6l6 15l-3 7v8h3l6 -5v-10l6 4v6h3l14 8h5l9 6l18 -3h12l6 -3h38
l17 -10v-8l5 -10l-5 -16l4 -15l-4 -17v-12l-6 -6l-18 -10h-15l-9 -3h-13l-3 3l-14 -9h-19l-3 3h-10v-9l-3 -2l-6 2l-7 10l6 13l-8 8l-12 -12h-6v-19l5 5l8 -9l-11 -12l7 -11l-4 -4l-10 5l6 -23h-10v-24l-3 -3h12v-15l-3 -7v-15l-6 -5v-16l6 -3v-3l-6 -3v-37h3l3 7l9 -7l3 -9
l-6 -3l-3 -6l11 4l4 -4l-12 -19l-9 -5v-34h6l15 -6v-10h-9v3h-6l-6 3l-7 -6l13 -9l-6 -5l-9 -3l-16 -10l-4 -8l-11 8l-17 -3l-38 3h-29l-17 24v49l-3 9v46l-6 18v28l-5 25l5 9l-7 34v52l-2 20v41l-3 14v86l-3 21v55l-3 13l3 9v97l6 25l12 13h73l30 6l7 -6l15 -8l3 -14l7 -6
l4 26l5 -5v-6h18l-14 -10l10 -21h4l4 -4l9 28l-9 9l20 20h86l6 -3l6 5h49l15 -8zM405 103l6 -6v-61l-19 -18h-21l-34 -6l-39 6h-22l-9 3h-12l-12 4l4 7l-4 4l-9 3l3 7l-3 18l4 4l-5 10l4 8v11l18 19h73l67 4l7 -7zM183 106l5 -9l3 6l-3 3h-5zM188 128v-3h6zM213 167l-4 -12
l-3 6l-11 4l5 18zM230 158h-6l-6 7v3h12v-10zM209 199h-6v5l6 3v-8zM209 251h-3v8h7zM224 287h-15v6h15v-6zM194 379v-14l11 -6l-5 -5l-9 6l-3 -3v-9h6l6 -3l3 6l3 -3l9 3v13l-8 10zM206 391v-10l6 3l3 7l-3 3zM197 384h3v3zM188 394v-3l6 3h-6zM185 461l3 -3v3h-3zM185 535
l-3 -7l3 -3h9l5 10h-14zM185 587v-4l3 4h-3zM185 601v-2l3 2h-3zM200 612v-8l3 -3l6 3v3zM206 629v-6h-6l-6 3v-6h18v9h-6zM194 645h-6l3 -7h15l4 5l-6 7zM176 654l6 -3h6v6zM172 662v-3h4zM218 723l-3 -3l-12 13v3h3l3 -3l9 -3v-7zM276 880l13 -17v-8l4 -14l-11 -11
l-18 -11l-9 -10h-18l-3 -3l3 -3v-6h-3v3h-13l-11 -7l-7 7h-9l-15 -7l-13 4l-18 -6l-8 4l-4 -4h-9l-3 6l-9 4l-5 10l4 8v12l25 18l24 9l9 6l25 9l18 12l46 11l11 -6z" />
    <glyph glyph-name="Ecircumflex" unicode="&#xca;" horiz-adv-x="421" 
d="M314 829l11 -12v-13l-4 -4l5 -14l-4 -4h-11v-9h-13l-4 -3l14 -7v-20h6v-6l17 -10l16 -12l9 4l21 -6l6 -9l11 -6l5 -22v-64l-23 -14l-44 -5l-34 -9h-31l-6 -19h-18v-9l-3 -3l-3 -9l-12 6l-13 -18l3 -9h3l7 9v6l3 4l3 -10l4 -4l-4 -8h-10l-9 -10h6v-6l-4 -4l8 -9l-4 -8v-6
l-3 -9l10 -25l-4 -12h7l3 3h30l61 -6l19 -14v-26l4 -30l-5 -24l-19 -14l-7 4l-3 -3l-65 -4v-3l-3 -2l-6 5l-24 14l-4 -4v-6l16 -4v-8l-7 -6l-4 -9h-11v-32h-6l-6 -5l-6 -18v-16l6 -12v-18h-9v-16l3 -6l-3 -6l3 -10h3v-6l-6 -6v-5l21 -13h6v-3l-12 -6h9l3 -3l3 6h3v-9l42 7
l47 -4h24l18 -4l7 4h27l16 -16v-48l-7 -21l-18 -3l-2 -7l-10 4l-12 -4l-61 -6h-46l-19 18v15l-6 7l-6 12l11 4l-11 5l-3 7h9l3 -3l3 3v26l-27 7v6l-6 6l-6 -6v-15l-4 -4l4 -55l6 -12l-6 -5l-7 -14l-18 -5l-51 -3l-64 7l-11 20v95l-2 15v92l-3 16l3 6l-6 21v132l-3 6v211
l3 15l-3 7v37l9 14l15 7h22l39 8h9l10 6l6 -6h9l13 14l8 -8l17 -7l-6 26l6 11l23 -8l6 -9h25v6l-3 3l-7 -3v9h-9l-6 3l8 4l4 9l-8 4l-4 -4v-11l-15 6v11l-6 -6l-4 4l7 10l3 10l17 -12l4 9l16 -12v15l-16 6v3l-12 -8v5l-6 3v3l-3 3v13l3 9h-3l-6 -9v-8l-9 -5l-27 -26l-16 -6
l-25 7l-22 9l-5 10l5 12v10l13 11l6 3l5 10h8l6 9l6 3l8 12l10 4l6 12l25 12h49l25 -12l14 -15l13 -7l15 -15l3 -6l11 -4zM276 776l-6 -5h10l-4 -16l15 -10l5 9l-8 16l4 3l-3 3h-13zM218 174l-6 -6l-3 3l-6 -3h-6v9l-3 3l3 3h6l3 -6h12v-3zM261 739v-15l-5 -3v-3h8l9 5v8z
M249 752l-3 7h-6l3 -7v-9h-3v-3l5 -5l9 17h-5zM206 314l-5 -4l5 -10l9 9v5h-9zM206 440h6v-3h3l3 3l-3 6v6zM138 732l5 11h5l4 -4zM286 731v-4l9 -4v8h-9zM160 740l-6 6v6h6v-12zM203 239h-6v9h3zM228 731l-3 -7h3l3 7h-3zM225 771l6 -3v5zM188 284v-3l3 3v3zM225 759h3
l-3 3v-3z" />
    <glyph glyph-name="Edieresis" unicode="&#xcb;" horiz-adv-x="421" 
d="M399 684l-3 -12l-4 -44l-12 -12l-36 -5l-52 -4l-6 -6l-29 5l-7 -13v-3l7 6l26 -3v-9h-15l-4 6l-3 -9v-19h-19l-6 -12l9 -4l-17 -22v-20h-9l-6 -6v-15h6l3 5h3v-5l4 -9l-11 -6l4 -4l15 -4v-11l-15 -6l-3 -4l3 -3h9l3 7h89l19 -10l5 -14l5 -9l8 -54l-7 -26l-18 -12l-21 -4
h-22l-6 -2h-22l-20 -7l-4 8l-9 -4l-12 11l-14 -9l5 -5h15l-9 -10v-6l-10 -9v-22l-3 -6l3 -27l-6 -7v-9l-2 -9l2 -12l6 -3l-8 -5l3 -32h-3v-15l5 7h3l4 5h4l-4 -12l3 -7l17 8l9 -4l11 3h88l28 -3h18l24 -8l7 -13v-62l-6 -20l-25 -13h-24l-9 -3h-65l-15 3h-21l-13 7l-12 29
l5 6l-5 16l-6 3l-6 -6l-3 3l-7 -3l5 18h14v3l7 14l-4 11h-15l-4 3h-3v-9l10 -10h-7l-4 4l-10 -21l6 -10l-3 -18l8 -10v-9h-8l3 -3l4 1l-4 -6h-9l-13 -13h-21l-12 4l-6 -4h-77l-11 11l-4 13v71l-4 12l-3 36l3 13l-6 18v125l3 9v25l-5 20l5 20v18l3 6l-3 4v64l-3 26l4 19l-4 7
v85l-6 18v31l6 15l-4 15l14 13h34l11 5h17l15 20l-4 8h13v-13l28 6l5 4v3h-13v16l13 4v10h-6l-10 -5l-4 4l11 11l12 -3h16l6 -12l-3 -3l3 -9l3 -3l3 -10l-12 -8v-10h12l3 12l8 -3l-3 -3v-9l13 -4l12 13l13 5v-7l12 -4l4 8l11 -11h12v21h3l3 -3h16l11 -11l-11 -7l3 -7l11 3
l7 13h6l11 -11l11 5l18 -10h9l12 -11zM341 874l3 -19l4 -7l-4 -8v-9l-9 -18l-6 -6l-3 -7l-12 -6l-6 -6l-6 -3l-11 -20l13 -12l-10 -5l-10 5l-4 11l4 20l-9 13h-11l4 -6v-12l-27 -3l4 -12h11v-3l-23 -11l-11 11h-6l-5 -10l-13 7v12l5 6v8l22 4l-5 9h-17l-5 -12v-9l-3 -4l-6 7
v9l-6 3v13h-19l3 -10l-8 -8l-6 7l-5 -5h-6l-6 -11l-8 5h-7l-3 3l3 3h7v9l-17 -8l-10 10l-28 9l-7 35v31l12 22l35 7l46 -7l17 -16l3 -6l10 -9h6v-6l-9 -5v-8h17v-6l-3 -3l5 -5l20 27l8 23l20 19h24l13 4l9 -4h15l9 -6l9 -3zM228 825l3 -3v-10l-18 4v-12h12l6 6l3 -3h7v12
l-4 3l-9 21v-18zM244 794h-5l-5 -12h19v12l-5 5zM329 758h-3l-10 9l13 4v-13zM228 714l-12 -11v-3l9 3l6 9v2h-3zM131 724v-10h9v10h-9zM344 770v15h3l7 -6zM258 736h-5l-6 6h11v-6zM179 810h7l6 3l-5 5zM193 822l5 -9l2 6l-2 3h-5zM216 532l-3 -3h9l3 3h-9zM219 782l3 -3h3
l3 3h-9zM219 125v-3l12 3h-12zM206 681v-3h4zM222 843v-3l3 3h-3zM286 772l3 -2v2h-3zM186 703v-3l3 3h-3zM234 577l3 -3v3h-3zM173 730v-3l3 3h-3zM206 36l-4 -2l1 2h3z" />
    <glyph glyph-name="Igrave" unicode="&#xcc;" horiz-adv-x="226" 
d="M184 657v-15l-4 -10l10 -5l11 5l5 -15l-11 -23l10 6v8h9v-10l-9 -5v-15l9 -5v-4l-5 -5l5 -5v-9h-6l-6 5l-6 -13l5 -7v-21l-5 -7l5 -6v-6h8l-4 -9h-12v-2l15 -16l-3 -3l4 -13l-20 -7l7 -11l-3 -3h-6l3 -9l-3 -3v-12l-8 -8l11 -11v-15l-6 -6v-9l-5 -15l6 -32l5 -5v-9l-9 -9
v-7l3 -3l3 -12l8 -16l-8 4l-6 -6v-40l8 -8l-5 -29l3 -21l3 -4l-3 -5l3 -14l-3 -14v-27l9 -3l-3 -3h-9v-61l-26 -26l-90 4l-7 3h-12l-16 16v24l-3 10l3 38l-3 7v43l3 24v25l4 21v31l7 7l-4 8v27l3 13l-3 9v79l-4 34l4 36l-3 19l3 24v168l7 19h18l4 8l79 6l14 -5l12 -8z
M196 813v-9l3 -6l-3 -16l-15 -14l-25 8h-18l-18 6l-20 4l-5 6l-15 3l-54 19l-6 17l7 22l10 15l5 12l51 -13l17 -11h13l64 -33z" />
    <glyph glyph-name="Iacute" unicode="&#xcd;" horiz-adv-x="226" 
d="M187 683l-4 -4l14 -14v-9h-4v-6l4 -3v-9l6 -8l-3 -14l-5 -5l13 -9l-15 -40l4 -4v-9l3 -9v-17l-13 -6v-11l6 -6l-3 -6l15 -21v-9l-5 -5l-3 -14h3l2 -3l-5 -3v-3h8l-3 -9l-5 -3l-4 -12l-6 -6v-7l10 -9v-12l-4 -4l-3 -14l-9 -19l6 -6l-8 -4l-6 -11l8 -15v-28l-10 -32l4 -7
l-10 -21l4 -7h12v-7l-6 -3l-6 -8l-4 -17l10 5l13 13l5 -23h-3l-3 3l-18 -6v-9l10 -11l-7 -7h-10v-9l7 -6h9v-10h-3l-10 -9v-12l4 -4l-4 -42l-6 -19l-15 -2l-15 -8l-18 5l-4 -3h-61l-12 11v10l3 15l-6 19v46l3 9l-3 9l3 5v68l-3 12v193l-2 39v77l2 9l3 64v79l15 16l100 5
l20 -5l15 -12zM190 94h-3v6zM184 128l-9 3l6 6h3v-9zM193 247l-3 -6h-3l-3 12l-3 5h6zM200 827l-4 -11l-15 -7l-31 -6l-21 -7l-40 -6l-15 -6h-9l-12 -6h-19l-8 9l-16 10v25l27 22l34 14h6l15 7l26 7l11 7l18 3l12 6l13 -3l19 -19z" />
    <glyph glyph-name="Icircumflex" unicode="&#xce;" horiz-adv-x="226" 
d="M225 804l-19 -18l-24 -3l-6 3l-9 -3h-9v-7l21 -5l-9 -12h-12l-4 4l-10 -5l4 -9v-6h12l4 -12l14 7l-6 7l14 11h6v-3l-10 -10l4 -3h9v-22l-6 -5v-25h6l6 -11l-3 -4v-24l8 -9l6 -13v-25l4 -8l-4 -18l4 -7h9v-3l-9 -9v-12h-7l-3 -9h3v-3l-7 -7l4 -8l10 3l7 -8l-7 -8h-7v-6
l9 -13l-15 -14v-9l3 -3v-22l8 -15l-5 -9l4 -8l-13 -4v-6l-3 -9l12 -13v-9h-6l-8 -9v-6l5 -16v-18l-2 -5l7 -9l-9 -5l8 -13l-8 -10l4 -10v-14l-2 -4l-3 -21l3 -10l8 -4l3 -13l-9 -3l-2 -16l-5 -5l10 -4l4 -8l-9 -11v-17l3 -8l-4 -9l7 -17l-6 -4l-3 -6h3v-3l-7 -3l4 -8v-42
l-17 -10h-94l-5 8l-4 -3l-8 3l-9 18l6 27l-7 13v125l3 16l-6 33v34l-3 52l-3 9l-6 73v34l-7 14l4 19l-3 22v39l-4 16v39l-3 58l3 12v8l13 19l48 6v16h4l6 -13h3l3 7l6 -7l19 -3v7l-3 3l3 6l-5 4l9 14l-7 4h-16l-15 -16h-3v10l-15 -5v8l5 6h13v12l-17 3l4 5v13l6 9l-3 16l3 9
h-8l-3 -19l-15 -3l-16 -15l-19 -6l-11 6h-12l-21 15l5 16l46 45l21 25l33 12h32l27 -15l7 -12h5l15 -10l46 -45v-16zM109 795l-6 -6v-10l3 -3v-3l4 9l11 5zM145 771l-5 2l-3 -2v-10l11 4l3 8zM115 837h-6v-3l3 -3l3 -8l8 7zM151 734h-6v-13l13 7zM121 810l7 -6l12 3l-3 3
h-16z" />
    <glyph glyph-name="Idieresis" unicode="&#xcf;" horiz-adv-x="226" 
d="M169 688v-25l10 -29l-3 -4h12l15 -16l-12 -14h6l-6 -6l-9 -5l12 -8l-3 -6l-3 -17l15 -8v-15l-9 4l-14 -7l5 -18l12 -13v-12l-9 -9v-18l12 -13l-3 -3h-9v-6l-5 -10l5 -17l9 -3l-6 -6l-7 -23l4 -17v-9l8 -36l-6 -15l6 -6l-5 -5v-15h10l-4 -13l-3 -3v-11l4 -4l-4 -12l9 -9
l-3 -3h-6v-52l-3 -28v-60l-3 -13v-25l-3 -9v-6l-15 -14l-19 -4h-95l-13 4l-12 23v37l4 10l-4 11v74l3 6l-5 40l5 64l-5 45l5 22l-3 7l-2 24v55l2 6v83l3 21v43l3 95l4 6v14l12 8h74l12 3l15 -6l3 -6h6zM182 553v-3l3 3h-3zM264 859l-8 -18l-4 -3l-16 -25l-39 -9h-18v-9h3
l3 -6l-5 -5l-5 5l-9 -13h-6l-3 13h-13l-11 -6l-7 7l7 11l-17 11l-5 -5v-9h-15v16l6 6l-6 11h-3v-2l-7 -9v-9h-8l-6 -4l-25 -9l-3 3h-49l-14 7l-10 17v22l2 12v16l19 18h61l28 -15h8l13 -12h3l3 -3l3 3l18 3l7 15l17 10l44 8l29 -3l31 -24zM160 807l6 -9l3 6l-3 3h-6zM84 853
l2 -3v-3h7v6h-9zM81 872l3 -9v9h-3z" />
    <glyph glyph-name="Eth" unicode="&#xd0;" horiz-adv-x="532" 
d="M463 631v-10l16 -30h15v-12l-4 -7v-15h4l6 6l9 -3v-9l-6 -7v-30l12 -12v-6h10v-7l3 -3l-11 -9l7 -13l-7 -14h-12l4 -33l4 -8l-4 -14l9 -6l-6 -12l21 -25h-15v-21l4 -16l-10 -11l6 -13l-3 -11l7 -7v-28l-7 -6v-39l-3 -6l-3 -19l-5 -16l5 -6l4 4l9 -4l-13 -11v-10l-6 -6v-9
l6 -6l-15 -16l-7 -18l-8 -9l-9 -16l-10 -6l-9 -9l-9 -6l-10 -9l-72 -25h-45l-13 19l-4 15l-9 9v8l12 6l-15 10v4h9l4 8l-7 8l12 26l28 29l3 14l6 6v19l3 24l4 66l-4 11l-3 3l6 19v20l-3 7v15h3v33l5 14l-8 11l13 30l-13 25l3 6v19l-3 8v25l-7 18l-12 -8h-6v12h-11l-14 -9
h-27l-6 6l-3 -3l-12 -6l-3 -7l3 -6l-15 -15l6 -12v-12l-3 -10l-8 8l-4 -4v-25h6l5 5l7 -20l-8 -8l5 -4l6 -10h7v3l-4 4v9l-3 3h13v-3l8 -6h25l19 -10v-9l8 -9v-34h13l-7 -9v-25l-3 -11v-19l-10 6l-11 -6l-9 -9h-12l-7 -6l-3 9l-17 6l-15 -4l11 -8l-5 -12l9 -4l3 -8l-8 -16
h-11v-9h6l6 3l5 -4l-8 -15l-4 -4l4 -5l-9 -18v-34l-3 -3l12 -3l3 -9l6 -10l-8 -15l9 -9l10 4l7 -7v-18l13 -3v-6l-9 -9v-13l3 -3l-5 -15l7 -13l-13 -17l-8 -4l-8 -9h-41l-98 -5l-31 6l-14 19v96l-3 40v43l-3 7v55l-3 6l-4 31l-6 11v10l-3 3v3l-6 -3l-4 -16h-11l-10 -5l-17 6
l-7 18v21l-4 42l19 22h13l6 -6l7 -4l11 -15l5 -22l-2 -5l-9 -9l3 -3l9 3l-3 3l3 6v25l3 2l3 13l7 12v28l3 21v22l3 10l-3 56l3 31v104l9 9h10l17 7h43l28 9h72l13 -9l12 -5v-14l7 -6l3 6v9l-4 4l10 6l9 9l25 8l21 -5h12l37 -9l6 -7l31 -17l29 -20zM223 513l5 -5h6l-6 9z
M261 612v-3h6l-3 3h-3zM270 533h7v3zM47 352v-3l-1 2z" />
    <glyph glyph-name="Ntilde" unicode="&#xd1;" horiz-adv-x="521" 
d="M477 658l12 -16v-15l-3 -3l4 -10h-7v-6l-6 -11l7 -8l-12 -6l12 -12l-4 -10l3 -11l9 -11l-9 -7v-9h9v-3l-9 -9l3 -19v-12l7 -7l-4 -14v-30l-3 -4v-9h3l3 3h3v-3l-12 -12v-19l6 -6v-9l5 -5l-8 -4v-9l3 -6l-6 -10v-58l3 -19l-3 -14v-52l-6 -12l-5 -16h-13v3l-7 10l-15 5v25
h-6l-6 -7l-6 -2v-9l12 -12v-19l15 -9h3v-7l-6 -2v-6l12 -12v-13l7 -12l4 -12l-6 -5l17 -29v-30l-25 -25h-61l-31 5l-11 17l-10 11l-6 19l-6 6l-21 43v9l-11 11l-5 14l-6 9l-3 9l-19 37l-7 25l-23 30l-15 45l-9 7h-4l-4 8l-4 -5h-3v9l6 12l-9 -6l-3 9v9h-6l-8 -4l-11 7l-30 9
v4h6l7 -5l13 13l-5 10h-7v6l11 7l8 -7v9l-6 3l-9 8l-4 -8l-5 -6v-9h-6v-6l-9 -9l3 -22l14 -14l-8 -7l-3 3v6h-3v-18l7 -8l10 8l25 6l3 -3l-9 -6l-21 -5l-6 -8h-12v-30h6v-9l-6 -12v-10l7 -8l-7 -7l9 -9v-3h-3l-3 -12l-7 -10v-31l4 -5v-103l-10 -13v-6l-12 -13h-68l-6 3h-11
l-14 14l-8 23l9 28l-3 6l3 66v47l3 15v54l3 19v36l7 38l-5 17l5 16v86l3 6l-5 13l5 54l6 6h8l13 -11v-13h4l14 -28l7 -6l6 -19l18 -14v-10l3 3l6 16l-3 6v10l6 2v6h-9v22l-10 9v11l-14 8l6 11l-6 13l-3 12l-21 40l-4 24l-10 10v11l-6 6v31l19 10h22l9 -3h49l39 -41l5 -17
l8 -4h12l-6 -12v-16l11 -12v-10l16 -6v-5l-5 -10l5 -5l9 -3l-4 -12l7 -7l7 -3v-12l7 -21h14l2 -31l7 -6h3l9 -18l10 -6l-4 -4v-12l22 -15l-5 -15h5l3 -3l-5 -5l8 -8l2 -9l7 -3l4 -12h27l-5 -18h11v9l6 12h6v27l-4 9l4 4v22l-4 3l6 14l4 38v11l9 34l3 3v10l6 30l4 4l-4 13
l3 8l-3 5l5 10l-9 28l4 9v30l7 6l37 7l8 -4h19l12 -6v-24zM379 856l-3 -6v-10l-13 -22l-21 -11h-12l-13 -6h-36l-6 6l-9 3l-9 7l-9 3l-9 6l-37 7l-15 -7l-13 -9l-21 -4l-10 13v11l6 13v12l16 16l21 12l18 -4l7 3v-3h34l14 -5l3 -3l19 -11l42 -9l13 10l13 13h18l5 -6v-3h7
v-16zM349 388l-8 -11l-11 8v8l12 6zM133 408l-7 -7l-7 -4v-7l19 6v8zM388 291v-13h-6v-6l3 -3l6 6l3 -3h3l-3 19h-6zM394 266l6 -12l10 9l-4 7zM145 269l-13 -3v7l9 5zM159 321l-3 -3l-10 6l-1 3h14v-6zM327 413h-6l-4 6l10 5v-11zM122 385h-3v-6l5 -5l5 5zM171 358v-6l3 -3
l4 4l-4 8zM208 621h-4l-4 5l8 4v-9zM119 416v-9h3v9h-3zM425 223v-6l3 3v6zM413 220l6 -6v6h-6zM336 352v-3h3v3h-3zM376 303v-6l3 6h-3zM358 339v-3l3 3h-3z" />
    <glyph glyph-name="Ograve" unicode="&#xd2;" horiz-adv-x="509" 
d="M467 640l12 -8v-12l8 -10v-9l-7 -7l9 -10l-6 -13h7l3 3h11l-4 -9l-7 -6v-8l-8 -5v-8l8 -10l-3 -9l17 3l-4 -15l-7 3v-3l10 -10l-6 -20h4l6 -13h-10l-14 -14l7 -8v-11l-9 -4l3 -15l-3 -18l8 -4l-7 -12v-11l-5 -15l6 -48l-4 -11v-16l3 -6v-9l-6 -6v-24h11l6 -7l-6 -15h-3
l-4 10l-7 -7v-27l-9 -12l12 -29l-13 -5l4 -17l-10 -5v-12l3 -3l-3 -3v-3l-12 -12v-6l6 -3v-4l-13 4l-17 -19l-10 -3l-6 -6l-15 -6h-10l-12 -13h-27l-9 -2h-49v24l-11 11l5 14l-10 6l3 3l3 18l7 9h6l9 10l13 6l20 27v25l10 18l3 70v110l3 3l-3 28v61l-6 24v10l-7 9v15l-3 12
l3 6l-9 9v22l-24 24l-33 13l-14 -23l-14 5l-6 -3l3 -13l-8 -7l5 -16l-12 6l-16 -20v-8l4 -5l5 -14h-12v-9l-6 -13l7 -4l-4 -7l-9 -3h-9l-3 -7l3 -9l-12 -4l9 -8l6 -3v-8l-13 4l-7 -7l7 -13l-6 -13l6 -6v-6l-12 -6v-10l12 -3l-9 -3v-11l6 -6l-15 -5v-14h6l8 4l-5 -11l3 -3h5
l-5 -9l6 -11v-16l-21 -22v-18h8l5 16l12 -4l-10 -9l-13 -26l10 -11l-8 -8l11 -31v-13l-3 -6l12 4l13 -13l-3 -3l-4 -13l10 -5h6l7 -14l15 -8l5 -15l7 -7l-7 -12l3 -15l-3 -11l5 -9l-20 -14l-6 -6l-63 5l-33 12l-14 14h-7l-14 19l-13 12l-6 18v12l-11 23l-4 32v19l-5 14
l-4 53v37l-7 29l4 32v52l-3 12v76l6 31l3 3v15l-3 9l5 19v19l4 6v11l24 55l10 7l4 9h13l4 10l15 5l6 4h5l5 9l15 4l16 10h14l3 7h16l10 5l9 -10l9 9l21 -11l7 14l8 -4v-6l-6 -7l-3 -33l-3 -3l3 -6v-18l-3 -6l6 -3v-28l-5 -5l11 -11h7v6h-7l-4 5l13 5h6v11l-8 4v22l2 -6l3 3
v15l3 3l-8 6l2 3v16l6 6l9 17l19 7l3 6l6 -6h13l14 -10h10l9 7h9l12 -11l15 -4l28 -12l10 -10h6l34 -31zM346 837l-6 -33l-25 -10l-35 3l-7 3h-15l-2 -12l-7 3l-6 -3v-12h-6v12l9 9l-9 7l-3 6h-10l-18 6l-46 24v22l9 18l6 16l10 5h29l26 -15h9l7 -6h11l19 -9l37 -10z
M232 779h-14v21l10 -9zM188 204l-6 -6h-3v6l9 3v-3zM264 779l-3 -3l-4 4l4 5h3v-6zM188 519l-5 -5l8 -4v9h-3zM215 587l3 -4l6 4l-3 3zM203 568h9l-5 5zM157 305h3l-3 3v-3z" />
    <glyph glyph-name="Oacute" unicode="&#xd3;" horiz-adv-x="509" 
d="M447 643l6 -6v-3l7 -7v-18l9 -9v-25l6 -12l6 -27l3 -22l-3 -6l3 -9l3 -4l3 -27l5 -24l-5 -10v-17l7 -11l-10 -19l8 -14l-8 -12l4 -17l-5 -14l4 -43l-6 -23l3 -7v-27l-3 -3v-86l-9 -14v-23l-6 -18v-12h-8l-25 -33l-27 -18l-17 -4l-21 -10l-46 -15h-49l-13 12l-6 13l-2 18
l-3 9l-6 -3v-3l-13 -21v-16l-9 -9h-30l-49 7l-51 17l-34 25l-4 9l-10 9l-3 13l-9 18l3 3l-9 9l-6 58v34l-3 9v55l-3 25l4 7l-7 14v65l-3 9l3 21l-3 12l3 10v30l3 12v21l3 28v33l12 53l9 9v21l28 27l15 20l21 12l10 3l32 16l32 5h37l12 -12v-6l5 -11l5 -23h12l3 -4l-3 -5h-13
v-32l-9 -5l-7 -11l10 -4h-19l-9 -9l-5 -3l-9 -10h-7v-10l10 4l3 3h6v-11l-9 -4h-10l-7 -8l-5 -41l-3 -6l3 -10l-6 -11v-16l-3 -9l3 -3l-7 -19l4 -8v-16l-4 -3v-21l4 -14l-4 -35l4 -8l-5 -12l8 -25l-3 -4v-36l3 -35l3 -12l3 -30l-3 -6l8 -9l5 -23l31 -21l8 4v-7l17 -17l6 -16
l-5 -9l7 -6v-17l12 6v8l-4 7l4 11v5l8 13l22 19l19 13l11 35l6 32v27l7 12v52l3 6v156l-5 14l5 15l-6 26v44l-11 29l-21 20l-26 5l-4 12l-6 6v10l-2 3v6l-4 4l6 14l3 3v19l13 21l6 3v3h-3v3l31 6l46 -12l25 -5l23 -13l23 -10zM325 887l18 -27v-28l-9 -9l-19 -6h-8l-28 -9
h-30l-25 -13h-22l-18 -4l-17 9l-7 17v18l24 12l13 3l11 10l16 3l6 6l16 10h6l8 6l16 2l9 6l13 3l9 5l18 -9v-5zM218 564l-12 6l7 7l5 -5v-8z" />
    <glyph glyph-name="Ocircumflex" unicode="&#xd4;" horiz-adv-x="509" 
d="M420 666l9 -3l27 -27l9 -19l4 -3l9 -36v-15l18 -5v-14l-4 -3l7 -6v-3h6v-3l-8 -4l5 -5l-3 -7l4 -4l-4 -23l-7 -6h-6v-9l6 -3l-3 -3v-16l-3 -3v-16l3 -2l-3 -9l4 -12l-4 -4v-45l-2 -4v-12l-3 -9v-24l-6 -13l3 -18l-3 -3l3 -4l-6 -6v-14l6 -7l-3 -3l5 -10l-11 -12v-23l7 -8
l-7 -8v-19l-4 -3v-21l-9 -18l-3 -10l-9 -21l-7 -3v-3l-8 -12l-5 -16h-4l-25 -9l-17 -11l-57 -10h-8l-29 -6l-13 7l-10 13l-6 38l-4 3l4 3v6l2 9v12l18 19l13 6l15 15l3 6h4l14 86l4 4l-4 12l3 24l3 6v30l3 22v52l4 6v49l3 12l-3 16v46l3 6l-7 9l-3 15l-9 15l-18 3l7 11l-4 8
l-15 18h-11l-7 -21h-15l-5 -12h-5l3 6v12h9l3 7l-11 7l-23 -11l5 -15h-8l-10 5l-10 -10l5 -5l9 -3v-3h-6l-3 -3l-9 -3v-6l3 -3l8 -21l-20 -7v-12l-9 -9l-5 5l-6 -7l5 -4h9v-3h3v-4l-15 -8h-10v-3l19 -4v-9l-6 -3l-8 8l-7 -24l5 -5l12 -4l-12 -11v-28l-4 -14l4 -13v-13l-4 -4
l4 -5l-3 -12l3 -10v-14l-4 -9l11 -10l-4 -3l-3 -6l-11 -12l8 -4v-5l10 -3l6 2l-4 -7l-12 -8v-6l15 -15l-12 -4v-18l7 -9h10l-6 -12h-4v-13l11 -23l13 -4l9 -6l16 -26l-8 -51l4 -9h3v-3l-7 -4l-14 -17h-43l-6 5h-30l-13 7l-21 5l-6 7l-6 3l-36 25l-22 40l-7 24l-6 12l-6 53
l4 20l-4 10l3 36v62l6 55l3 12l7 65v55l3 3l3 30l-3 6l3 9l6 47l21 42l19 18l33 21l22 8h6l6 6h21l6 5l28 3h30l10 -8l9 -25v-6h9v12h6l24 23l22 4l7 3v-8h39l24 -13l34 -8zM344 845l10 -5l11 -15v-8l3 -6l-4 -12l-12 -4l-4 -11l-8 -5l-3 -11l-10 3l-4 8h-13l-8 8l-17 -9v14
l3 3v9h-19v19l-9 -3l-3 6h-12l-9 -9l9 3l3 -3l6 -15l-15 -7l-5 9h-14l-9 -9l-20 -14l-23 5l-3 3l-26 10l-4 12v17l15 19l28 25h3l27 27l18 6l7 6h30l25 -7l43 -34zM239 660v-12l3 -3l3 7l6 5v3h-12zM239 627l-6 -13l15 6v7h-9zM263 617l3 -6l6 3v3h-9zM486 489v-3l3 9z
M202 593h3v4z" />
    <glyph glyph-name="Otilde" unicode="&#xd5;" horiz-adv-x="509" 
d="M368 884v-18l-3 -6l3 -4v-12l-3 -3v-17l-22 -7l-9 -9l-10 -3l3 -7l-3 -6l-3 -19l-4 -7l10 -10l4 -10l6 7h11l4 -10l-4 -8l4 -4h16l10 -22l48 -24l5 -12l13 -13l12 -17v-7l16 -15v-21l8 -4l4 -8v-19l-7 -4l4 -36l15 -15v-13l-3 -3l-6 5l-3 -8l2 -6v-18l11 -21l-11 -10
l3 -14l7 -4l3 -24l-6 -4v-6l8 -12l-5 -9l6 -6v-9h-5l-6 -17l11 -5v-3l-9 -5v-31l6 -13l-7 -7l4 -14v-12l6 3v-9l-9 -5v-11l3 -9l-7 -17l6 -7l-14 -22l5 -6l-5 -24l-3 -6v-19l4 -8l-4 -4l-5 5l-4 -9l-7 -9v-5l-9 -16l-19 -18l-17 -13l-25 -14l-6 -7h-13l-8 -3h-10l-18 -6h-39
l-16 12v24l-10 28l7 16v15l36 28l12 12l10 36v24l3 19v19l3 15v180l-3 24l4 16l-4 3l-6 43l-3 9v24l-18 35l-4 12h-5l-11 -5l-12 11l-9 -4h-6l-7 -6l4 -8l-8 -4l-10 4l-3 13l-15 -23l14 -7l-5 -5h-6l-3 6h-7l-12 -13l-3 -12l6 3v-11l-3 -11l-10 -6l-5 4h-18v-9l6 -3v-30
l-3 -13v-22h-16v-9l7 -3l-4 -3v-22l10 -5l-3 -13l-7 -6h-3v-24l-3 -6l8 -12l-5 -28l3 -12l4 -3v-3l7 -4l-7 -12l4 -9l-8 -16v-8l10 -9l-4 -8l5 -10l-12 -11l8 -14h15v-9h-15v-6l6 -7v-6h9v-6l-9 -9v-18l12 -13v-3h7l20 -12h7l17 -27l-5 -17l3 -11v-13l-6 -6v-19l-16 -8h-20
l-4 3h-31l-18 10l-37 11l-5 10l-26 16l-19 28l-5 20v6l-9 19v17l-15 77v19l-6 12v40l3 6l-6 11v68l6 19l-6 6v82l6 37l5 18v15l7 32l6 9l3 11l9 10v6l13 12l7 14l20 13l12 13h8l5 9h3l19 10l8 -5l12 8l35 12h8l3 8h3l8 20l-5 9l-12 3l3 6l-5 21h11l6 6l-5 5l-12 -8l-3 9l3 5
l-15 13l2 9l10 -8h5v9h-15l4 15h-25l-16 -12h-18v6l-12 12l18 37l16 12l27 6h30l46 -9l19 -9l15 -3l19 9l14 14l21 5l15 -8zM279 756v-6h6v-13h-9l-14 14l4 8h-10l7 -30l-15 -8v-6l9 -8l3 3v8l11 11l5 -4l6 3h12l8 8l-11 10v10h-12zM239 737l-9 3l-3 3l-3 -3v-12l-7 -13v-8
l13 -13h3v10l-5 9l8 15h16l-4 9v5zM348 801l4 -21l-6 -3l-3 -10l-12 5v24l19 14l5 -5zM245 777l7 6l-7 3l-10 -11l15 -6l15 16zM314 742l4 -5l3 -9l6 -7l4 4v9h-6l-5 15zM288 777v-15h3l3 3h6v12h-12zM202 143h-9l-5 16h10zM239 756l-3 -3l3 -3h9v6h-9zM190 242h-9v6h9v-6z
M220 159v-3h-12l8 7zM276 783h9l-9 9v-9zM197 605v-5h3l2 2l-2 6zM307 759v-6h6v6h-6zM310 780h8v6zM217 814l3 3v9zM193 544v-2l4 2h-4zM242 639l3 -3v3h-3zM242 655l3 -3v3h-3zM169 489h3v3z" />
    <glyph glyph-name="Odieresis" unicode="&#xd6;" horiz-adv-x="509" 
d="M455 655h14v-9h-6v-5l20 -10l4 -10l-12 -8v-11l18 -2v-12l-6 -3l9 -10l3 -9l-9 -9v-10l15 -3l4 -11v-6l5 -11l-12 -12l3 -20l7 2v-2l3 5l3 -3v-7l-9 -4v-7h-10l-6 -6v-12l-3 -3v-10l3 -3l6 3l-6 -8v-9l11 -12l-17 -4v-9l-4 -18l6 -6l5 10l5 -10h6l-9 -19l-6 -3v-16l4 -3
l-7 -21v-18l-2 -3l2 -13l-5 -24v-18l3 -12l-6 -6l-4 -16v-15l-7 -22l10 -24l-9 -9h-6l-5 -5l10 -10l-8 -4v-6l-7 3l-6 -6v-18l-12 -12v-13l-18 -3l-5 -9l-14 -10h-3l-3 -6h-12l-9 -2h-9l-28 -19h-64l-7 14l4 45l7 3l-9 17l11 3l12 10l21 10l21 46l4 21v107l3 6l-3 6v116
l3 10v42l-3 16v14l-3 10v18l-9 14v7l6 6v7h-9l-5 27l-10 4l-6 12h-7l-6 -6v-6l-15 -16l-8 -14l-10 11v3h10l11 22l3 3v3h-9v-6l-15 -15h-9l-7 -4h-12v-6l3 -3v-3h-5l-4 -9l3 -4l11 6l-5 -22l-15 -7h-4l-8 -19l3 -9l-12 -7l-3 -6l3 -2l-3 -6l-10 -5v-30l-9 -9v-11l5 -11
l-8 -17l4 -8l-10 -18l9 -17l-14 -13l5 -9l6 -6v-6l-10 -9v-37l13 13h6l-3 -4v-9h-8l6 -12h-7l-7 -10l4 -8l3 -22l6 3l5 -4l-8 -8l-10 -4l4 -11l6 -3v-9h-7l4 -22l10 -7l-5 -10l8 -15l11 -6l4 -11l12 -10l9 4v-16l6 -3v-58l-3 -5v-12l-21 -14l-22 4h-9l-24 6l-22 3l-28 13
l-16 9l-8 12l-10 3l-18 22l-8 15l-3 12l-6 10l-7 35v56l-3 9v37l3 24v40l4 10l-6 18l5 6l3 80l7 66l5 31v19l6 55v13l12 33l13 12l3 12l27 21l9 4l10 9l31 12h21l12 6l25 3l18 9l8 -8l4 8h10v-3h6v-6l8 4l6 -7l4 -12h6l9 6l-3 6l-9 4v8h6l8 4l7 -7v-10l13 4l6 9l6 3v10h9
v-10l-7 -3v-14h10l3 2l-3 6l3 9h19v-12l-7 -3l3 -2h37l8 -8l-5 -5h-6l-3 -3l9 -3l18 4l7 -17l6 -6l8 12l10 -6l3 -12h3v-6l12 -7l7 7h3zM227 860v-36l-15 -16l-10 3l-5 -6h-34l-30 6l-10 18v34l3 6v7l7 14l11 6l25 3l22 -3l11 -6h15zM383 863h-3v-6l6 -13v-15l-3 -2v-10
l-21 -21l-3 6h-3l-3 -13l-3 7l-7 -7h-7l4 10v6l-21 -7l-7 12l-11 6v16l4 8l-5 10l5 20l5 6h5l7 6h37l3 -3l21 -8v-8zM205 542v-11l16 8l-3 3h-13zM184 502l-3 -7l3 -3l4 3v7h-4zM257 673l3 -6l3 6l-3 3zM255 685v-9l2 6v7zM423 673v-3l6 6zM267 695h3l3 6zM263 615v-3l4 3
h-4zM169 472l3 -4v4h-3z" />
    <glyph glyph-name="multiply" unicode="&#xd7;" horiz-adv-x="459" 
d="M408 422l-15 -21h-4l-24 -25v-18l3 -6l-6 -3h-6l-9 -7l6 -3l-3 -18l-13 -8l3 -7h10l3 -12l3 -3l-6 -4l-3 -6l12 -12l6 -10l10 -4l5 -10l22 -27v-22l-10 -9l-6 -3l-3 -4l-9 -3l3 -3l-22 -23l-36 10l-6 7l-11 4l-4 12l-13 6l-9 9h-9l-3 5h-4l-3 -7l-6 6l9 11l-8 3l-6 6h-22
l-12 -6l-3 -13l-7 10l-33 -27l-3 -10h-8l-16 -21l-7 -12l-21 -4l-22 12l-28 30l-5 14l3 3v5l6 13l34 34h3l3 6l28 27l8 5l3 17l3 3l-3 15l-3 3l-9 21l-9 4l-24 24v12h-10l-14 16l-3 9l-4 3l-3 13l10 20l6 4l4 10l17 11l6 7h28l5 -10l25 -16l16 -21l12 -5l8 -10l12 6l4 -12
h16l30 6l21 21h7v6l9 10l9 3l6 12l12 6l3 4l10 3l6 5h9l49 -49v-18zM368 269h-3v6l3 3l4 -5zM331 333v-6l12 -8l-7 14h-5zM237 401l3 -4v4h-3z" />
    <glyph glyph-name="Oslash" unicode="&#xd8;" horiz-adv-x="509" 
d="M435 670v-9h13v-12l-5 -4l5 -5v-12h28l9 -19l3 -12h8l-14 -18l4 -15l-10 -4v-3l3 -3l3 3h13l6 -17l14 -10l-8 -20l13 -12l-8 -12l-3 -11l8 8l8 -8l-8 -16h11v-6l-6 -6h-3l-7 -6l-25 -7v-5h13l-3 -6l9 -9l5 -10h14v-9h-6l-13 -20l3 -13l3 -3l-6 -4l-3 -6l-6 3v10h-3
l-8 -27l5 -17v-5l4 -4l-7 -13l9 -8l-6 -13v-9l6 -6v-8h6l3 -4l-4 -4l-11 6v-23h-9v-3l15 -13l-10 -5v-22l10 -9l-12 -4v-24l6 -6l-7 -3l-5 -15v-16l3 -3l-6 -3l-13 -24v-9l-26 -22l-10 -16l-34 -5l-16 -15h-17l-13 -7h-31l-22 -5l-19 6l-5 15l-3 30l3 9v10l7 30l28 22l8 4
l3 8l9 9l7 18v16l6 18v12l-3 3l9 9v25l5 43l-8 12l6 10v14l-3 6l3 4v21l-3 15l8 24l-8 16v7l-7 3l5 11l-4 3l-10 3l-6 -11l6 -6l-3 -3h-11l-3 -10l-16 -15h-8l-4 9l4 12l-6 19l5 37v12l9 27v12l-9 4l-3 -10h-6l-4 3l13 13v12l-18 -8l-4 -14h-9l-5 -15l-4 3l-28 -4v-18l-9 -5
l-16 10l-8 -7l-6 -3l6 -12l9 -10v-25l-4 9l-11 -11l6 -9l-20 -4l-8 -15h3l5 5l14 -14l6 -13l-3 -11l-6 -6l-3 9h-3v-16l3 -18l-10 -10v-6l4 -4l6 10l12 4l3 -7l8 -7l-6 -9l-8 -5l-6 -9h6l9 -3l9 9l7 24l-16 8v8h-12v6h19l2 -3l-4 -5l15 -9l14 14l6 -12v-7l12 -9v-2h-6
l-3 -16l4 -26l-4 -18l5 -15l-5 -5h-3v-16l-3 -3v-9l-6 -3l-15 -24h15l14 -7l-7 -7l-4 4h-3l3 -15h6l6 -6v-12h-6l-8 -15l5 -10v-9l11 -11l-6 -11l4 -11v-13l6 -9v-6h3v-10l-12 -24l-19 -6l-45 -3l-18 6l-44 -9h-18l-6 3h-6l-15 16v25l-10 14l-22 43l-8 37v40l-3 24l3 95
l3 24v178l5 6v43l4 21v22l7 21l14 25l34 33l25 12l36 13h15l39 6l26 -8v-17h9l6 13l7 -4l5 -9l-8 -3l-4 -6l5 -4l7 4l6 12l13 6l14 10l7 -3l7 3h58l8 3h53l5 -6zM206 138v-9l-4 -11l13 -6v20l-6 6h-3zM234 535v-12l19 4l-10 12zM194 508v-12h6v12h-6zM243 110h-6l-3 3l9 7
v-10zM248 542l10 -6v6l-2 2zM253 159h-7l2 6h5v-6zM163 437v-3h7v3h-7zM176 447l3 -3h3l-3 3h-3z" />
    <glyph glyph-name="Ugrave" unicode="&#xd9;" horiz-adv-x="494" 
d="M169 673v-21l-3 -9h3l3 -16l3 -3v-22l6 -11l-11 -11l8 -8v-6l-8 -8l5 -4l3 -7l6 -3l-6 -5v-19h-6l-6 -6v-6h12v-27h-9v-3h3l5 -5l14 -4v-7l-13 -8l-3 -13l-5 -6l10 -5l4 -7l9 -4l-12 -12h-9l6 -6v-22l-10 -9l5 -16l-4 -5v-6l9 -3l3 6l6 -3l4 -9l-10 -3v-10l5 -5l-8 -16
l-6 -6l6 -6v-12l-6 -7v-12l-15 -14l15 -10l-13 -6l-4 -9l17 -4l-6 -12l18 -2v-6h-18v-16l-11 -16l5 -11l9 8l3 7h3v-13l-7 -21l4 -9v-6l3 -3l6 6h13v-9l-5 -9l16 -10l13 -6l3 -21h9l8 4l10 -9l-15 -8l-6 7h-6v-28l4 -9l-6 -24l-11 -4l-4 -8l-62 5l-31 10l-3 3l-13 3l-30 20
l-25 32l-9 27l-6 7l-9 36l-3 33v74l-3 9l3 110v150l3 19l-3 42v119l18 19h119l13 -12zM466 677l-4 -82l4 -20l-4 -9l7 -12v-3l3 -4l-3 -3l6 -8v-12l-6 -7l3 -9l-8 -11l10 -10l-5 -9l-3 -16l-4 -9l5 -13l-5 -9v-14l-3 -22l7 -33l-4 -16l-4 -41l4 -26l7 -3l-7 -13v-11l9 -4
l-12 -12v-15l11 -11l-4 -5v-8l-7 -7v-70l-3 -6v-22l-9 -8l-18 -38l-31 -30l-15 -9h-10l-8 -6l-22 -10h-9l-13 -6h-30l-18 19v45l4 18l-9 9l20 13l30 22l21 31l4 39v55l3 9l-3 7v42l-3 6v21l-3 10v281l3 12v43l-3 6l3 12l9 16l13 6h61l30 -10zM340 802l-6 -10v-9l-7 -11
l-14 -4h-19l-70 21l-44 15l-8 4l-13 3l-12 12v27l6 19l6 6l6 11l14 6l57 -20l16 -3l30 -12l32 -8l26 -22v-25zM236 23l-3 11h9l4 -3zM191 142h-13v5h13v-5z" />
    <glyph glyph-name="Uacute" unicode="&#xda;" horiz-adv-x="494" 
d="M166 648l4 -31v-17l6 -13l-3 -9v-22l4 -5l-4 -13l6 -27l-6 -13v-61h9v-18l-3 9h-3l-3 -9l6 -6h4l-4 -13l6 -3v-3l-6 -3l-6 -13v-30l3 -9v-9h-6l9 -18v-6l-3 3l-3 -3v-16l-3 -9v-19h7l-4 -8h-3v-13l-4 -3v-12l7 -16v-14l-8 -4l9 -18h20l6 6h4l-4 -9l4 -9l-11 6l-8 -3h-6
l-3 -4l11 -10l-7 -7l14 -6l12 -13h9v-6l10 -13l12 -9l-3 -43l-8 -18h6l-7 -15h-16l-27 -7l-49 16h-6l-22 9l-6 6h-9l-4 6l-17 10l-10 9l-12 16l-12 23v7l-6 5l-3 37l-6 19v39l4 12l-6 12l5 25v65l-3 6v18l3 13v33l5 34l-6 123l4 11l-3 7l3 25v63l5 19v6l10 9l28 3l40 -6l6 7
l33 -4l15 -15zM466 685l7 -28l3 -21l-3 -13l3 -23l-6 -19v-46l4 -12l-4 -16v-67l3 -3l3 6l4 -14l-10 -10v-28l3 -14l-3 -16v-16l-6 -10l6 -5l-4 -7v-14l9 -4l-9 -9v-25h4v-12h-4v-24l7 -6l-7 -3v-10l-4 -12l4 -11l8 -8l-4 -14l-7 -10v-27l-9 -12v-13l-6 -12v-9l-13 -12
l-6 -14l-46 -31l-20 -4h-13l-6 -3h-48l-5 19l-5 5v28l-4 13l6 17l48 28l8 21l6 11l3 27l4 15l-4 48l3 9l-6 31v55l-3 7l-3 70l3 21v196l6 6v40l15 15l36 6l12 -6l10 4l19 -4l6 -3h6l9 -9v-9zM319 853v-24l-11 -13h-25l-7 -6h-33l-22 -7l-11 5l-10 -10h-18l-3 6l-6 -3l-3 -6
l-8 7l4 8v6l13 10h6l8 6l44 21l16 3l8 9l25 13h9l13 -10zM237 122l-6 6v6h3l8 -7zM463 180v-3h3v3h-3zM209 823v-3h3v3h-3z" />
    <glyph glyph-name="Ucircumflex" unicode="&#xdb;" horiz-adv-x="494" 
d="M463 679l3 -9v-21l5 -9l-5 -13l3 -6v-21l10 -12l-3 -16l3 -6v-6h-16v-13h22l-9 -5h-4v-13l7 -12v-16l-13 -12l5 -9l-5 -6l-3 -21l3 -7v-17l6 -6l-6 -7v-18l3 -13v-70l-3 -24l3 -13v-36l3 -12l-3 -25v-18l-4 -12l4 -25l7 -3l-5 -4l-5 -14l7 -7l-14 -9l4 -25l-12 -8v-7
l-13 -21h-3l-14 -15l-4 -7l-12 -5l-9 -9h-13l-24 -13l-53 -10l-17 7l-13 13l-3 17l-6 10l5 14l-11 -11l-6 -40l-24 -12h-37l-9 3h-15l-19 6h-8l-50 25l-33 33l-16 31l-12 40v9l-9 27v55l-3 13l3 6v18l-5 16l5 12l-3 15l3 13l-3 11v119l-3 25l3 24v50l6 18v61l3 69l12 17
l102 7l17 5v-9l-4 -8l7 -8l7 -3l3 -18l3 -3v-15l-5 -13l11 7v-6l-9 -7v-6h9l6 -9l12 -13l-13 -13l4 -4l-4 -5l7 -8v-15l-3 -3v-23l9 -4v-25l-9 -10l4 -33l-7 3h-6v-31l6 -18l6 -9l-6 -3l-9 -13l18 -17l-12 -4v-24l-4 -18l4 -4v-56l9 4l4 -3v-3h-4l-6 -6l-7 4l4 -16h3l3 9
l3 -6v-15l-11 -8l17 -17l-12 -6l-4 -12h7v-18l7 -25l11 -12h12v-9l6 5l16 -20l14 -9l4 -31l3 -6v-16h6v22l3 6v6l20 31h8l18 12l19 9l3 9l3 3v6l9 19v27l3 6l-3 6v46l6 6l-4 14l4 99l3 13l-8 57l5 40v74l-3 12v27l3 6l-5 49l5 10l-5 5l6 34l9 4h11l6 2h46l9 -2h10l12 -12
v-22zM358 823l-7 -13l-10 -6h-10l-4 -9h-26l-12 12l-10 4l-6 9h-12l-8 9v12l-8 7l-17 -4l-16 -15l-14 -8v-4l-13 -13l-22 -7l-20 7l-15 11l8 19h3l7 15l11 4v9l46 46h12l21 5l10 -5l10 5l19 -7l29 -22l21 -18l22 -22zM181 541l4 -15h4l-4 18z" />
    <glyph glyph-name="Udieresis" unicode="&#xdc;" horiz-adv-x="494" 
d="M162 690l-5 -5v-12l8 -9l5 9h6l9 -10l-3 -3h-12v-3l3 -2v-16l3 -6l12 6l3 -6l-3 -6v-6h15v-10l-5 -9v-8h-10l-10 -7l7 -15l-4 -8l10 -11l-9 -3l3 -3v-8l-3 -4v-6h16l5 -15v-13h-9l-3 10h-6l-5 4l-5 -17h10l6 -6h9v-8h-15l-6 -7h3l6 -6v-9l-7 -4l4 -12l9 -4v-8l-15 -4v-14
h3v-6l3 -3v-3h-15v-10l3 -6l-7 -6l4 -6l10 -5l-4 -4l-10 -3l-3 -6h16v-9l-8 -4l-8 -31l11 -6l-14 -7v-7l11 -7l-7 -13l6 -20l9 -3l3 -6h3l6 -6h-8l-4 -19l-16 -8v-5l22 -7v-4h-12l-11 -7l8 -15v-9l13 -4l-4 -9h6v-6l-5 -9l12 -13l6 11h8l6 -7l-9 -4v-5h18l7 -15v-13h15v-16
l10 -5h5v-6h-15v-9l-4 -9l4 -13l10 -3l-10 -2l-12 -13l-6 -3l-9 -8l-59 5l-18 3h-9l-16 6l-3 4l-25 11l-23 25l-16 25v11l-8 12l-4 35v82l-4 12l4 13v55l4 9l-4 9v46l-5 28l5 9l-4 6v74l-2 5v28l-6 104l5 5l-8 16v55l11 7h19l40 9h61zM473 690v-19l9 -5v-6l-8 -7l11 -7v-7
l-6 -6v-6l11 -13v-12l-4 -7l4 -5l16 -3l-6 -12h-10l3 -16l10 3l4 -4l-10 -11v-12l-10 -9h-11v-3l11 -9v-10l-5 -3l-6 -12l-5 -15l13 4l6 -4v-3h-6l-8 -12l-3 -16l-3 -6v-8l-10 -28l3 -7v-58l7 -3v-6l-7 -3l3 -7l-4 -30l8 -15v-33l-5 -9l5 -4v-12l-4 -7l8 -7l-11 -15v-26
l-7 -14l5 -8l-7 -27l-5 -5l-11 -32l-20 -21l-13 -7l-19 -15h-12l-8 -5l-16 -3l-31 -10l-17 5l-7 13l-7 18l4 4l3 21l4 9l-7 4l12 14l35 18l-6 6l14 14l6 8l10 10v15l3 22v61l-3 8v25l-7 30v38l-3 3v14l-3 19l-3 74v33l-6 13v196l9 8l13 6l6 -3l5 6h12l16 4h33l17 -9z
M375 845l-4 -25l-15 -16h-18l-7 -3h-17l-19 -6l-6 3l-31 6v7l-5 6h-7v-13h-6v14l-15 8h-14l-6 -19l-17 -9v-8l12 -6v-5h-6l-7 -3l-11 5v8h-25l-6 -3l-9 6l-35 7l-12 13l-5 19v49l13 19h36l6 3h27l32 -16l11 -11l-7 -4l4 -27l6 -6h14l5 9l-10 9v6l16 -3v-15l3 -13l9 5l-6 11
h8l5 39l13 12l52 8l32 -4l14 -14zM482 556h-3v-6h11zM206 831v-2h3v2h-3zM163 232h3l4 3zM470 614h3v3z" />
    <glyph glyph-name="Yacute" unicode="&#xdd;" horiz-adv-x="512" 
d="M158 669l9 -40l16 -18l3 -15l3 -3v-19l12 -12v-17l9 -4h5l15 -22l-5 -28h10l6 -5v-6l-3 -3v-19l3 -3v-9l3 -4l3 7l6 -7l-5 -15l10 -10l11 22l11 3l7 4v-16h-7v-2l8 -4l-14 -27v-6h-3l-4 11l-6 -6l7 -15h6l6 6h15l-6 -30h7v-3l-12 -3v-6l11 -8l4 -8l6 -6l-6 -6v-11l6 -10
v-3h7v-15h8l3 -4h16l-7 -6l-14 -3l14 -27v-17l16 -6v-23l-3 -6v-12l6 -3v-3l-9 -5v-32l-3 -6l6 -6l-3 -49l4 -31l-7 -15l-13 -3l-6 -6h-15l-6 3l-6 -3h-34l-12 -3h-22l-3 3h-12l-12 6l-9 21l5 9l-5 40v163l6 5l-3 3v12l-9 19v15l-13 15l-23 50l-10 14v10l-6 6l-12 19l-13 30
l-8 8l-4 14l-12 14l-3 13l-15 28l-13 20l-17 39l-10 16l-3 13l-9 9l-10 28l-6 8v10l-8 7l8 8h6l6 6l21 4l21 -4l7 4h58l25 -7l3 -6l6 -3zM488 681l-5 -27l-10 -14v-11l-21 -42v-25l-10 -5v-8l-6 -11l-13 -36l7 -8l-13 -4l-5 -20l-12 -15v-13l-17 -26l-11 -35l-16 -32l4 -20
h-6v16l-9 9l-6 -6h-13v13h9l-3 3h-12v-16l-8 -6l-4 3v16l6 3v36l-6 3v6l-13 14l10 13v19l7 6l-4 6l8 13l4 11l6 6v16l6 12l22 65v4l19 55l5 5l7 28l8 8l7 3l14 10h50l9 -3h15v-19zM302 375l-3 3v13h3l8 -8zM210 522l3 -3l3 3l-3 7zM317 852l11 -22l-6 -10l-32 -17h-6
l-32 -10l-28 -11h-14l-18 -10h-9l-10 -4l-15 4l-6 7l-6 3l-6 12v9l-4 14l7 8l22 13l64 20l24 13l9 3l6 6h34l12 -7z" />
    <glyph glyph-name="Thorn" unicode="&#xde;" horiz-adv-x="460" 
d="M429 514l9 -10v-9l11 -32l5 -4l6 3l3 -3l-6 -7h9v-12l-3 -9l5 -4l-7 -27l5 -12l17 -8l-15 -14l5 -14l-4 -6l-3 -16l-12 -12v-31l6 -6v-15h-6l-3 3l-3 -3v-15l-10 -9v-13l-6 -6l-11 -27l-12 -7l-13 -21l-13 -6l-11 -11l-13 -5h-6l-35 -7l-7 -4l-15 3l-7 -3h-16l-9 3l-6 -3
v6l-18 8v3l-9 4v12h-13l-8 12l-4 -9v-12l-6 -13h9v-8h-12l-6 -13l3 -3l-4 -11l4 -4v-3h6l3 9h-3v6h12v-9l-12 -13h-9l-6 10v12l-12 -8l7 -12l-7 -13v-44l-10 -28l-22 -12l-109 4l-12 20v35l5 11l-6 12l4 29l4 7l-6 43l5 5v39l3 86l-3 4v55l-3 21v64l-3 25v36l3 13l-3 6
l3 143l3 9v13l18 19h34l12 6h74l12 -16l12 -22v-3h8l7 -32l-6 -7v-8l9 5l3 -3l3 3v6h9v-6l-3 -7v-15l10 -8l-7 -10l7 -6l20 4l35 -4l10 -4l17 6l9 -5h12l22 -6l30 -16l7 -6h6l15 -12l3 -6l13 -9zM258 459l-12 -13v-15h7v12l5 3v-12l6 -5l-3 -4h-16l-6 -21l-11 6l-13 -19
l-21 -21v-18l3 -6l-3 -7l-15 -5v-13l6 -7l12 13l3 -3v-15l-11 -15l-7 -3v-7l9 -3l6 -6l6 -3l6 -9l-3 -4h-6l-6 -13l3 -7h3l3 9l6 6l6 -9l-3 -6h-9v-10l9 -9l10 10l9 -4l6 3h9l18 13l9 9l23 10l12 36l3 3v42l3 7l-6 45l-4 3v19l-9 18l-19 9l-10 11l4 5h-12zM228 208l-16 -12
l-3 -6l6 -3h13l3 -13l7 4l-6 20l8 3l3 -2v5zM243 129h-12l-16 12v5l3 3l10 -6l6 -8h9v-6zM221 223l-11 -11l8 -5l10 10l6 3zM221 94l-15 -10v7l15 8v-5zM212 364v3l9 12l2 -5zM204 397h11l-6 10zM206 204l3 -5l3 2l-3 3h-3zM228 327h-4v3h4v-3zM203 284h-3v3h3v-3z" />
    <glyph glyph-name="germandbls" unicode="&#xdf;" horiz-adv-x="451" 
d="M378 662l-7 -6l2 -4l9 -3l-9 -3v-4l29 -7l-7 -7l3 -4l-4 -3l4 -15l13 -12v-15l-11 -11l11 -5l8 9l4 -18l5 -5l-5 -5v-11l-3 -6v-10h-13v-9h16l-12 -12v-3h14l-6 -11l-11 -5l-4 -18h-9v-12l4 -4l5 10l3 -3v-6h13l-3 -7l4 -4l-10 -19l-4 -16l-6 -6l-9 3l-5 5l-5 -5l4 -6
l15 -4l-6 -12l5 -4l11 10v-11l-14 -7l7 -27l3 -4l-3 -3l7 -9v-7l15 -23v-22l5 -15v-21l8 -29l8 -8l-3 -6l-6 -3v-25l-7 -12v-15l-9 -20l4 -11l-8 -4l-15 -32l-14 -10l-8 -12l-25 -19l-37 -19l-44 -5l-16 -5l-22 6l-10 21v39l-7 7l4 6l4 27l20 12l26 19l20 26v10l6 13l7 30
v22l-3 12v10l-12 33h-7l5 10l-15 15l-12 5l-8 9l-13 7l-6 6l-11 3l-10 16l5 6h7v8l-3 13l3 6h-16v-14l-9 -13l6 -3l-3 -4h-8v13l-4 5l5 9l-15 4l4 -18l-5 -14l5 -5h13l5 -9l-8 -3v-6l-16 -4l-5 -9h-4l-10 6l-3 -3v-6l6 -5h3v-10l7 -18l9 -10l6 -9v-6h-12v-3l6 -2l-9 -10
l-3 3l-7 -6l3 -6l-6 -3v-3l6 -3l-3 -7h-3l-3 -6l9 -12v-21l-3 -3v-55l6 -11l-6 -5v-12l-3 -9l10 -23l-7 -11v-26l-18 -23h-21l-13 3h-67l-13 13l-3 24v25l-2 15v43l-6 24v144l3 43v77l3 20l-3 13v39l3 25v37l9 37l3 6v9l12 18l4 11l9 5l-4 3v6l4 3l14 20l52 29l31 3l13 -12
v-7l6 -6v-12h9l8 -4l10 7l-11 12v10h8l10 -21l12 11l-7 7l11 21l30 5l30 -8h20l26 -15l15 -13v-3l3 -3l6 5l4 -11l7 8zM263 563l-3 3l-5 -12l-13 -12h-6v-6h9l3 -3l-3 -3l-6 -16v-9h-3l-11 7l6 6l-4 9l5 5l-8 4l-4 6h-6l3 -12h-6v14l-11 -11l3 -5l-6 -7v-7h-14l4 -12v-13h13
v13l5 3l9 9h6v-9l-6 -6v-10h13l9 10l6 -3v-3l-18 -7v-11h15l6 3h5l-8 -16v-9l-3 -6l4 -4l19 5l-7 8v9l5 13l-3 3l-4 12l10 -4l5 -4l-8 -16h3l4 8l8 4l4 19l-29 15l13 18l5 30h-5zM175 417l-10 -5v8h-6v-8l13 -8h6l6 10v3h-9zM395 420l-4 -9l10 6h6v11zM166 274l6 -11l3 16z
M168 373l-4 -4l4 -4h4v6zM211 426l-3 3h-3v-6h9v3h-3zM165 517v-6l3 -3l4 3l-4 6h-3zM159 346v-12h6l-3 12h-3zM187 646v-6l10 6h-10zM236 585l3 -3v-3l6 6h-9zM193 472h7v6zM379 417l-3 -3h6l4 3h-7zM187 429v-6l6 6h-6zM282 514l3 -3v10zM178 346l-3 -3h6v3h-3zM272 563h3
v3l-3 3v-6zM257 579l3 -3h3l-3 3h-3zM217 420l3 -3v6zM414 548v-4l3 4h-3zM205 486v-2l3 2h-3z" />
    <glyph glyph-name="agrave" unicode="&#xe0;" 
d="M402 462l7 -6l15 -37v-6l5 -9h7v-10l-4 -9v-6l6 10l7 -7v-6l-6 -3v-6l3 -3l-6 -6l-7 -10l7 -15v-21l6 -6v-6l-6 -3l-7 -25h-4l4 -24l5 -9l-7 -4v-15l6 -14l-7 -16l3 -10l3 7l13 -5v-11l-13 4v-10l8 -7l-4 -9l-10 -5l3 -37l4 -4l-5 -18l11 -12l-9 -8l6 -17v-23l-23 -16
h-74l-17 12l-4 5l-26 5l-25 -10l-9 4h-7l-8 11v47l-7 7l17 17l3 9l11 6h6l10 16v24l6 6l-3 33l-8 24l-11 10h-14l-4 8l-20 12l-7 -7v-9l3 -4l-3 -6l3 -6h-3l-8 7l-8 -4h-8v-22l-22 -20l-4 17h-13l7 -14v-13h7l3 8l12 -6v-8h-25v-19h13l6 -6v-8l-6 3h-16l4 -12l20 -5l4 22
l3 3l-9 9l3 4l10 -5v-11l-4 -5l4 -22l11 -16l-3 -6v-8l5 -5l-8 -48v-7l-9 -5l-3 -6l-12 -6l-22 3l-6 3h-15l-6 6l-28 8l-24 13l-3 6h-3l-22 22l-6 13l-14 46l-7 48v37l6 6l-3 3v22l12 24l6 18l18 19l27 19l19 5l19 9h36l6 7h7l9 -10l6 3v13h15v12h-8l-15 -7l-4 4h-6v-6h-7v9
l-9 -9h-9l-2 6l-4 3l6 3l9 9h17l17 12h10v-9l5 -6v-3h12l-12 12l5 5l-8 7v19h6l12 6l8 11l8 -8l-6 -6l11 -17l-5 -5v-15l9 -3v15l12 12l-12 4l3 19l-10 9l-21 -4l-4 -3l-8 3l-8 -9l-13 -6l-6 -12h-13l-4 -13h-11l-9 -9h-28l-62 20l-23 24v17l22 38l30 20l3 4l34 15h15l18 9
h47l5 -9h18v-9l-6 -6h-3v-4l19 4l6 18l-5 11l5 5l3 -6l6 -4l12 6l43 -9l7 -3h14l44 -18l8 -10l18 -11zM314 643v-28l-20 -15l-21 2l-3 3l-13 -4l-4 4l-24 4l-14 9l-20 3l-36 8l-19 10l-6 29l14 31l19 6l37 -12l21 -11l31 -8l27 -11l12 -8l13 -3zM258 352h-5l-7 6h-9v-6
l-6 -10l6 -9l16 -3l-3 -6l8 -3h9v-7h13v4l-7 6v3l-7 11l6 11zM267 394v-3l6 -3v-9h-9l-11 -3l4 -9l7 3h6l10 -9h4l-5 33h-12zM222 361h-13v-9h9l16 12l-9 8zM256 211l-3 -4h-13l-3 4l6 6h13l5 -3zM231 199l-16 -3l-6 5v3h22v-5zM182 223l-9 3v-8l18 -5v10h-9zM258 143h-5
l-3 3l3 6v10h5v-19zM228 171h-13v9h13v-9zM191 251l-7 -8l6 -6l10 10zM225 533h-10v7l10 -4v-3zM209 474v-4l9 4h-9zM222 489h3v3l-3 3v-6zM218 468v-6l4 3zM154 364h6l-3 3zM222 388v-3h3v3h-3zM206 251l3 -3v6zM206 440h6l-3 3zM157 220h3l-3 3v-3z" />
    <glyph glyph-name="aacute" unicode="&#xe1;" 
d="M300 596l-9 4h-13l-3 -22l-10 7l-10 -4l8 -9h25l9 -7h9l6 -5l15 -4l3 -3l28 -11l15 -16l10 -4l33 -36l18 -44v-14l6 -28h4v-6l-4 -6v-21l4 -7l-5 -49l5 -18l3 -3v-9l-7 -6v-13l-3 -10l3 -8l-3 -6v-9l8 -8l-5 -14l-9 -8v-22l6 -6l-7 -19h14v-6l-7 -5h-6v-19l9 -9v-4h-4
l-5 -9l3 -9l-9 -23l6 -7v-16l-2 -3v-8l-19 -7h-49l-6 6l-18 10l-7 14h-6l-6 4h-21l-9 -10h-10l8 16h-14v21l3 3l3 12l7 6l12 -6v13l14 33h-11v6h7l-7 22l8 8l-8 22l-18 4v12h9v-10h6v13l-7 13l-24 -10l-5 -5l-10 5v9h4l2 -3h12l6 13v9h-6l-12 5h-9l-3 3h-3v-8l-6 -6l-5 -18
l-8 11h-12l-9 -9h-27v-6l3 -3l6 3v-3h30v-10l-15 -6l-22 -4l-6 -10l-3 3l-3 -3l10 -10l3 6l9 9l3 -2l-3 -22l-6 -9l-14 21l-10 -19l14 -15l-9 -9v-10l12 -6l4 -8l-3 -3v-6l15 -10l12 3v-6l-3 -7l3 -27l6 -12l6 -6v-3l-9 3l-4 -15l-10 -15h-43l-13 9l-17 3l-5 6l-14 4l-11 11
h-5l-26 26l-10 24l-8 13l-6 27l-8 23v77l3 18l5 12l3 16l10 12l3 10l12 11l7 3l19 21l33 10l12 7h58l3 6l9 -3l6 -6l-3 -4l3 -3l9 7h9l7 -7l9 -3l9 -9h18l9 3l4 -3h9l3 3h-9l3 6l-16 -4l-12 4h-9l-4 5l13 5l3 -4h6l6 7l7 -7h9l3 7l-3 21l-6 10l-4 26l-15 10h-13l-8 12l-3 12
l-9 6h-10v3l-30 -31v-6l-12 -7v-7l3 -4v-9h-6l-3 3l4 4l-17 -4h-12l-7 -6h-36l-24 12l-16 5l-6 5h-9l-19 17v33l10 14l4 13l36 36l30 12l11 7l32 8l37 12h18l3 4h6l3 3l10 3l3 -3v6l-3 6h4l5 -9h7l-4 22l-9 3v11l3 3l16 -6l3 -9h7l5 14l10 -10l11 5l6 -6l8 -4zM321 700v-12
l4 -8l-13 -23l-18 -2l-25 -13l-4 -8l-19 -5l-4 4l-8 -8l-38 -5l-9 -3h-44l-17 19v39l6 7v4l21 14l59 20l24 14l30 9h31l10 -10zM196 141v-16h-3l-3 9l-11 4l-9 13l12 -6l11 4l6 -3h9zM453 186h-6l-10 6l10 9h3zM244 204l-8 -3l-6 9h-4l-3 6h14zM236 124l-10 -5l-4 4l4 8h7z
M223 568l3 -3l-6 -6l6 -6l7 6zM256 364h-8l-4 4l7 7zM223 262v-10l10 5l-3 2v3h-7zM202 177h-6v6h6v-6zM193 254v-3h6v6zM282 88h3l-3 3v-3z" />
    <glyph glyph-name="acircumflex" unicode="&#xe2;" 
d="M295 697l24 -21l6 -13l13 -12l8 -16l-17 -21l-23 -7l-29 11l-16 -4v-9h16l12 -5l-6 -7l-6 -3l3 -6l-15 -15l12 -4l5 -28l37 -8l9 -6l20 -4l12 -12l21 -7l12 -17l12 -12l13 -22l8 -23l3 -47v-27l6 -7l3 -18l-3 -7l3 -6l10 -2l-9 -8l7 -13l-8 -7h4v-6l-10 -9h6l7 3l6 -13
v-17l-13 -4l-6 -6v-15l-3 -4v-17l-4 -5l6 -14l-7 -15v-16l-4 -17l4 -7v-6l6 -11l-6 -14v-15l3 -9v-15l-5 -5l5 -5v-30l-55 -3l-32 5l-24 16l-8 9h-22l-19 -9h-14v12h-3l-7 19l7 6v23l17 26l16 8l-3 11l-7 6l10 8l13 16l-4 25l-7 17h8l-4 13l-6 6v8l-10 4l-14 14l-5 -6l4 -4
l-8 -35l-4 6l-3 25l-18 4v6l-7 9l-3 -3l-3 -21l-12 12h-18v-7h18v-12l-6 -6l-4 4l-6 -6l9 -10l5 9h2v-21l7 -4l-16 -6v10h-9v11l-16 -8v8h-9v-11l8 -17l-5 -5v-6l6 -6v-7l7 7h6l3 -7h9l3 -3l4 6h20v-6h-9l-9 -9l3 -2l-3 -3h-24v5l-3 3l-7 -3v-8h4l15 -16h6l3 -9l6 -4l-4 -20
l8 -8l-10 -11v-15l4 -12l-7 -12v-10h-25l-5 -5l-16 5l-15 -4l-49 16l-12 12l-10 5l-21 26l-3 10l-7 13l-11 47v80l6 25l3 6l3 15l15 31l25 24l24 9h9l13 6h9l8 4l11 -7l3 10l14 -4h22l12 -6h34l25 -9l3 -7l21 -3l12 -3v6l6 13h-3l-9 9v13h-3l-6 -6l-10 6l-11 3l3 3h8v6
l-8 12l2 3h11l5 15h12v6h-16l-4 9l-9 5l4 5l-4 10l-14 10v10h-9l-13 13l4 9h9v15l-3 3l3 6l-6 6l-15 -4l8 -8l-15 -23v-23l-30 -30l-10 -3l4 -6l-4 -4l-6 4l-22 -16h-27l-8 9l-22 3l-6 4l-31 12l-11 10l6 33l26 31l10 5l10 10l36 15h9l18 9h46l15 -8v-14l3 -3l3 3h13l12 -4
v11h-12v6l9 3l9 6l-3 9l-14 -9h-14v9l16 15v-6l9 -3v3l-6 9h-13v3l4 3l6 17l-16 8l-6 6l3 9v9l6 6l-3 10v12h-11l-6 -22v-12h-10l-7 -4l-37 11l-20 21v9l6 10l9 3l9 14l22 22l15 9l6 10l7 2l7 9l36 4l12 -4l23 -4zM212 183v-6l-12 -6h-15v3l9 9h12l5 11l6 -6zM258 559l-7 4
l7 -22v-3h9v12l-3 9h-6zM170 235v-9l-4 -3l-3 -6l19 6v12h-12zM448 165l-6 -7l-4 -9l-6 -3l-3 5l3 4h3l3 10l10 3v-3zM228 608v-6l6 -6l-3 -3h9v9l-6 6h-6zM225 639l3 -3v-13l3 -3l6 10l-7 14zM237 388l-16 -5l-6 2l19 9zM256 596v-6h11v3l-8 7zM239 193l4 8l13 -2v-6h-17z
M226 171h-8v15zM432 259l3 -2l3 -6h4v8h-10zM246 572l-3 -7h7v7h-4zM256 627l5 -7v7l-3 3zM188 620h6v7zM246 648v-3l7 3h-7zM243 248h3l-3 3v-3zM225 382h-7l3 1z" />
    <glyph glyph-name="atilde" unicode="&#xe3;" 
d="M409 474l9 -3v-12l10 -10v-9l2 -3l-4 -5l4 -47l3 -6v-36l6 -7l-4 -19l5 -12l-6 -17l5 -34l6 -12v-13l4 -14l-12 -23l8 -8l15 -4l-11 -5l-11 -21l8 -8l-4 -23l5 -14l-8 -8v-30l6 -13v-31l-18 -14h-24l-13 -3h-36l-19 9l-4 8l-17 3l-18 -5l-6 -6h-30l-13 9l-6 18l5 14l-5 5
h-6v-22l-13 -24v-9l-8 -9l-35 -9l-30 5h-12l-12 6l-22 7l-15 9l-12 11l-12 7l-19 24l-9 19v12l-8 8l-7 35v12l-3 18v64l3 10v18l6 18l12 22l3 9l15 18l7 3l16 13l39 18h15l6 3h43l18 6h6l6 6h3v-12h10l21 -12h12l6 3h6l8 22l10 -4l4 3l-9 9v19l-4 6v6l-6 6l-6 3l-3 7l-8 8v5
l-10 4h-12l-6 -6h-13l-12 -6h-24l-6 -5l-3 -7l-8 -7l-14 -24h-9l-12 -3l-6 6h-16l-12 7l-47 17l-11 11v30l9 9v9l22 29l15 8l19 15h11l12 12l45 8l28 -5l10 -21l10 -10l-8 -20l13 -12l-12 -16v-6l10 -10l18 4v9l-3 12l-11 4l8 14v34l6 13l19 19l33 -5l22 -6h17l10 -8l3 -7h9
l16 -9l14 -15l19 -10l9 -9v-15zM345 691l-10 -28l-18 -17l-12 -7l-21 -6h-46l-7 7l-34 7l-8 8h-9l-13 -6l-6 6h-10l-12 -19h-30l-9 10l-6 11l3 6v17l18 28l19 5l6 5h24l7 -3l3 3h21l6 -3l25 -5l35 -11l19 5l28 27h24l13 -13v-27zM250 229l-6 -6v-6h-6v6l9 13l-3 3h-3v3h-3
l-3 -3l-6 3h-7l-4 4l-26 -13l-3 -7l3 -3h9l3 -3l-5 -3v3l-9 -4l-7 -11l6 -12l3 -3v-11l-9 -4l4 -9l-4 -4l9 -12v-7l11 12l13 -7v-5h-6l-3 -5l-7 -4l9 -10l10 5v-6l5 -18l11 -17v-2l6 -6h3v8l5 24l14 11l15 29l-4 4v9l3 -6h6l-6 16v15l-12 12l6 9v9l7 7l-10 6v6zM192 394h-6
v4l9 6l4 -3zM229 150l-3 3l3 9l6 3zM239 179l-13 5l8 4zM222 229l-6 4l3 3h3v-7zM247 199l-3 3v3h3v-6zM195 165l-3 3h3l4 -3h-4zM232 138h-3l3 5v-5z" />
    <glyph glyph-name="adieresis" unicode="&#xe4;" 
d="M390 499l9 -13l9 -2v-3l4 -6l3 -10h3l4 -35l5 -4v-9l5 -7v-25l5 -4l-9 -14l4 -12v-15l7 -7l-7 -20v-62l3 -6l7 -26l-7 -14v-6h7v-9l-3 -12l9 -3l-9 -14l-6 -33l6 -18l-4 -3v-96l-8 -5h-6l-6 -6h-10l-14 -3l-31 3l-7 6h-18l-24 13v8l-16 3l-6 -5h-12l-22 -11l-9 8l-10 26
l4 4v12l-6 4l6 6l10 18l17 18l3 6l13 7l6 12v8l7 12l-7 7v9l6 7v15l-9 9l4 8l-9 9l-9 -9l-8 4l-6 -3v9l22 4v6l-14 13l-19 -8l7 12l-11 -5l-12 9l-3 9h-10l-4 -11l-6 7l-5 -11l3 -9h12v12l7 -6v-6l-7 -6v-7l10 -3l3 13h9l6 -3l-3 -7h-6l-9 -9h-10l-3 3h-15l-15 -12l-3 -9
l-6 -3v-6l8 -8l12 13l4 -5v-9l-2 -3v-25l-4 -3l4 -4l16 5l7 -6l-13 -18l-14 14h-6l-3 -6l9 -19l5 -16l7 -9v-17l-4 -9l4 -13l3 -3v-3h-3l-6 -24l-12 -13h-22v7h-6l-3 -7l-6 7l-8 -5l-32 11l-29 12l-26 19l-12 18l-3 12l-6 8v10l-6 12v10l-6 18v27l-3 28v43l3 3v21l6 21
l18 22l30 26l13 4l6 4l33 8l10 10l6 -6l21 -3h43v-6h6l3 -3h10l25 -13h3l17 -11h10l9 8v9l-7 4l8 17l10 5l-11 17l-6 6h11l4 13l-3 15l-6 6h-6v-12h-3l-6 9l3 18l-13 12l-17 10v25l3 9v15l-10 9l16 34h36l27 -9l12 6l13 -9h9l7 -6h8v-7h19v-18zM209 505l3 -3v-21l5 -9h-8
v-22l-10 -4l-5 -9h-10l-5 -8l-4 3l-30 -37l-2 3l-41 12h-18l-6 7h-6l-6 3l-17 4l-11 10v34l9 10l11 17l8 4l15 15l34 19l18 6l21 3l12 5h32l11 -11v-31zM215 706v-17l6 -7v-9l-6 -27l-3 -6v-6l-9 -10l-15 -6h-58l-25 4l-18 17l-6 59l18 27l9 3l10 9h36l28 -3l19 -8zM381 686
l-7 -44l-8 -8l-12 -9l-40 -4l-31 3l-23 13l-4 42l6 29l15 14l18 6h54l26 -19zM166 171v-9l-3 -3l8 -12h11l8 4l-5 5l-8 15h-11zM179 251l-9 -9h6l8 8l4 -5v-22h10l-4 7v6l6 14l-2 7zM221 168v-3h-18v10l6 6zM237 77l-11 -11l-5 5l7 9v6h6zM170 227l-7 -7v-6h7l3 13h-3z
M270 153l-9 9l14 5zM280 355l-5 -3l-5 3v7h10v-7zM250 376h-10l4 8l9 -5zM301 349v-6h4v6h-4zM176 135l-3 -3h3l3 3h-3z" />
    <glyph glyph-name="aring" unicode="&#xe5;" 
d="M398 471l4 -13l9 -9v-10l7 -20l9 -19v-12l2 -4l-10 -10l8 -7l8 -22l-3 -24l6 -7v-8l7 -13h-3l-7 6l-3 -3v-9l-3 -6l9 -10v-17l-4 -9l4 -10l8 -14l-4 -14l-6 -5l6 -37v-13h7l-8 -22l7 -41l-6 -11l9 -59l-13 -13h-17l-6 -3h-68l-9 9h-9l-15 15l-37 -8h-20l-7 11v6l-3 6
l-5 -4l-5 4l10 10v39h-16v6h13l6 10l8 3l22 22l6 3v20l6 13v22l5 4l-7 6l-4 -10l-12 -7l3 10h3v11h3l3 -3l6 12l-15 10v6l5 5l-11 7l-7 -3l3 -6l-3 -3l-6 9v19l-8 -3l-3 -6l-7 -3l-3 -7h-15v7l12 12v2h-22l-6 -5l-29 -8l-11 -18l16 5v-7l-12 -13l-3 4h-3v-10l12 -3l3 -3l3 3
v6l11 -5l5 5h2v-14h-8v-13l11 -6l-3 -3l-2 -9l-9 -3v-13l17 -4l-11 -7l-3 -6l-8 7l-6 -5l4 -12h10l6 -6l-3 -3l3 -9l21 -18l9 -13v-6l3 -3v-9l-6 -3l-3 9l-3 -3v-28l-13 -24h-11l-16 -3h-25l-9 3h-8l-10 6h-10l-40 25l-11 15l-11 11l-4 17l-6 6l-7 14l-7 26l5 11l-7 6v9l4 9
l-5 6l5 22l-6 7l5 17v16l3 6v23l10 13l3 10l18 18l7 4l9 9h5l4 7l18 4l14 10h20l13 10l9 -8l14 7l10 -3h27l3 6l5 -11l23 -4h20v-7h7l9 10h12v9l-3 3v13h-6l-15 -10h-7v3l16 16v5l11 6l-8 13v3h3v6l-9 6h-6l-5 17l-8 7h-5l3 -8h-6l-4 11h-21v-8l-9 -9h-10v-13l-3 -3l-3 6v10
h-5l-4 -5l-9 5h-9l-3 -10l-6 -6l-3 -6l-7 3v6h-6l-14 -15l-35 15h-17l-9 9h-21l-20 14v20l9 18l23 27l42 28l15 3l20 8l39 7l15 -15l6 -48h30l3 -3h3v9l7 6l-4 2h-3v37l13 10l11 3l34 -3l19 -10l18 -3l21 -9l13 -12l17 -11zM267 745l13 -25v-39l-6 -6l-10 -5v-11l-8 -8
l-12 -3l-10 -10l-25 -4v8l-6 -7h-8l-14 5l-11 11l-8 4l-4 7l-4 3l-3 13l-3 3v36l10 19l26 26l27 9l23 -4l6 -3h10zM222 733h-17l-23 -16l-11 -22l11 -28l16 -10l11 -9h13l18 9l10 2l6 19v25l-9 17zM173 190l-10 5l7 -15l9 -9l5 19h-11zM240 168h-15l-6 5l21 7v-12zM237 204
l-6 -3v-5h-6l-4 7l4 4h12v-3zM239 221l-6 6l4 5h8zM212 155h-6v7l3 6l3 -3v-10zM168 159h5l5 4l-5 5z" />
    <glyph glyph-name="ae" unicode="&#xe6;" horiz-adv-x="735" 
d="M695 454l8 -4l5 -30l6 -25l7 -7v-15l10 -9l-4 -9v-42l3 -7l-3 -6v-49l-15 -15h-34l-6 -6h-6v6h-21l-6 -11l-4 11l-18 3l-10 -6l-3 -6l-9 -8l-8 4l8 9l-16 8l-35 -14l-9 10h-10v-13h-6l-12 6l-3 -15l-10 -14l-11 -7l5 -9l-16 -4l-8 7l-12 -9h-3l-3 -3h-7v-3l13 -13v-3
l6 -6l3 12h6v-9l-3 -6v-18l6 3v-3h7l9 5l5 -5v-9h-30l14 -14l22 -5v-6l-4 -4l4 -8l-5 -5l11 -16h-9v-19l8 -7l-5 -20l-6 -6v-13h-36l-43 16l-6 6l-12 6l-16 15h-8l-3 6l-12 12l-4 -18l-6 -3l-5 9h-8l-6 -9l-14 -12l-7 -3l-12 -9h-9l-15 -4l-10 10v27l3 25v16l11 -5l11 10v12
l12 9v7l6 6v6h-15v9h15v12l-9 9l-19 13l25 16l-11 10l7 14l-12 18h-12l-9 -13l-4 -12h-14v9h-6l-3 -9h-6l3 6v31h15v-6l-5 -16h17l3 10l6 3l-11 11l-16 4l-6 -3h-22l-8 -12l-10 3h-15l9 -9l6 -10l-6 -6l-9 -3l-3 -3h-14l-11 -18v-9l9 -9l6 3l5 12h5v13h12l10 8v9l8 10v6h6
v-10l6 -6l-12 -15l-6 -2v-4h3v-9h6l3 6l3 -3v-3l9 -8l-14 -5l5 -6h-9v7h-3l-3 3h-10l5 -22h-10l-5 5l-7 -8v-6h6v-9l5 -9h-11l-3 3l3 6l-7 13l-15 -5v-5h6v-3l-3 -3v-12l13 4l-7 -10l3 -4l7 4v-10l-4 -10l22 -14l11 -31l-8 -15h3l4 3h2l-5 -39l-12 -12l-54 6l-11 5h-14
l-42 29l-23 36l-4 12l-7 14l-8 35v15l-6 31l13 78l14 28l19 19l13 10l32 14h19l12 9l30 -7l11 5l11 -4h15l6 3l16 -6l12 6l5 -5l6 12l8 -4l-3 -9l-7 -6v-5h7l5 5l6 3l6 6h6v6l-6 7h-6l-8 6v12l2 3l11 -5l11 5h9v18l-9 9l-13 22h-16l-5 9l-9 10l-9 27v49l8 20l17 4h23l19 -6
h13l23 -12l10 -3l6 -7h27l6 4l19 6l12 6l5 -5l8 8h39l6 -6l11 -20l-4 -7l6 -9h8v-10l-3 -3l-2 3v3l-5 -5l5 -11l8 4l8 -18l11 -4h6l-6 6l6 10l4 -13h18l2 3l-11 13l3 3l8 36v24l16 7l9 -3h16l3 -3h24l6 -6h18l31 -19l24 -21zM717 153v-43l-5 -9l-11 -28l-11 -5l-12 -20v-8
h-16l-8 -10l-25 -13l-49 -17h-21l-10 10v12l-4 31l4 18v24l-8 3l19 10l30 36v15l17 13h71l17 -4h13zM192 520l3 -9l9 -9v-49l9 -10l-6 -3l3 -3l-11 -11l-4 3l-6 -6v-7h-6l-12 -6l-4 -6h-4l-14 -19h-6l-4 -9h-14l-3 3l-18 -3l-54 17l-8 8h-9l-6 12v30l6 7v15l34 33l9 4l19 15
l33 6h9l6 3h12l28 4zM549 410v10l-3 9l-11 -6l-6 3h-10v-13l6 -18h4v9l-6 5l9 4l6 7v-19h8l6 6h10l4 9zM195 113v-6l4 -9l-11 -5l-5 5v6l-3 3l4 18zM574 395l-6 -7h-6l-13 -12l3 -3h4v-7l11 16h10v13h-3zM480 436l-12 -6l18 -17h2v18zM483 233l-13 -3l4 -10l6 -2l11 9z
M247 159l-6 -6h-9l-3 3l12 12h6v-9zM232 126l-9 4l-7 14h6l7 -12h3l9 -6h-9zM208 82l-4 -8l-5 3v12l3 4zM551 349l5 -12h6l4 12h-15zM521 457l-5 5v9h13zM199 138h-10v9h10v-9zM466 195l6 -6l5 5l-3 11zM497 423l-5 -6l12 -5v8zM535 349l3 -9l3 3v6l-6 9v-9zM452 214l-6 -6
h12l3 3zM293 178l-3 -3l6 -3h6l-3 6h-6zM265 306l3 -6h6v6h-9zM281 306l9 -4v4l-5 5zM516 382v-3h3v6zM192 190l3 -3v3l-3 3v-3zM177 168h3v4z" />
    <glyph glyph-name="ccedilla" unicode="&#xe7;" horiz-adv-x="461" 
d="M417 447l9 -10v-17l9 -19v-15l3 -10v-30l-15 -15h-18l-16 -7l-39 -6h-46l-10 9l-9 5v20l-6 13h-6v11h-10l-6 13h-5l-3 3l-10 -6v-15l-6 -12l-4 -15l-5 5v22h-13l-10 -10l15 -29l-5 -5h-3v10l-6 6l-4 -5l4 -14v-13l-19 -5l-8 -9v-15l3 -3l3 3v6h10l3 -17l-22 -11v-5l6 -13
l-3 -3v-6l-3 -3l6 -3l-12 -9v-18h25v-16l-9 9l-16 -6l9 -6l22 -3l-6 -6l-3 -7l-5 5l-9 -5l-8 16l-4 -7l7 -27v-8l19 -4l-4 -3l-3 -6h-6l-3 -3l12 -13h13v-15h3v9h8v-21h7l10 10l6 -5l5 10l3 -3v-12h7l6 -6v-9l4 -4l5 12l-6 7h-5l5 9l-6 3l6 6l8 3l10 19h9l6 -6l-6 -3l6 -7
l10 31l-7 4v2l9 4l5 21l13 9l16 -3h37l14 5l16 -8l7 3l3 6l9 -3v-5l12 -6v-5h-9l6 -9l6 3l-3 -14h10l-5 -16l5 -29l-9 5l-19 -16v-19l-13 -9l4 -12l-4 -6h-9l-12 -8l-3 -10h-4l-11 -12v-13l6 -6v-3l-9 3l-13 -12l-8 12h5l12 7l-5 5l11 4l-5 6v4l-12 -5l-7 -15h-9v-15l10 -14
l-12 -6l-17 5l4 12h-14l-5 -12l5 -8l-7 -6l-4 8l-6 3l-6 -6l-10 -6l4 -7l11 4l18 -11l8 4l20 7l4 -4l-3 -3h-10v-9l3 -6v-7h-6v-23l3 -7l-3 -3l3 -3h13v-12h-16l-8 -21l-9 -31v-10l-19 -17l-8 -12l-8 -4l-6 -6l-8 -3l-4 -8l-18 -5l-14 -9h-38l-9 9v16l15 15l20 9l10 9v8
l-20 8h-7l-24 25l-7 12v52l14 26l21 10l3 7h6l4 10l4 -4h13v13l-10 -4l-11 3v6l-15 -4l-5 23l-16 -6l-8 8l-11 6h-13l-6 4l-12 3l-10 6l-14 5l-13 13l-13 8l-18 32l-3 12l-9 18v28l-5 12l-4 21l-6 19v46l-3 3v22l-5 32l5 37v16l3 6v19l6 24l-3 3l10 37l8 12v6l10 17l9 5v6
l24 23l34 20l42 12h55l18 -18l10 5l17 13h35l47 -12l33 -13l18 -19l3 -5l10 -5zM211 7l-6 6l-3 -13l-18 -18h14l20 12h12v9zM236 110h-15l-6 7h-21l8 18l6 -9h3l7 -6h9l9 3v-13zM227 389l-9 -7v-3h18l-3 10h-6zM191 -36v-9h-10l6 16zM435 71l-12 9l8 4l4 -4v-9zM215 49
l-4 -12l7 -3v15h-3zM308 -118l-4 -4l5 -5l9 5zM334 -80l-3 -6h-6v3l6 7zM294 -76l4 -4h6v4l-3 3zM194 252h-6v8l6 -3v-5zM257 117h-8v3h8v-3zM257 -42l-2 -3h8v3h-6zM184 327h-3l3 -3h4zM246 -39l3 -3h3l-3 3h-3z" />
    <glyph glyph-name="egrave" unicode="&#xe8;" horiz-adv-x="463" 
d="M393 484l12 -9l27 -52v-28l6 -16l7 -3l-6 -37l9 -26v-22l-3 -9l5 -15l-12 -22l-42 -9l-6 -6h-7v6h-30l-9 -3l-10 3l-20 -3l-3 -3h-53l-10 5l-5 -5h-18v-10l9 -3v-3l-16 -6h-12l-6 -6l3 -2h6v-13h-6l-15 8v16h12l6 6l-8 3l-7 7h-7l-5 -10h-6v-17l6 -13l12 -8l3 -7l-3 -4
l4 -8l-5 -6l-8 8l-3 -3l3 -13l14 4l7 12l-3 3l3 3l-4 6l13 7v-13h3l3 7l5 -9l-8 -4l-7 -17l7 -10l3 -12l7 -6h6v-4l-6 -6v-9h12v-10l-10 -18l7 -23l-3 -10v-20l-16 -23h-30l-9 3h-10l-12 6h-6l-24 10l-31 17l-12 13h-3l-15 18l-16 26l-3 14l-9 22l-9 45v19l-3 27v83l-3 16
v52l6 11v19l8 35l13 20v9l30 39l28 19l25 11l18 5l3 3h31l10 5l8 -8l6 -22v-6l6 -6l9 6v3l7 6l7 -7l-7 -21l9 5l3 -10h13v14l-11 11l19 21l5 9h44l40 -16l3 -3l30 -15l10 -10v-8zM451 145l-6 -32l-7 -18l-3 -3l-6 -18l-22 -27l-8 -4l-10 -15h-15l-13 -9h-5l-3 -6l-45 -16
h-28l-23 8l-14 55l3 8v20l11 14l-7 12l8 9h6l19 15l26 45l19 10h38l14 3l19 -9h22l6 -6l8 -3l10 -10zM301 646v-14l-9 -5h-22l-12 3h-21l-54 12l-4 4h-22l-6 3l-18 4l-9 16l6 16v11l13 20v6l11 9h23l21 -12l22 -7l8 -8h3l3 -3l42 -16l16 -15l6 -3l11 -10zM267 434l-11 13
l-10 4v5h-18l-13 -25v-5h3l3 3l6 -10l-9 -9l-3 -6l6 3l4 -3v-11l-10 -4l-3 -7h-9v7h9v23l-9 5l-5 -10v-12l2 -3l-6 -3v-43l4 -3l-4 -6l4 -3h8l-8 18h11l12 4v9l4 6v2h3v-5l6 -6h3v-4l-12 -3v-6l12 -12h9l7 6h5l6 -6h6l5 9h8v-6l3 -3l3 6l9 9v21l4 8l-12 12l5 14l-7 8l-13 -9
l-5 4l10 10l-4 9zM188 426l3 -6l7 6l2 5h3l8 8l-5 5zM256 376h-16l-3 6l6 7l13 -10v-3zM176 417v-22l12 18l-3 4h-9zM249 196l-6 -3l-3 15h9v-12zM209 461v-11l3 -3l6 3v6zM170 373v-8h6v8h-6zM179 379h3l-3 3v-3zM270 368h-3l3 3v-3zM276 382l-3 3h3v-3z" />
    <glyph glyph-name="eacute" unicode="&#xe9;" horiz-adv-x="463" 
d="M418 478l15 -38l3 -3v-6l4 -12l3 -34l6 -12l-4 -14l5 -9l-8 -42l5 -10l-4 -23l-3 -3l-4 -11l-14 -7l-25 -3l-6 -6h-24l-6 3h-16l-6 -9l-9 9h-13l-5 -22h-3v22h-13l-6 3h-31l-8 -9h-22v9h-13l-6 -3h-14v-9l5 -7l3 -9l-8 -4l7 -16l10 -4l3 -15l-3 -3l-3 9l-9 -3l-2 -6h-16
l-6 6l13 8l-7 6l-3 7h-3l-9 -18l-3 -3v-10l-4 -6l5 -4l5 -16l15 -8v-10l17 -12l6 -11l11 3l3 -6l-7 -3v-6h12l-12 -15h-7l4 -9v-13l3 -3l-12 -25l-8 -5h-25l-55 15l-6 6l-22 9l-41 45l-5 19l-9 19l-5 30l-4 10l-9 61v12l-4 18l4 67l-4 16l7 39l6 13v22l31 57l25 26l48 27
l58 14l5 9h5l5 -12l9 -8l3 5v25l-9 -10h-4l4 16l6 9l17 -13l-6 -11l14 -7l7 22h9v-9l-7 -10v-3l7 3l10 -3l53 -7l20 -9l20 -5l30 -20l4 -8h6l12 -12zM433 140l-14 -36l-28 -27l-10 -13l-17 -12l-20 -12l-25 -9l-20 -3h-31l-7 6l-4 21v36l-6 19l6 3l10 18l14 7v8l9 5l3 14
l3 6v16l13 3l20 13l62 -7h27l15 -8v-48zM296 710l16 -28v-28l-13 -9l-55 -18l-12 -6l-31 -4l-8 -3l-48 -10l-14 7l-15 16v30l17 17l44 17l30 16l19 6l18 8l18 6h19l15 -14v-3zM271 391l-6 -12l-8 -8l5 -4l-5 -9h11l7 -3l6 6v30h-10zM244 431v-24l-3 -6v-4l-3 -3v-3l10 6
l16 14l-7 8l-9 15zM232 437l-16 -8v-4h4l3 -3h6v-3h3l6 6v9zM216 457l4 -8h9v10l-8 8zM226 486l-9 -3l6 -6h9v9h-6zM180 229l-6 -9v-9l9 4v14h-3zM196 156l-7 6h-4l4 12l7 -6v-12zM248 376h6l7 7l-6 7zM227 176l-4 -5h-3v6l3 4zM235 379v-3h3v-6h3v9h-6zM207 165l-3 -3v12h3
v-9zM220 529v-6h3l3 6h-6zM229 388l-3 -3h6v3h-3zM174 236v-4l3 7zM204 401h3v3zM226 550l3 -3v3h-3z" />
    <glyph glyph-name="ecircumflex" unicode="&#xea;" horiz-adv-x="463" 
d="M405 484l10 -9l6 -16l13 -28l5 -18l9 -9v-9l-6 -7v-9l3 -3v-11l3 -4v-3h-6v-9l3 -6v-25l3 -37l-5 -5l-5 -26l-18 -10l-5 -10l-10 3l-3 3l-9 3h-9l4 -8l-6 -6l-5 5v9h-11l-6 -3h-22l-11 5l-8 -8l-8 -19h-3l-4 25h-12l-6 6h-16l-9 -9h-3v6h-2l-6 -12l-7 6v9h-34l3 -6h19
v-19h-16v13h-6l-3 -3l3 -4v-3h-6v22h-12l-12 -12l-3 -7l-6 7l-10 -10l13 -6l9 -21l-3 -6l3 -3h8l4 -9v-22l-3 -3l-6 6l4 8l-4 4h-3l-5 5l-4 -5h-8l8 13v15l-7 6l-6 -6h-3v-46l9 -18v-9h7l9 9l3 6h3l3 -6h9l6 3l-3 -34h-6l3 -21l3 -6v-6l3 -4v-9l-7 -11l6 -7l-6 -30l-12 -11
l-30 4l-6 3l-18 3l-34 13l-18 17v7h-9l-19 25l-4 15l-8 9l3 6l-6 6l-3 12l-6 11l-6 44v22l-5 9l5 156l3 10v23l29 69l20 21l6 2l10 21l52 24l27 5l14 5l23 -6l14 -15v-28l17 -3l-5 -23l7 -7v-19l13 -8v-16l15 -8l-7 32h-8v10l-3 6v15l-7 4v9l24 4l-9 4l-5 -3l-5 4l11 6l6 28
l28 7l12 -4h6l5 -3l22 -4l37 -13l27 -21zM415 116l-9 -8l9 -4l-7 -9l-6 -12l-6 -6v-16h-11l-5 -9h-6l-5 -6l-3 -7l-6 -9l-13 -11h-6l-13 -7l-20 -6h-7l-15 -6h-22l-8 5v7l-10 27l10 10v22l5 9v8l-11 3l11 7l12 12h7l6 6l19 7l6 9l8 6l-3 3v9h9l14 14l8 -8h13l6 3l27 -9
l27 -5zM301 713l13 -12l2 -6l9 -10v-12l13 -16v-17l-13 -13h-24l-28 30h-6l-3 -8l-21 21h-6l-16 -15l-8 3l-10 -9l-5 -11l-21 -14h-23l-21 13l-6 12l9 15l58 62l21 11h46l28 -9l9 -9zM283 392l-3 3h-10l-11 -11l-7 9l4 8l-3 3v6l-7 3l-4 -4l4 -8l-6 -3l-4 -8l7 -11v-6h-3
l-8 8l-11 -10l25 -10h12v7h9v-22l3 -3l-6 -3l-3 6l-5 3l-3 6l-13 -9h-19l5 4l-11 11h-14l-4 -15l8 -4l4 4h6l-9 -10l4 -7l10 5l-5 6h6l6 -16h23l20 14l3 -11l-3 -6h3l12 11l6 -12l10 10v6h7v4l-10 9v16l11 5l-9 4l-8 -3l-6 5v6h15l-6 10h-12zM365 214h-21v12h12zM194 220
v-12l-9 3l-6 6l6 3l6 6zM295 336h-12l-5 10h17v-10zM234 196h-6l-7 5v7l13 -4v-8zM176 156h-10v9h7l6 -6zM221 443l5 -4l9 9zM258 329v-5l6 -3l3 3zM231 426l-3 -3h9v3h-6zM280 355l-7 6h7v-6zM198 123v-10l3 10h-3zM273 371h-3l3 5v-5zM200 385l3 -3v6zM277 404v-3l3 3h-3z
M173 346l-3 -3l6 3h-3z" />
    <glyph glyph-name="edieresis" unicode="&#xeb;" horiz-adv-x="463" 
d="M413 471l12 -25l6 -7l-4 -10l10 -13v-67l4 -8l-8 -8l9 -16l-9 -23l13 -19l-6 -3l-7 -12l-15 -16l-16 5l-5 -10h-15v-6h-10v9h-11l-7 -3h-9v-10l-6 7v6h-22l-14 -3h-46v-13h-6l-22 7l-6 6h-7v-10l-6 -6h-6v10h-5l-16 -16l9 -3l7 -6h2v-8l-12 4l-6 7h-9l-3 -7h-7v-5l22 -9
l-7 -7l15 -8l16 9v-7l-14 -9h-11l-5 -9h6v-3l-8 -5l5 -10l9 -9h7l5 -10l8 -4l7 -32v-12h7l12 12v24l10 9l6 3l27 27l20 38l13 9l4 11l5 -6v-5l25 -6h22l12 -6h15l24 -10l7 -15v-27l-11 -33l-14 -22h-3l-15 -26l-18 -15l-13 -6l-9 -8l-55 -19h-33l-18 14l-11 14l4 8h-10
l-8 -20l-15 -13h-41l-9 3h-8l-40 17l-19 13l-28 28l-3 10l-9 9v12l-12 11l-8 40l-7 119l6 59l6 6l-3 3v46l6 42l15 29l6 18l19 18l27 22l9 9h13l9 5l26 7l4 4h10l15 5l9 -5h4l8 -6l3 -10l6 -6l-4 -5l4 -14l8 -11l-5 -10l10 -9l9 3l19 3l-3 7h-3l-4 8l-15 -8l-3 3v17h12v3
l-6 7l6 6l6 -3v-6l7 -7v-9h6v39l14 8h49l36 -14l14 -11l17 -6zM377 695l-5 -16l3 -6v-9l-5 -7l-3 -16l-28 -14h-44l-14 -9v9l-16 16l-8 4v13l-7 17l7 31l11 11l5 9h8l12 3h16l14 5l25 -5l21 -11zM201 701v-6l4 -5l-4 -26v-12l-12 -12l-26 -9l-22 5h-32l-12 10v3l-9 8v50
l12 12l19 9h58l6 -6l15 -9zM271 423h-6v3l-11 5v14l-10 5l-7 -14l4 -7v-10h-6l-3 4l-6 -16l-3 -3l12 -3l3 -6l-6 -7l-4 -27h-15l-6 -6l-6 3l-2 -3l5 -6h15l4 -3h3l6 -7h12v10l12 4l3 8h5l4 -12l-7 -8l4 -5h10v22h15l4 8l9 5v2h-7v25l-9 3v6l-6 3l-3 6l3 11zM186 373v-12h10
l4 5l-4 5l3 2h-13zM209 388l-5 -15h9v6l3 3l3 9zM223 652l-7 -9l-3 -7h-3v16h6l7 3v-3zM210 453v-16h3l10 6l-7 10h-6zM275 391h-10l4 5l-4 8h10v-13zM235 352h-9l-3 3l6 3h6v-6zM254 368h-10l4 5h6v-5zM254 419h-3l-3 4h3zM296 349v-3h3v3h-3zM293 382h-3v3h3v-3zM284 364
h-3v4zM244 379h-3l7 3zM226 55v-3l3 3h-3z" />
    <glyph glyph-name="igrave" unicode="&#xec;" horiz-adv-x="208" 
d="M184 504v-33l10 -28v-10l4 -8l-4 -9l-4 -4v-9l4 -6v-13l-4 -6l7 -11v-10h3l-3 -9v-6h5v-16l-8 -9v-21l-4 -9v-23l15 -7h-11v-13l3 -6l-3 -6l8 -16l-5 -3l3 -3l-6 -11v-19l4 -16l-6 -34l5 -32l-3 -10v-8l-4 -7l4 -6l-4 -22v-21l-15 -12l-32 -6l-35 9h-43l-19 6l-9 24v46
l-3 52v89l3 3l-6 30v92l-2 4v158l5 16l15 6h10l3 2h97l19 -18zM200 659v-27l-19 -18h-34l-15 8l-31 4l-39 9l-13 7h-12l-21 9l-6 11v19l6 9v7l6 12l9 5l9 10h16l18 -7l7 -5h11l43 -18l24 -13h10l25 -9z" />
    <glyph glyph-name="iacute" unicode="&#xed;" horiz-adv-x="208" 
d="M175 486l6 -6l-3 -9v-6l-7 -14l10 -21h-6v-5l3 -3v-12l13 -19v-8l-14 -7l4 -4h7v-7l-13 -4v-10l-5 -20l14 -14h-9l-3 -5l3 -19l6 -3v-6l-3 -3v-27l13 17h3v-12l-3 -2v-6l-7 -7v-9l10 -19h-19v-17l3 -17l-4 -57l4 -12v-13l8 -14h-5l-3 2h-3v-46l-15 -22l-39 -7l-73 6
l-17 28l3 53l-5 67l5 10l-4 20l4 35l6 22l-5 10l5 69v34l3 5l-4 13l4 9v46l5 13l-5 30v38l16 8h61l23 6l22 -12zM172 385l3 -3v3l-3 3v-3zM197 682v-25l-15 -15l-101 -18l-13 -7h-12l-19 -4l-15 7l-3 10l-10 15l4 12l9 12l21 7l27 18h19l6 6l34 15h10l8 6l25 4l12 -15z" />
    <glyph glyph-name="icircumflex" unicode="&#xee;" horiz-adv-x="208" 
d="M171 524l16 -15v-22l6 -11v-74l-5 -14l5 -14l-3 -5v-22l-3 -3v-12l6 -6l-6 -7v-11l-3 -9l3 -3l-3 -4v-15l-5 -5l5 -4v-12l-7 -12v-6l-6 -22v-36h14l-10 -30l-4 8l-3 -17l9 -13v-6h-6v-16l6 6l3 -9l-14 -3l-13 -19v-20l3 -4v-15l-11 -20l-16 -4h-13l-15 -4l-29 8l-8 -4
l-24 4l-3 11l-7 12v12l-5 30v409l5 25l16 16h103l19 -6zM190 670v-4l19 -12l14 -21v-8l-19 -19h-27l-9 9l-12 7l-18 18l3 7l-6 3l-13 11h-21l-18 -18l-3 -6l-31 -31h-29l-20 13l-9 9v19l28 26l11 7l22 18l21 20l25 4h31l26 -10z" />
    <glyph glyph-name="idieresis" unicode="&#xef;" horiz-adv-x="208" 
d="M169 500v-18l6 -9l3 -13l-6 -3l6 -9l-3 -16l-3 -5v-9l11 -4l-5 -15l-6 -6v-15l-6 -7h9v-17l-3 -10v-9h15l-9 -15l-9 -5v-22l-7 -34l12 -3l-8 -9v-34l3 -9l10 7l8 -4v-12l-9 -3l-14 -20l5 -5l3 -9h3l9 -9v-3l-9 -3l6 -6h-12v-12l4 -4l5 10h6v-27l-12 -16v-9l4 -3l-4 -12
v-22l-10 -29l-12 -4h-33l-6 3l-7 -3l-23 3h-22l-16 6l-14 15v40l-5 27l7 86v192l3 27v88l6 35l13 12h25l18 -4l16 6l5 -6l21 5l4 -4l20 -8zM175 103l-6 -3zM175 116l-6 -10h3l3 3h3v7h-3zM175 204l3 -3h3l-3 3h-3zM71 681l-6 -17l-11 -17h-14l-6 -3h-39l-22 20v10l-3 21
l7 25l18 8l13 -4l10 5l25 -4l21 -8zM233 670l-7 -15l-12 -8h-14l-6 -3h-35l-12 4v13l-3 6v13l-2 3v18l17 18h55l10 -8l9 -5v-36z" />
    <glyph glyph-name="eth" unicode="&#xf0;" horiz-adv-x="443" 
d="M419 685v-19l-6 -6l-6 -3l-11 -10l5 -4v-4h-4l-6 7l-3 -3v-7l9 -9l4 -9l-8 -8l4 -5l10 -3v-8l-3 -3l3 -15l12 -6v-7l12 -7h-15l-6 -3l4 -7l-5 -9l7 -8v-9l3 -9v-6h6v-13l-3 -3v-5l7 -7l-7 -12v-9l3 -3v-13l4 -6l5 3l-3 -8l-9 -10h-3v-9h10l9 -10l-19 -26v-13l5 -4l-5 -5
l15 6l-3 -9l-6 -6l-3 -16l-4 -5l4 -13l-5 -10l5 -5l4 -18l11 -4l-15 -3l-3 3v-9h10v-12l-10 -9v-9l3 -3v-4l3 -6v-9l-6 -6v-6l-6 -12v-61l-6 -6v-13l6 -12l-3 -3h-6l-11 -10l4 -8l-6 -3l-6 -13l-18 -18v-10h-18l-20 -18l-45 -13l-30 -5l-17 7l-8 12l-6 3v21l6 3v12l3 9v24
l-9 3l4 9l-5 5l7 8l19 13l9 12l2 12h7v18l6 13l-5 30l5 24l-6 13l9 18v28l-11 11l11 11v6l-21 11v3h5v10h-5l-6 -7h-19l-9 7h-12v-7l9 -4v-5l-3 -3v-11h-6l-10 -21l-14 5l-15 -7l8 -9l7 7h9v-10l-6 -6v-3l8 4l-5 -10v-6l-19 -18v-40h3l3 6l4 -9l6 3l4 -8l7 7l6 -14h7l9 6
l3 -3v-6l-9 -5v-8l8 -11l-14 -7l-4 -9h-5v16l-9 -4l-3 6l-18 -4l15 -14v-12l9 -9l10 -4l5 -9l7 -7l-4 -8v-12l-10 -9l13 -9v-4h-15v-21l2 -15l-5 -12l-6 -4l-5 -9l-23 -4l-30 4l-16 6h-9l-44 20l-33 32l-21 43v12l-5 11l-4 20v101l3 9v30l3 10v15l3 12v31l7 19l5 24l7 15
l5 3l6 13l16 14h6l10 9l17 7l16 3l6 3h16l10 3l17 -3h21l21 -20l4 -13h9l3 5h18v-14l-15 -4h-6v-6l15 -4v-12l-6 -6v-8l9 5l3 -9h10l6 6v6l-3 3l3 13l12 12l-6 3h-9v-6h-9l6 16l9 3v8l-3 3v3l6 -3l3 -9l5 3v-5l4 -3l6 5v15l6 4v9h-6l-12 -13h-3v13l16 16l-6 17h-7l-3 -6
l-3 3v16h16l-13 24v4l-6 -4l3 -18l-8 -8l-19 33l13 -4l8 4l-7 6l4 18l-10 9l-9 -6h-3l5 10l-8 8l-30 -9h-6l-19 -9l-31 -8l-11 21l12 8l13 14l36 10l3 7l17 9l7 12l-4 22l-8 8l-12 22l-10 10v6l7 11h12l36 6h37l34 -17h16l6 -12l5 6h6l6 -6l31 12h15l6 3h17zM175 182l-5 -13
l7 -7h19l5 6l-8 3v10l-3 6zM190 233l-9 -10l-4 10l7 6h6v-6zM254 141h-6l-9 6v9l12 -9zM226 123l-3 -3h-6l-7 7l10 5zM431 511h-6v9h6v-9zM223 544l-6 6v3h12z" />
    <glyph glyph-name="ntilde" unicode="&#xf1;" horiz-adv-x="469" 
d="M421 495l14 -31v-6l9 -25l-3 -3v-26l19 -5l-13 -26l7 -6l-8 -4l5 -9h-10v-21l-3 -10l4 -17l-7 -7l-4 -11l7 -7v-10l-9 -9l6 -5l-3 -9v-32l3 -27l3 -3l3 -9l-6 -6l6 -6l7 3l-4 -10l-9 -3v-49l9 -4v-5l-11 -11l8 -16l-6 -6v-19l-6 -26l-21 -7h-86l-15 6h-7l-8 15v50l4 3
l-4 8v44l6 5l-3 3l6 92l3 10l-4 11l7 22l-3 3v49l-3 15l-8 4l12 18l-4 11l-6 7l-3 9l-14 13l-8 -4l-4 17l-5 5h-12v27l-12 6l-6 -6v-9h6l3 6l3 -9l-14 -5l5 -5v-17h12v-10l-6 -3l6 -6v-9l6 -3v-4h-15v-9l-14 -12l5 -10l-10 -17l-9 -7l-4 5l-8 -5l-3 -14h-6l-6 2v-11l11 -4
l4 -9h6v-12h-9l-6 6h-9v-16l6 -6l-10 -13l4 -17l4 -8l-7 -8v-27l-5 -18l5 -10v-27l5 -29l-5 -14v-30l-3 -6l-7 -27l-18 -10h-99l-20 13v17l-3 3v49l-3 43l3 18v117l-3 31v124l3 3l-3 7l-3 83l7 22l8 5l9 9l58 -3l20 5l37 -13l13 -12l26 9l22 -5l4 -14l7 -13l3 -15l13 13
l8 30l15 12h41l11 -3l40 -5l21 -16l24 -9zM369 715v-15l-7 -12v-19l-24 -27h-13l-9 -9h-18l-6 3l-3 -3h-25l-12 6h-18l-46 18h-12l-13 -9l-5 -10l-10 -5h-18l-25 24v24l13 25l6 6l3 6l29 18h62l6 -6l16 -3l30 -15h28l9 9h7l6 11l19 10l19 -13zM212 375l-3 3l-9 -8v-3l11 4
l7 -10l6 6l-3 8l-4 5zM448 232h-10v12l6 7h4v-19zM223 403l5 -14l9 5l-6 9h-8zM223 428l-8 -12h13v12h-5zM243 486l-9 -6l3 -9l6 9h3v6h-3zM203 351v-6h6v9l-3 4zM218 394v-3l3 3h-3z" />
    <glyph glyph-name="ograve" unicode="&#xf2;" horiz-adv-x="469" 
d="M408 480l4 -8l-4 -4l3 -6l4 8l7 -7l-9 -9l7 -8l4 -9h5v9l3 3l6 -9l3 -12l6 -6v-15l-5 -6l5 -10l7 -6v-13h-7l-3 -5h10v-6h-10v-13l12 -11l-9 -4l7 -6l6 -15h-6v-9l-10 -10v-21l10 -10l-11 -10l12 -12l-14 -14v-10h6v-9l-6 -11l-3 -13l-4 -8l7 -14l-6 -6h9l3 -6l-9 -6
l-3 3h-3l-3 3l-2 -12v-9l-7 -12v-13h-9v-12l5 -5l-17 -16l-17 -21l-38 -20l-22 -5l-9 -6h-31l-18 4l-7 14v11l-9 5l7 15v30l10 27l20 10l11 20l-6 6l11 14v15l-5 10l10 14l7 36l-6 16v19l-3 9l3 10v14l-3 3v10l3 3l-6 28l-7 7l-11 -5l6 11l9 5l-3 3l-19 3l16 10v5l-4 3v7
l-9 9l-7 -10l-8 4h-12v-3l12 -13l-7 -8l-8 8l-4 12l-23 6l-10 -15l-8 8l-4 -5l-6 -12h6l2 6h3l3 -6l4 -3l-24 -18v-9l10 -5l-4 -4l3 -7l-3 -3h-9v-12l6 3l3 -6l-8 -8l5 -5v-5h6l7 -4l-16 -9h-7l-6 -6v-3h6l-3 3h7l3 -3l-7 -6l8 -8l-4 -5l-4 4h-3v-18l-3 -3v-10l8 -11l-9 -9
l9 -13l-16 -14l8 -8l3 -6h3v6h11l8 -14l-8 -9l-7 11l-10 -6v-7l-9 -6l6 -6h9v-3l-14 -13l11 -11h16l14 -3l-7 -18l13 -30l4 -4v-6h-10l5 -24l-11 -10h-5l-6 -6h-22l-12 6h-18l-25 9l-9 9l-14 5l-7 7l-3 7l-14 9l-5 9l-18 22l-13 37l-5 5v28l-10 19l5 13l-5 10v41l-3 5v38
l-4 18l4 12l-3 12l6 13v50l13 30v14l8 10v15l20 19l5 14l19 16l11 6l6 6l13 7l18 5h18l8 15l11 -6l3 10h6v-7l-4 -8l4 -4h6l7 6v9h6l6 -6l15 -8v-9l3 -4l6 7l6 -3l3 -10h16l6 13l-3 2v3h18l14 -4l17 5v-6l14 -3l38 -19l16 -4l8 -9l4 -8l14 -7l5 4l8 -7v-9zM295 669v-30l-7 3
h-21l-12 -12h-12l-7 6h-15l-19 13h-30l-36 9l-16 10v11l3 9v6l10 19l6 5v11l8 5h25l49 -24l19 -5l49 -25zM253 612l-17 -9v11l7 7h6zM197 547l-4 -11l7 -7l5 6l-5 15zM234 582l-4 8v7h3l3 -3h10zM236 526v-6l-3 -3l3 -7l10 10l-6 6h-4zM271 382h-11l-3 3l9 8zM230 562v-3
h-15l9 10zM169 306v-6h3l5 4l-5 5zM160 220l3 3l-3 6v-9zM191 391h3l-3 6v-6zM438 407v-4l3 4h-3zM160 241l-3 -3l6 3h-3zM166 238h3v3z" />
    <glyph glyph-name="oacute" unicode="&#xf3;" horiz-adv-x="469" 
d="M414 474l-7 -10l10 -5h6l6 -20l-7 -13h12l-5 -10l3 -15l11 -11l-6 -6l4 -20v-15l7 -16l-6 -5l9 -16v-15h-10v-3l10 -10h3l4 -4l-14 -6v-29l4 -9v-37l3 -3v-9h3v-22l-13 -12v-15l7 -6v-3h-8l-11 -22h8l-5 -9v-6l-9 -6l-10 -17l4 -4l-24 -22l-13 -6l-11 -12l-31 -15l-27 -7
h-10l-10 -5l-25 6l-8 30l6 6l-3 3l-5 9v9l2 7v24l6 6l12 6l7 12l12 13v9l6 12v15l3 13v27l3 12l-3 22v85l-6 25v9l-6 9v12l-6 6l-7 25l-11 7l-12 -13h-16l-3 -3l6 -3h13v-16l-13 -11h-6v-13h-9l-10 5v-5l3 -3l-18 -12h-9l-3 -7l3 -6v-6h-3l-5 6l-15 -10l-5 4l-3 -10l13 -5
h12v-9h-6l-6 3h-16v-12l-6 -7v-12l6 -9h10v-12l-10 -6l3 -3h3v-6l-6 -7v-6l11 -7l-8 -8v-9l7 -24h4l-5 -28h10v-9l3 -3l3 6v9h9v-7l-3 -2v-9h-3l-3 -3l7 -21l8 -4l6 -12h11l-7 -12l8 -12l3 -13v-15l-4 -4l4 -8l-17 -34h-19l-15 3h-19l-36 13l-16 9l-6 6l-9 3l-21 21l-13 25
l-8 8l-4 19l-9 31l-10 71l4 8l-3 6v16l-3 12v61l3 9v61l12 50l6 11l4 14l11 11h3l4 9l6 6l4 9h8l21 22l31 9l18 3l18 6h16l16 -6l8 -19l-3 -6v-9l6 -5h6l12 6l-7 6l8 11l3 -6l6 3h6l9 10v6l13 13l21 -4l18 6l3 4h7v-7h11v-3h19l12 -12h19l6 -12l15 -7l9 -9l9 -4v-8zM316 685
l-2 -13l5 7h12v-10h-9l-6 -6h3l6 -6v-8l-11 -5v-11h-10l-3 6l-12 3l-7 8l-21 -11h-9l-6 -3h-25l-12 -12h-15l-3 -3h-40l-7 8l-5 10l4 15l26 17l65 26l9 10l21 8h22l18 -18l15 -5zM212 382v-8l13 -3l15 6v9zM228 443l-3 -6l5 -10l-5 -11l3 -6l3 9h6v12l-6 6v6h-3zM276 563h-6
l-4 4l-14 -11l-12 3v4h9l12 6h15v-6zM229 486l8 -12l6 7v5h-14zM242 438l4 -4l8 7l-5 10zM215 471v-3h3v3h-3zM246 477v-3l3 3h-3z" />
    <glyph glyph-name="ocircumflex" unicode="&#xf4;" horiz-adv-x="469" 
d="M429 449v-12l9 -15l9 -9v-35l4 -8v-9l3 -6l-3 -13l3 -15v-37l3 -11l-4 -12l4 -10l-4 -8l4 -20l3 -3l-9 -5v-56l-16 -43v-12l-8 -5l-7 -19l-24 -31l-13 -13l-3 -6l-11 -3l-13 -7l-40 -14h-30l-4 -3l-18 -3l-3 3h-12l-12 13l-3 11l-6 9l6 7v37l9 21l12 12h4l20 33l3 13
l7 18v31l6 53l-3 50l3 6l-3 7l3 23l-9 14l-7 32l-20 26l-7 3l-3 30l-10 6l10 10v27l13 27l12 6l36 -5l24 -6l40 -15l15 -10l25 -24zM214 483l4 -9l-9 -28v-16h6v-8l-10 5l-11 -11v-16h-9l-3 6l-13 -3l10 -15h9l4 -9l-16 -4l-10 10h-9v-7l5 -4l-5 -4v-9l-6 -6v-35l3 -11l3 3
h3v-5l-9 -4v-7l5 -5l-10 -19l5 -10h6v-5h-3l-6 -6v-31l6 -6h9l3 -4l-9 -3l-6 -11l3 -6l6 -25l6 -6v-19l43 -36v-16l3 -5l-3 -3v-47l-6 -11l-16 -18l-54 8l-17 7l-26 14l-34 34l-3 6l-9 10l-21 63v37l-6 6l6 98l-3 19l3 8l-4 50l10 39v19l12 11v21l32 36l32 22l19 4l6 4h6
l27 14l46 -8zM319 663l22 -21v-23l-38 -13l-21 20h-6l-12 -24l-15 -9l-9 9l-9 18l7 11l5 -5v-6h18l10 21l-22 7l-21 3l-4 6h-3l-6 6h-12l-15 -21l-22 -22h-18l-18 8v12l10 16l23 16l28 28l24 12h16l9 3h18l28 -14l15 -20l8 -3zM179 339v-6l6 -13l-3 -3l-9 10l-10 5l3 7
l-10 5l10 7h7zM240 430l-5 -4l-11 4v7h13zM241 676l-4 -7l3 -3h3l-3 -9l11 14zM185 174h-9v9h3l9 -6zM255 611l3 -6l3 3v3h-6zM188 422v-3h3v3h-3z" />
    <glyph glyph-name="otilde" unicode="&#xf5;" horiz-adv-x="469" 
d="M205 526l-3 -12l5 -35l-5 -5v-9l-8 -13v-9h8v-3l-5 -3v-12l-3 -3l8 -3v-3l16 -3v-13h-16v10h-8l-3 -6l-10 -7l4 -3l-12 -8l-5 10l11 17h-16l-9 -21l15 -10h9l7 -6v-4h-10l-6 4l-3 -4v-17l-6 3v-19l10 -10l-4 -9l-9 -3v-14l6 -11l-3 -11v-19l3 -3l4 5l5 -5l-6 -5l4 -17
l-8 -8l4 -19l6 -11v-16l19 -6l-3 -3h-13v-6l16 -16v-9h6l3 6h2l3 -8l3 -3l-3 -7l3 -6l13 -3l3 -3h6v-9l6 -7l-6 -6l5 -4l-8 -10l-6 -56l-19 -12l-5 3l-12 -3l-32 4l-53 21l-21 19l-23 29l-7 6l-17 36l-3 22l-3 6l-4 25l-3 7v11l-6 12v28l-3 10v63l3 16v28l6 30v9l3 13v15
l7 12l11 34l16 18v6l22 22l8 6l31 16h9l7 3h14l16 5h28l6 -5zM399 492l12 -7l5 -15l14 -16l-5 -6l7 -23l6 -6v-19l3 -33l3 -12v-31l4 -4l-4 -17l3 -16v-22l4 -11v-16l6 -6h3v-3l-14 -4l5 -15l-7 -6l3 -3v-8l-6 -3v-16l10 -6v-6l3 -4l3 -9l-5 -5l-11 11l-3 -6v-15l-7 -7
l5 -10l-7 -11h-5l-19 -33l-10 -9l-5 -11l-53 -26l-44 -14l-36 6l-11 23l-4 4l4 27l-3 3v7l-3 8l6 12v28l7 -3l11 3v10l15 14l3 10l4 4l9 21l3 20l6 13v94l4 7l-4 21v25l-6 18v9l-3 7v15l-10 10l-6 2v3l-3 3l-5 -5l-4 5v9l-10 16l-5 24h-6v3l11 4v11l-2 7l9 3v15l9 10l9 3h28
l24 -6h16l24 -19l16 -8zM178 155v-3l3 -3v6h-3zM188 429h3l-3 5v-5zM243 431h-13v6l8 8l5 -5v-9zM221 459l-10 3l4 15l10 -10zM246 468l-6 -5l-4 14l4 3zM340 713v-22l-15 -23l-27 -13h-31l-12 2h-15l-32 9l-11 7h-40l-24 -24h-10l-15 7l-7 21l8 25l17 16l18 10l4 -4l15 7
l37 -4l5 -5l16 -4l48 -21l16 4h8l26 21h17z" />
    <glyph glyph-name="odieresis" unicode="&#xf6;" horiz-adv-x="469" 
d="M373 665l7 -7l-7 -20v-12l3 -3l-5 -10h-13l-4 4l-8 -4l-6 -6h-6l-4 -3l10 -3l11 7l9 -8l-6 -6l4 -5l7 -3l-7 -6l-6 6l-13 -6l4 -9h12l7 3v-28h-7v3l-8 -4l-4 4v3l-3 3l-8 -3l5 -9l31 -10v-11l8 -6l3 -6l34 -34l13 -24l3 -10l8 -9v-18l6 -31v-12l8 -10l-4 -5v-15l9 -5v-5
l-3 -3v-6h-3l-3 -9l3 -12l-3 -6l7 -14l-7 -14v-46l-4 -19l4 -11l7 -7l-14 -14v-16l-3 -6v-6l-6 -12v-19h-8l-4 -16l-34 -38l-17 -10h-3l-12 -12l-43 -15h-7l-6 -3h-12l-11 -5l-8 8h-10l-9 26l6 6l-8 8v30l-4 7l15 29l16 8l17 47l5 47v64l-4 32l6 12l-5 33l-8 20l-14 22
l-12 6h-9l4 7l-20 21l-15 -7l-7 -10l-16 -12v-8h8v3l6 6h9v-9l-23 -12l-4 3v3l-6 -6v-4h3l3 -6l8 -7l-11 -10v5l3 6l-12 6l-3 6l-6 -6v-33l-3 -3v-25h12v-21h-6v7h-10v-13l7 -12v-16h9v-9l-6 -9v-6l-6 -6l3 -12l-3 -10l3 -3l3 -9l-8 -7l8 -23l7 -14l-5 -12l10 -5h6v-3l-6 -3
l24 -24l6 -16h10l3 -3l-8 -7l5 -8l-3 -3v-25l-7 -6v-21h-3l-16 -12l-8 6h-35l-13 9h-16l-31 15l-18 19l-16 11l-12 22l-13 20l-4 20l-7 12v9l-6 19v22l-3 11v19l-3 21v49l3 13v45l6 18v31l18 46l4 16l15 18l25 24l17 6l5 4l31 12l60 11l19 -16l5 -26l12 12l12 15v10l-12 3
l-9 8v3l-16 -8v8l19 9l3 -3h6l6 -15h7l-4 21l6 7l-15 -6l-6 6h-10l-4 -5l-5 5v6l-3 3l-8 -4l-22 4v6l7 7l-13 8h-5l-5 9l-15 6h-24l-25 13l-6 19l3 3l-5 5l5 19v15l20 20l47 4l13 3l12 -3l10 -5l3 -10l8 -9h6l10 12l3 -3h15v-12h9l-3 3l3 3v11l19 11l27 6l24 -4h28l23 -22z
M324 583l-9 -6h-12l-10 -10l6 -12l-5 -15l17 4l-4 5v6l7 8l-4 8h11l6 12h-3zM288 596h-13v-11l10 4h6l3 4zM248 601v-5l7 -7l2 7l-2 5h-7zM184 189h-6l-5 10h11v-10zM239 665l7 -10l6 4l-4 6h-9zM248 558v-3l7 3h5v3l-4 5zM184 222h-3l-6 7v3h9v-10zM224 486v-6h6l3 3l-3 3
h-6zM275 607l4 -6l6 6l-3 3zM208 712h-6v8h3zM200 312h-6v5h6v-5zM205 648l-5 -5l14 5h-9zM227 473v-3l6 3h-6zM275 574v-3l4 3h-4zM233 657h3l-3 2v-2zM365 623v-3l3 3h-3zM221 690h3v3zM194 593h3l3 3z" />
    <glyph glyph-name="divide" unicode="&#xf7;" horiz-adv-x="494" 
d="M290 205l12 -15v-4l4 -9v-39l-4 -10v-14l-9 -4l-4 -12l-38 -7h-50l-27 7l-13 19v63l13 24l25 13h52l30 -8l9 4v-8zM452 330v-31l-3 -6v-12l-6 -6l-24 -13h-58l-13 -3l-38 6l-11 -6h-12l-6 3h-24l-6 -3l-8 8l-8 -8l-6 3h-19l-9 10h-33l-16 3h-33l-13 6h-45l-17 8l-5 10v40
l9 19v8l22 6h30l38 6h23l25 3h34l9 -3l54 4l19 -4h65l5 -3l47 -8h10l19 -14zM302 535l7 -6l3 -16v-12l2 -15v-25l-5 -12v-6l-16 -15h-39l-3 -6l-13 3l-3 3l-32 3l-19 13l-7 14v46l7 26l16 15l21 6l75 -5z" />
    <glyph glyph-name="oslash" unicode="&#xf8;" horiz-adv-x="469" 
d="M382 541v-29l22 -32l9 -9l3 -9l11 -18l4 -19l6 -12v-28l6 -6l4 -9l6 2v-11h-3l-5 5l-8 -8v-9l16 -6v-13l4 -8l-10 -13l-7 -22l3 -9v-15l6 -10l-6 -11h5l-6 -24l7 -6l-12 -22v-9l3 -13v-9h10l3 -6l-3 -3l-7 3l-6 -7v-17l-6 -6l-5 -10v-6l-5 -5l5 -11l-8 -6l-5 -14l-9 -6
l-8 -12l-15 -5l-31 -25l-29 -7l-6 -3h-24l-13 -5l-9 5l-24 6l7 11l3 28l-7 22l-6 -3l-6 3h-16l4 21l-8 3l-14 -3l6 -10v-5l4 -8l-4 -4v-19l5 -4l-5 -5l-6 -24l-8 -9h-48l-29 -19h-27l-4 9h-5v7l3 6l-3 3l-5 28l-17 24l-10 9l-12 24l-8 31v11l-7 32l-3 23l-3 13v15l-6 19v58
l3 17l-3 10l3 13v9l3 6v27l6 19v18l12 24l39 48l47 23l39 12h41l11 -12v-24l10 -13v-3l6 -3l3 3v32l11 16l14 7l35 4l34 17h6l20 5l27 -9zM265 271l-8 -8h-12l-12 6l-6 -6h-10v-43l7 -14l-12 -23l5 -5l4 6l9 3l12 -19h-15l-3 -3h-3v3l-4 3l-17 -28l9 -12l-4 -12h6l3 -3h16
l6 3l14 -10l-11 -11h-6l-3 -3l3 -7l24 12l3 13l8 13h-8l-5 -3l-13 3h-15v14l9 3l-3 3h-16v7h10l3 6l15 6l-9 -9l19 -15h9l8 12l7 3v9l-7 3l-3 6l6 7v-7h4l3 7l12 3l-7 7l-8 -4h-13l6 6h7l8 4l8 16l-7 7v28l-3 6v9zM214 425l-17 -18v-7l-3 -3v-21l-7 6l-9 -10v-8l-16 -18
l-6 -4v-9l3 -6v-15l10 -9l3 -12l-3 -7v-12h6l10 5l-7 7v7l9 -7l3 10l4 3v3l-7 -3l-4 8l-14 9l-5 18l11 -5h30l-8 -9l-11 -5l16 -10h3l18 -18l4 12v12l3 9v31l-3 9l-6 9l-4 -6h-3v18l3 -3l10 -4l3 16v28l-9 9h-7zM245 193h-9v8l9 13v-21zM182 348l-4 7l3 3l9 3zM184 364l4 7
l6 -4zM227 217l-3 3l6 6zM197 336h-3v6h3v-6zM221 471v-3h3v3h-3zM211 346l-6 3h6v-3zM285 168l3 -3v6zM205 339l-3 3h3v-3zM239 223v3h3zM217 394l-3 3h3v-3z" />
    <glyph glyph-name="ugrave" unicode="&#xf9;" horiz-adv-x="461" 
d="M157 498l-6 -7l6 -17v-6l20 3l-5 -10l7 -3h18v-3l-7 -11l-21 -5v-6l13 -11v-3l6 6v3l3 2l9 -3l-6 -11l9 -7l-6 -3l-6 -12l-15 -6v-21l10 -21l-17 -6v-17l-6 -6v-11l9 -3v-3h-9v-13l-7 -11l-5 5l-8 -13l5 -11l3 -12l14 -7l7 3h8l-6 -12h-20l-3 -9l-15 -16l12 -5l4 -10
l11 4l3 -3h10l12 -13v-6l4 -4l-8 -13l4 -5l9 5l9 -5l9 10v-12l-15 -6h17l-5 -9l-6 3h-12l-4 8h-5v-8l12 -9v-16l9 -19l-6 -5v-22l4 -25l-5 -19l-17 -17h-28l-25 5l-8 4h-11l-14 10h-6l-18 11l-19 19l-24 36v22l-6 18v24l-5 14l5 24v39l6 52l2 9l7 19v8l3 6l-3 4l-4 24l9 17
l-8 7l11 18l-5 10v16l6 6v11h-3l-6 7l6 18v34l4 8l-7 7l8 16l10 -7l27 13h56l15 -16v-18zM417 507v-12l-5 -5l17 -17l-5 -29l12 -7l-7 -7l3 -2l-3 -3h-3l-6 -6v-10h9l-12 -6l6 -6h6v-3l9 -3l-6 -16l-6 -5v-15l3 -15l-3 -7h-9v-24l3 -13l3 4v6h3l6 -10v-15l-10 -4l4 -9l-8 -8
l8 -15h12v-7l-18 -18v-3h6l6 3l6 -13l-8 -7l-4 4h-4l5 -10l8 -4l-6 -13h-3v-25l-6 -6v-27l6 -6l-3 -6l-6 -3v-11l10 -15l-7 -14v-25l-7 -26l-15 -7h-24l-23 -3l-33 3l-5 6l-12 7l-12 11h-10l-20 -11h-22l-10 9l-6 2v44l6 20l4 3l-10 10l-11 3l-4 9v6l15 -3l19 13l9 3h6l9 17
l7 8l5 14v13l3 9v21l-3 3l6 6l4 30l-4 3l3 3h7v7l-3 3v9l3 7l-3 21v43l-7 17l3 6l-3 3l10 13l-11 5l8 7l-4 7l4 10l-4 17l7 18v46l7 21l23 4h52l12 -3h12l13 -7zM182 220h-6v6h6v-6zM417 237v-5l6 -3l3 3zM191 306h-6l-5 4l8 7l3 -3v-8zM154 323v-3h3v3h-3zM423 381l-4 -4
l4 -5l6 9h-6zM160 461h6l-3 3zM313 642l-8 -22l-39 8l-9 -8l-5 6h-3l-6 6l-16 7h-15l-5 4l-31 14h-10l-13 12l10 38l13 7h15l31 -7l85 -45l6 -5v-15z" />
    </font>
</defs>
</svg>
